<mxfile host="app.diagrams.net" modified="2023-08-10T09:22:49.133Z" agent="Mozilla/5.0 (Windows NT 10.0; Win64; x64) AppleWebKit/537.36 (KHTML, like Gecko) Chrome/114.0.0.0 Safari/537.36" etag="cnP3-NIJRoos7Lw7bsUh" version="21.2.1" type="github">
  <diagram id="6a731a19-8d31-9384-78a2-239565b7b9f0" name="Page-1">
    <mxGraphModel dx="1147" dy="566" grid="1" gridSize="10" guides="1" tooltips="1" connect="1" arrows="1" fold="1" page="1" pageScale="1" pageWidth="3300" pageHeight="4681" background="none" math="0" shadow="0">
      <root>
        <mxCell id="0" />
        <mxCell id="1" parent="0" />
        <mxCell id="YY16_9WFN3RDnf-ZN_8t-1547" value="&lt;div style=&quot;&quot;&gt;&lt;font style=&quot;font-size: 12px;&quot;&gt;Parameter-efficient fine-tuning of large-scale&amp;nbsp;&lt;/font&gt;&lt;/div&gt;&lt;div style=&quot;&quot;&gt;&lt;font style=&quot;font-size: 12px;&quot;&gt;pre-trained language models&lt;/font&gt;&lt;/div&gt;" style="whiteSpace=wrap;html=1;rounded=1;arcSize=50;align=center;verticalAlign=middle;strokeWidth=1;autosize=1;spacing=4;treeFolding=1;treeMoving=1;newEdgeStyle={&quot;edgeStyle&quot;:&quot;entityRelationEdgeStyle&quot;,&quot;startArrow&quot;:&quot;none&quot;,&quot;endArrow&quot;:&quot;none&quot;,&quot;segment&quot;:10,&quot;curved&quot;:1,&quot;sourcePerimeterSpacing&quot;:0,&quot;targetPerimeterSpacing&quot;:0};fillColor=#66B2FF;" vertex="1" parent="1">
          <mxGeometry x="560" y="587.5" width="280" height="50" as="geometry" />
        </mxCell>
        <mxCell id="YY16_9WFN3RDnf-ZN_8t-1557" value="delta-tuning定义" style="whiteSpace=wrap;html=1;rounded=1;arcSize=50;strokeWidth=1;spacing=4;" vertex="1" parent="1">
          <mxGeometry x="900" y="140" width="110" height="30" as="geometry" />
        </mxCell>
        <mxCell id="YY16_9WFN3RDnf-ZN_8t-1582" value="" style="edgeStyle=orthogonalEdgeStyle;rounded=0;orthogonalLoop=1;jettySize=auto;html=1;endArrow=none;endFill=0;" edge="1" parent="1" source="YY16_9WFN3RDnf-ZN_8t-1560" target="YY16_9WFN3RDnf-ZN_8t-1580">
          <mxGeometry relative="1" as="geometry">
            <Array as="points">
              <mxPoint x="1030" y="385" />
              <mxPoint x="1030" y="240" />
            </Array>
          </mxGeometry>
        </mxCell>
        <mxCell id="YY16_9WFN3RDnf-ZN_8t-1584" value="" style="edgeStyle=orthogonalEdgeStyle;rounded=0;orthogonalLoop=1;jettySize=auto;html=1;endArrow=none;endFill=0;" edge="1" parent="1" source="YY16_9WFN3RDnf-ZN_8t-1560" target="YY16_9WFN3RDnf-ZN_8t-1583">
          <mxGeometry relative="1" as="geometry">
            <Array as="points">
              <mxPoint x="1030" y="385" />
              <mxPoint x="1030" y="525" />
            </Array>
          </mxGeometry>
        </mxCell>
        <mxCell id="YY16_9WFN3RDnf-ZN_8t-1598" value="" style="edgeStyle=orthogonalEdgeStyle;rounded=0;orthogonalLoop=1;jettySize=auto;html=1;endArrow=none;endFill=0;" edge="1" parent="1" source="YY16_9WFN3RDnf-ZN_8t-1560" target="YY16_9WFN3RDnf-ZN_8t-1597">
          <mxGeometry relative="1" as="geometry" />
        </mxCell>
        <mxCell id="YY16_9WFN3RDnf-ZN_8t-1654" style="edgeStyle=orthogonalEdgeStyle;rounded=0;orthogonalLoop=1;jettySize=auto;html=1;exitX=0;exitY=0.5;exitDx=0;exitDy=0;entryX=0.444;entryY=0.252;entryDx=0;entryDy=0;entryPerimeter=0;endArrow=none;endFill=0;" edge="1" parent="1" source="YY16_9WFN3RDnf-ZN_8t-1560" target="YY16_9WFN3RDnf-ZN_8t-1588">
          <mxGeometry relative="1" as="geometry" />
        </mxCell>
        <mxCell id="YY16_9WFN3RDnf-ZN_8t-1560" value="delta-tuning分类" style="whiteSpace=wrap;html=1;rounded=1;arcSize=50;strokeWidth=1;spacing=4;" vertex="1" parent="1">
          <mxGeometry x="900" y="370" width="110" height="30" as="geometry" />
        </mxCell>
        <mxCell id="YY16_9WFN3RDnf-ZN_8t-1657" value="" style="edgeStyle=orthogonalEdgeStyle;rounded=0;orthogonalLoop=1;jettySize=auto;html=1;" edge="1" parent="1" source="YY16_9WFN3RDnf-ZN_8t-1571" target="YY16_9WFN3RDnf-ZN_8t-1656">
          <mxGeometry relative="1" as="geometry">
            <Array as="points">
              <mxPoint x="1064.38" y="715" />
              <mxPoint x="1064.38" y="670" />
            </Array>
          </mxGeometry>
        </mxCell>
        <mxCell id="YY16_9WFN3RDnf-ZN_8t-1659" value="" style="edgeStyle=orthogonalEdgeStyle;rounded=0;orthogonalLoop=1;jettySize=auto;html=1;" edge="1" parent="1" source="YY16_9WFN3RDnf-ZN_8t-1571" target="YY16_9WFN3RDnf-ZN_8t-1658">
          <mxGeometry relative="1" as="geometry">
            <Array as="points">
              <mxPoint x="1064.38" y="715" />
              <mxPoint x="1064.38" y="760" />
            </Array>
          </mxGeometry>
        </mxCell>
        <mxCell id="YY16_9WFN3RDnf-ZN_8t-1683" style="edgeStyle=orthogonalEdgeStyle;rounded=0;orthogonalLoop=1;jettySize=auto;html=1;entryX=0.503;entryY=0.614;entryDx=0;entryDy=0;entryPerimeter=0;endArrow=none;endFill=0;" edge="1" parent="1" source="YY16_9WFN3RDnf-ZN_8t-1571" target="YY16_9WFN3RDnf-ZN_8t-1588">
          <mxGeometry relative="1" as="geometry">
            <Array as="points">
              <mxPoint x="900" y="717" />
              <mxPoint x="900" y="717" />
            </Array>
          </mxGeometry>
        </mxCell>
        <mxCell id="YY16_9WFN3RDnf-ZN_8t-1571" value="delta-tuning理论" style="whiteSpace=wrap;html=1;rounded=1;arcSize=50;strokeWidth=1;spacing=4;" vertex="1" parent="1">
          <mxGeometry x="918.13" y="700" width="106.25" height="30" as="geometry" />
        </mxCell>
        <mxCell id="YY16_9WFN3RDnf-ZN_8t-1574" value="&lt;div&gt;仅更新少量参数（模型中固有或外部引入），&lt;/div&gt;&lt;div&gt;同时冻结占绝大多数的其余参数。&lt;/div&gt;" style="whiteSpace=wrap;html=1;shape=partialRectangle;top=0;left=0;bottom=1;right=0;points=[[0,1],[1,1]];fillColor=none;align=center;verticalAlign=bottom;routingCenterY=0.5;snapToPoint=1;recursiveResize=0;autosize=1;treeFolding=1;treeMoving=1;newEdgeStyle={&quot;edgeStyle&quot;:&quot;entityRelationEdgeStyle&quot;,&quot;startArrow&quot;:&quot;none&quot;,&quot;endArrow&quot;:&quot;none&quot;,&quot;segment&quot;:10,&quot;curved&quot;:1,&quot;sourcePerimeterSpacing&quot;:0,&quot;targetPerimeterSpacing&quot;:0};" vertex="1" parent="1">
          <mxGeometry x="1020" y="50" width="245" height="40" as="geometry" />
        </mxCell>
        <mxCell id="YY16_9WFN3RDnf-ZN_8t-1575" value="" style="edgeStyle=entityRelationEdgeStyle;startArrow=none;endArrow=none;segment=10;curved=1;sourcePerimeterSpacing=0;targetPerimeterSpacing=0;rounded=0;exitX=0.5;exitY=0;exitDx=0;exitDy=0;dashed=1;" edge="1" target="YY16_9WFN3RDnf-ZN_8t-1574" parent="1" source="YY16_9WFN3RDnf-ZN_8t-1557">
          <mxGeometry relative="1" as="geometry">
            <mxPoint x="1010" y="160" as="sourcePoint" />
          </mxGeometry>
        </mxCell>
        <mxCell id="YY16_9WFN3RDnf-ZN_8t-1604" value="" style="edgeStyle=orthogonalEdgeStyle;rounded=0;orthogonalLoop=1;jettySize=auto;html=1;endArrow=none;endFill=0;" edge="1" parent="1" source="YY16_9WFN3RDnf-ZN_8t-1580" target="YY16_9WFN3RDnf-ZN_8t-1602">
          <mxGeometry relative="1" as="geometry">
            <Array as="points">
              <mxPoint x="1400" y="235" />
              <mxPoint x="1400" y="65" />
            </Array>
          </mxGeometry>
        </mxCell>
        <mxCell id="YY16_9WFN3RDnf-ZN_8t-1606" value="" style="edgeStyle=orthogonalEdgeStyle;rounded=0;orthogonalLoop=1;jettySize=auto;html=1;entryX=0;entryY=0.5;entryDx=0;entryDy=0;endArrow=none;endFill=0;" edge="1" parent="1" source="YY16_9WFN3RDnf-ZN_8t-1580" target="YY16_9WFN3RDnf-ZN_8t-1605">
          <mxGeometry relative="1" as="geometry">
            <Array as="points">
              <mxPoint x="1400" y="235" />
              <mxPoint x="1400" y="265" />
            </Array>
          </mxGeometry>
        </mxCell>
        <mxCell id="YY16_9WFN3RDnf-ZN_8t-1580" value="基于加法的方法" style="whiteSpace=wrap;html=1;rounded=1;arcSize=50;strokeWidth=1;spacing=4;fillColor=#ffe6cc;strokeColor=#d79b00;" vertex="1" parent="1">
          <mxGeometry x="1190" y="220" width="120" height="30" as="geometry" />
        </mxCell>
        <mxCell id="YY16_9WFN3RDnf-ZN_8t-1653" value="" style="edgeStyle=orthogonalEdgeStyle;rounded=0;orthogonalLoop=1;jettySize=auto;html=1;" edge="1" parent="1" source="YY16_9WFN3RDnf-ZN_8t-1583" target="YY16_9WFN3RDnf-ZN_8t-1652">
          <mxGeometry relative="1" as="geometry" />
        </mxCell>
        <mxCell id="YY16_9WFN3RDnf-ZN_8t-1583" value="基于参数重参数化的方法" style="whiteSpace=wrap;html=1;rounded=1;arcSize=50;strokeWidth=1;spacing=4;fillColor=#f8cecc;strokeColor=#b85450;" vertex="1" parent="1">
          <mxGeometry x="1170" y="510" width="145" height="30" as="geometry" />
        </mxCell>
        <mxCell id="YY16_9WFN3RDnf-ZN_8t-1590" style="edgeStyle=orthogonalEdgeStyle;rounded=0;orthogonalLoop=1;jettySize=auto;html=1;exitX=1;exitY=0;exitDx=0;exitDy=0;exitPerimeter=0;entryX=0;entryY=0.5;entryDx=0;entryDy=0;endArrow=none;endFill=0;" edge="1" parent="1" source="YY16_9WFN3RDnf-ZN_8t-1588" target="YY16_9WFN3RDnf-ZN_8t-1557">
          <mxGeometry relative="1" as="geometry" />
        </mxCell>
        <mxCell id="YY16_9WFN3RDnf-ZN_8t-1595" style="edgeStyle=orthogonalEdgeStyle;rounded=0;orthogonalLoop=1;jettySize=auto;html=1;exitX=0;exitY=0.5;exitDx=0;exitDy=0;exitPerimeter=0;entryX=1;entryY=0.5;entryDx=0;entryDy=0;endArrow=none;endFill=0;" edge="1" parent="1" source="YY16_9WFN3RDnf-ZN_8t-1588" target="YY16_9WFN3RDnf-ZN_8t-1547">
          <mxGeometry relative="1" as="geometry" />
        </mxCell>
        <mxCell id="YY16_9WFN3RDnf-ZN_8t-1682" style="edgeStyle=orthogonalEdgeStyle;rounded=0;orthogonalLoop=1;jettySize=auto;html=1;exitX=1;exitY=1;exitDx=0;exitDy=0;exitPerimeter=0;entryX=0;entryY=0.25;entryDx=0;entryDy=0;endArrow=none;endFill=0;" edge="1" parent="1" source="YY16_9WFN3RDnf-ZN_8t-1588" target="YY16_9WFN3RDnf-ZN_8t-1669">
          <mxGeometry relative="1" as="geometry" />
        </mxCell>
        <mxCell id="YY16_9WFN3RDnf-ZN_8t-1588" value="" style="strokeWidth=1;html=1;shape=mxgraph.flowchart.annotation_2;align=left;labelPosition=right;pointerEvents=1;" vertex="1" parent="1">
          <mxGeometry x="850" y="155" width="20" height="915" as="geometry" />
        </mxCell>
        <mxCell id="YY16_9WFN3RDnf-ZN_8t-1649" value="" style="edgeStyle=orthogonalEdgeStyle;rounded=0;orthogonalLoop=1;jettySize=auto;html=1;" edge="1" parent="1" source="YY16_9WFN3RDnf-ZN_8t-1597" target="YY16_9WFN3RDnf-ZN_8t-1643">
          <mxGeometry relative="1" as="geometry">
            <Array as="points">
              <mxPoint x="1340" y="385" />
              <mxPoint x="1340" y="330" />
            </Array>
          </mxGeometry>
        </mxCell>
        <mxCell id="YY16_9WFN3RDnf-ZN_8t-1651" value="" style="edgeStyle=orthogonalEdgeStyle;rounded=0;orthogonalLoop=1;jettySize=auto;html=1;" edge="1" parent="1" source="YY16_9WFN3RDnf-ZN_8t-1597" target="YY16_9WFN3RDnf-ZN_8t-1650">
          <mxGeometry relative="1" as="geometry">
            <Array as="points">
              <mxPoint x="1340" y="385" />
              <mxPoint x="1340" y="423" />
            </Array>
          </mxGeometry>
        </mxCell>
        <mxCell id="YY16_9WFN3RDnf-ZN_8t-1597" value="基于规范的方法" style="whiteSpace=wrap;html=1;rounded=1;arcSize=50;strokeWidth=1;spacing=4;fillColor=#dae8fc;strokeColor=#6c8ebf;" vertex="1" parent="1">
          <mxGeometry x="1182.5" y="372.5" width="120" height="25" as="geometry" />
        </mxCell>
        <mxCell id="YY16_9WFN3RDnf-ZN_8t-1642" value="" style="edgeStyle=orthogonalEdgeStyle;rounded=0;orthogonalLoop=1;jettySize=auto;html=1;" edge="1" parent="1" source="YY16_9WFN3RDnf-ZN_8t-1602" target="YY16_9WFN3RDnf-ZN_8t-1641">
          <mxGeometry relative="1" as="geometry" />
        </mxCell>
        <mxCell id="YY16_9WFN3RDnf-ZN_8t-1602" value="基于Adapter" style="whiteSpace=wrap;html=1;rounded=1;arcSize=50;strokeWidth=1;spacing=4;" vertex="1" parent="1">
          <mxGeometry x="1610" y="50" width="120" height="30" as="geometry" />
        </mxCell>
        <mxCell id="YY16_9WFN3RDnf-ZN_8t-1623" value="" style="edgeStyle=orthogonalEdgeStyle;rounded=0;orthogonalLoop=1;jettySize=auto;html=1;" edge="1" parent="1" source="YY16_9WFN3RDnf-ZN_8t-1605" target="YY16_9WFN3RDnf-ZN_8t-1622">
          <mxGeometry relative="1" as="geometry">
            <Array as="points">
              <mxPoint x="1840" y="265" />
              <mxPoint x="1840" y="396" />
            </Array>
          </mxGeometry>
        </mxCell>
        <mxCell id="YY16_9WFN3RDnf-ZN_8t-1631" value="" style="edgeStyle=orthogonalEdgeStyle;rounded=0;orthogonalLoop=1;jettySize=auto;html=1;" edge="1" parent="1" source="YY16_9WFN3RDnf-ZN_8t-1605" target="YY16_9WFN3RDnf-ZN_8t-1630">
          <mxGeometry relative="1" as="geometry">
            <Array as="points">
              <mxPoint x="1840" y="265" />
              <mxPoint x="1840" y="160" />
            </Array>
          </mxGeometry>
        </mxCell>
        <mxCell id="YY16_9WFN3RDnf-ZN_8t-1605" value="基于Prompt" style="whiteSpace=wrap;html=1;rounded=1;arcSize=50;strokeWidth=1;spacing=4;" vertex="1" parent="1">
          <mxGeometry x="1610" y="250" width="120" height="30" as="geometry" />
        </mxCell>
        <mxCell id="YY16_9WFN3RDnf-ZN_8t-1610" value="" style="edgeStyle=entityRelationEdgeStyle;rounded=0;orthogonalLoop=1;jettySize=auto;html=1;startArrow=none;endArrow=classic;segment=10;curved=1;sourcePerimeterSpacing=0;targetPerimeterSpacing=0;endFill=1;" edge="1" parent="1" source="YY16_9WFN3RDnf-ZN_8t-1607" target="YY16_9WFN3RDnf-ZN_8t-1609">
          <mxGeometry relative="1" as="geometry" />
        </mxCell>
        <mxCell id="YY16_9WFN3RDnf-ZN_8t-1607" value="zero-shot prompting" style="whiteSpace=wrap;html=1;rounded=1;arcSize=50;align=center;verticalAlign=middle;strokeWidth=1;autosize=1;spacing=4;treeFolding=1;treeMoving=1;newEdgeStyle={&quot;edgeStyle&quot;:&quot;entityRelationEdgeStyle&quot;,&quot;startArrow&quot;:&quot;none&quot;,&quot;endArrow&quot;:&quot;none&quot;,&quot;segment&quot;:10,&quot;curved&quot;:1,&quot;sourcePerimeterSpacing&quot;:0,&quot;targetPerimeterSpacing&quot;:0};" vertex="1" parent="1">
          <mxGeometry x="480" y="120" width="150" height="30" as="geometry" />
        </mxCell>
        <mxCell id="YY16_9WFN3RDnf-ZN_8t-1609" value="instruct" style="whiteSpace=wrap;html=1;rounded=1;arcSize=50;align=center;verticalAlign=middle;strokeWidth=1;autosize=1;spacing=4;treeFolding=1;treeMoving=1;newEdgeStyle={&quot;edgeStyle&quot;:&quot;entityRelationEdgeStyle&quot;,&quot;startArrow&quot;:&quot;none&quot;,&quot;endArrow&quot;:&quot;none&quot;,&quot;segment&quot;:10,&quot;curved&quot;:1,&quot;sourcePerimeterSpacing&quot;:0,&quot;targetPerimeterSpacing&quot;:0};" vertex="1" parent="1">
          <mxGeometry x="715" y="120" width="80" height="30" as="geometry" />
        </mxCell>
        <mxCell id="YY16_9WFN3RDnf-ZN_8t-1611" value="" style="edgeStyle=entityRelationEdgeStyle;rounded=0;orthogonalLoop=1;jettySize=auto;html=1;startArrow=none;endArrow=classicThin;segment=10;curved=1;sourcePerimeterSpacing=0;targetPerimeterSpacing=0;endFill=1;" edge="1" parent="1" source="YY16_9WFN3RDnf-ZN_8t-1612" target="YY16_9WFN3RDnf-ZN_8t-1613">
          <mxGeometry relative="1" as="geometry" />
        </mxCell>
        <mxCell id="YY16_9WFN3RDnf-ZN_8t-1612" value="few-shot prompting" style="whiteSpace=wrap;html=1;rounded=1;arcSize=50;align=center;verticalAlign=middle;strokeWidth=1;autosize=1;spacing=4;treeFolding=1;treeMoving=1;newEdgeStyle={&quot;edgeStyle&quot;:&quot;entityRelationEdgeStyle&quot;,&quot;startArrow&quot;:&quot;none&quot;,&quot;endArrow&quot;:&quot;none&quot;,&quot;segment&quot;:10,&quot;curved&quot;:1,&quot;sourcePerimeterSpacing&quot;:0,&quot;targetPerimeterSpacing&quot;:0};" vertex="1" parent="1">
          <mxGeometry x="480" y="180" width="150" height="30" as="geometry" />
        </mxCell>
        <mxCell id="YY16_9WFN3RDnf-ZN_8t-1613" value="In Context Learning" style="whiteSpace=wrap;html=1;rounded=1;arcSize=50;align=center;verticalAlign=middle;strokeWidth=1;autosize=1;spacing=4;treeFolding=1;treeMoving=1;newEdgeStyle={&quot;edgeStyle&quot;:&quot;entityRelationEdgeStyle&quot;,&quot;startArrow&quot;:&quot;none&quot;,&quot;endArrow&quot;:&quot;none&quot;,&quot;segment&quot;:10,&quot;curved&quot;:1,&quot;sourcePerimeterSpacing&quot;:0,&quot;targetPerimeterSpacing&quot;:0};" vertex="1" parent="1">
          <mxGeometry x="680" y="180" width="150" height="30" as="geometry" />
        </mxCell>
        <mxCell id="YY16_9WFN3RDnf-ZN_8t-1625" value="" style="edgeStyle=orthogonalEdgeStyle;rounded=0;orthogonalLoop=1;jettySize=auto;html=1;" edge="1" parent="1" source="YY16_9WFN3RDnf-ZN_8t-1622" target="YY16_9WFN3RDnf-ZN_8t-1624">
          <mxGeometry relative="1" as="geometry" />
        </mxCell>
        <mxCell id="YY16_9WFN3RDnf-ZN_8t-1622" value="Prompt Tuning" style="whiteSpace=wrap;html=1;rounded=1;arcSize=50;strokeWidth=1;spacing=4;" vertex="1" parent="1">
          <mxGeometry x="1980" y="382.5" width="100" height="27.5" as="geometry" />
        </mxCell>
        <mxCell id="YY16_9WFN3RDnf-ZN_8t-1646" value="" style="edgeStyle=orthogonalEdgeStyle;rounded=0;orthogonalLoop=1;jettySize=auto;html=1;" edge="1" parent="1" source="YY16_9WFN3RDnf-ZN_8t-1624" target="YY16_9WFN3RDnf-ZN_8t-1645">
          <mxGeometry relative="1" as="geometry" />
        </mxCell>
        <mxCell id="YY16_9WFN3RDnf-ZN_8t-1624" value="P-Tuning" style="whiteSpace=wrap;html=1;rounded=1;arcSize=50;strokeWidth=1;spacing=4;" vertex="1" parent="1">
          <mxGeometry x="2140" y="382.5" width="100" height="27.5" as="geometry" />
        </mxCell>
        <mxCell id="YY16_9WFN3RDnf-ZN_8t-1648" value="" style="edgeStyle=orthogonalEdgeStyle;rounded=0;orthogonalLoop=1;jettySize=auto;html=1;" edge="1" parent="1" source="YY16_9WFN3RDnf-ZN_8t-1630" target="YY16_9WFN3RDnf-ZN_8t-1645">
          <mxGeometry relative="1" as="geometry">
            <mxPoint x="2150" y="155" as="targetPoint" />
          </mxGeometry>
        </mxCell>
        <mxCell id="YY16_9WFN3RDnf-ZN_8t-1630" value="Prefix-Tuning" style="whiteSpace=wrap;html=1;rounded=1;arcSize=50;strokeWidth=1;spacing=4;" vertex="1" parent="1">
          <mxGeometry x="1980" y="140" width="90" height="30" as="geometry" />
        </mxCell>
        <mxCell id="YY16_9WFN3RDnf-ZN_8t-1633" value="引入了原始模型中不存在的&lt;br&gt;额外可训练的神经模块或参数" style="text;html=1;align=center;verticalAlign=middle;resizable=0;points=[];autosize=1;strokeColor=none;fillColor=none;" vertex="1" parent="1">
          <mxGeometry x="1010" y="200" width="180" height="40" as="geometry" />
        </mxCell>
        <mxCell id="YY16_9WFN3RDnf-ZN_8t-1635" value="指定原始模型中的某些参数&lt;br&gt;变得可训练，其余参数冻结" style="text;html=1;align=center;verticalAlign=middle;resizable=0;points=[];autosize=1;strokeColor=none;fillColor=none;" vertex="1" parent="1">
          <mxGeometry x="1025" y="342.5" width="170" height="40" as="geometry" />
        </mxCell>
        <mxCell id="YY16_9WFN3RDnf-ZN_8t-1636" value="&lt;div&gt;使用低维代理参数对原始&lt;/div&gt;&lt;div&gt;模型参数&lt;span style=&quot;background-color: initial;&quot;&gt;进行(部分)重新&lt;/span&gt;&lt;/div&gt;&lt;div&gt;&lt;span style=&quot;background-color: initial;&quot;&gt;参数化，&lt;/span&gt;&lt;span style=&quot;background-color: initial;&quot;&gt;仅优化代理参数&lt;/span&gt;&lt;/div&gt;&lt;div&gt;&lt;br&gt;&lt;/div&gt;" style="text;html=1;align=center;verticalAlign=middle;resizable=0;points=[];autosize=1;strokeColor=none;fillColor=none;" vertex="1" parent="1">
          <mxGeometry x="1020" y="462.5" width="160" height="70" as="geometry" />
        </mxCell>
        <mxCell id="YY16_9WFN3RDnf-ZN_8t-1637" value="&lt;div&gt;将小规模神经模块(适配器)&lt;span style=&quot;background-color: initial;&quot;&gt;注入&lt;/span&gt;&lt;/div&gt;&lt;div&gt;&lt;span style=&quot;background-color: initial;&quot;&gt;transformer，仅调整这些适配器&lt;/span&gt;&lt;/div&gt;" style="text;html=1;align=center;verticalAlign=middle;resizable=0;points=[];autosize=1;strokeColor=none;fillColor=none;" vertex="1" parent="1">
          <mxGeometry x="1410" y="20" width="190" height="40" as="geometry" />
        </mxCell>
        <mxCell id="YY16_9WFN3RDnf-ZN_8t-1638" value="&lt;div&gt;使用其他上下文包装原始输入&lt;/div&gt;" style="text;html=1;align=center;verticalAlign=middle;resizable=0;points=[];autosize=1;strokeColor=none;fillColor=none;" vertex="1" parent="1">
          <mxGeometry x="1415" y="230" width="180" height="30" as="geometry" />
        </mxCell>
        <mxCell id="YY16_9WFN3RDnf-ZN_8t-1639" value="&lt;div&gt;将可调前缀添加到&lt;span style=&quot;background-color: initial;&quot;&gt;每个&lt;/span&gt;&lt;/div&gt;&lt;div&gt;&lt;span style=&quot;background-color: initial;&quot;&gt;中间transformer层&lt;/span&gt;&lt;/div&gt;" style="text;html=1;align=center;verticalAlign=middle;resizable=0;points=[];autosize=1;strokeColor=none;fillColor=none;" vertex="1" parent="1">
          <mxGeometry x="1830" y="115" width="140" height="40" as="geometry" />
        </mxCell>
        <mxCell id="YY16_9WFN3RDnf-ZN_8t-1640" value="&lt;div&gt;仅向输入层添加软提示&lt;/div&gt;" style="text;html=1;align=center;verticalAlign=middle;resizable=0;points=[];autosize=1;strokeColor=none;fillColor=none;" vertex="1" parent="1">
          <mxGeometry x="1840" y="358" width="140" height="30" as="geometry" />
        </mxCell>
        <mxCell id="YY16_9WFN3RDnf-ZN_8t-1641" value="Adapter-Tuning" style="whiteSpace=wrap;html=1;rounded=1;arcSize=50;strokeWidth=1;spacing=4;" vertex="1" parent="1">
          <mxGeometry x="1980" y="50" width="100" height="30" as="geometry" />
        </mxCell>
        <mxCell id="YY16_9WFN3RDnf-ZN_8t-1643" value="Freeze" style="whiteSpace=wrap;html=1;rounded=1;arcSize=50;strokeWidth=1;spacing=4;" vertex="1" parent="1">
          <mxGeometry x="1390" y="317.5" width="120" height="25" as="geometry" />
        </mxCell>
        <mxCell id="YY16_9WFN3RDnf-ZN_8t-1645" value="P-Tuning V2" style="whiteSpace=wrap;html=1;rounded=1;arcSize=50;strokeWidth=1;spacing=4;" vertex="1" parent="1">
          <mxGeometry x="2140" y="260" width="100" height="27.5" as="geometry" />
        </mxCell>
        <mxCell id="YY16_9WFN3RDnf-ZN_8t-1650" value="BitFit" style="whiteSpace=wrap;html=1;rounded=1;arcSize=50;strokeWidth=1;spacing=4;" vertex="1" parent="1">
          <mxGeometry x="1390" y="410" width="120" height="25" as="geometry" />
        </mxCell>
        <mxCell id="YY16_9WFN3RDnf-ZN_8t-1652" value="LoRA" style="whiteSpace=wrap;html=1;rounded=1;arcSize=50;strokeWidth=1;spacing=4;" vertex="1" parent="1">
          <mxGeometry x="1387.5" y="510" width="122.5" height="30" as="geometry" />
        </mxCell>
        <mxCell id="YY16_9WFN3RDnf-ZN_8t-1655" value="" style="shape=image;verticalLabelPosition=bottom;labelBackgroundColor=default;verticalAlign=top;aspect=fixed;imageAspect=0;image=data:image/png,iVBORw0KGgoAAAANSUhEUgAAAoIAAAIfCAYAAADkCL2IAAAgAElEQVR4nOzddXQUVxvA4d9KhAgRQhIkECw4RdviUIK7Qwul7UehUGgpbZFipXgpFFrctVhwiqZYcLcGJwkWgsV9s/P9EbLJBiiWZCPvcw7nZHbvzH132Z19584VlaIoCkIIIYQQIsdRmzoAIYQQQghhGpIICiGEEELkUJIICiGEEELkUJIICiGEEELkUJIICiGEEELkUJIICiGEEELkUJIICiGEEELkUJIICiGEEELkUJIICiGEEELkUJIICiGEEELkUJIICiGEEELkUJIICiGEEELkUJIICiGEEELkUJIICiGEEELkUJIICiGEEELkUJIICpGBnj59auoQhBBCCANJBIXIQO3bt8fPz8/UYQghsjN9EOd2bmbTpk1sOexH7GvuFn5lP1s2bWKLzw0i0zVAkZlIIihEBvH29mb//v2MHTvW1KEIIbIx3dkZ9GjVlrZt29K27TC2hLzWXviv/p4ObdvSYcgGAhPSMqIErq37mW/792fgvBPEpeWhxTuTRFCIDDJ69GgAli1bJq2CQoh0EsuxlWvxjVcA0D/ZwV+bH6I3aUw67h9cxswZM5j19xXiTRqLSE0SQSEygLe3N4cOHQJAp9NJq6AQIn1E7Wf5+pvoVBY4u9ij1ofi/dd67r0gE9RH+nN021pWb9jP5ac6lBceMJI75/bzt9cqVnltZd+5e0QZnosjNOged+7d52mUnqg7J9m+djVee84RaLgfHUtw4H0eRz1rYowJ4d6d+zyJSlFF1D1O7fRi9ZrN7Pd9gi7FUxH+pzh44CCHfR+hJxL/o1tZv+/au7xDIjVFCJHuatWqpQCGf1qtVrl165apwxJCZDMhG7orrmoUlU1j5ff5nyb+bVlHmXJDl6JUgvLkwC9KgwJmigoUUClap+pK1+YeihYUsxqTlOs6RYm9skz5XyVHRatKPnehMlNcag9XvB8nKEr8KWVYeTMFlY1S55MuioeV6lk5lWJVrK0y/WS4osTsUL4soDE6/6GyUTqsilQUJVa5saa/Ut0lKQ4UldpGKdl5tnIuUlEUJV45Nay8YoZKyd16pDKxeUHFXIViXmeqad7cbEpaBIVIZylbA5NIq6AQIu09YuuKv3moV2FTux2dOrahYV41SuwxVq+6ktzSFrKdQd1Hs/deAvaVuzHit98Y1jKBPTuvJ5fR32HRt/1YdDYEu3rDWHvwGAfXDaWufQJBh35j3Mq7ybeblQh81uzDqevPTPl1EG1LWRN9cxM/fPozh3Rl6TbxD35skBc1YFbpf/wxexq9qlkQdXgU7T6bwbGwwjT9bgLTJg+hdfEErq39hs4/7SMixSuL3DmJkftVVGzajja1i2bM25lTmDoTFSK7S90aiLQKCiHSQcK9uUpTW5WCylZpPj9QSVDCFK9P8ipqUMzK/aScjE8sF/JXB8VehaK2b6HMv5fwbOdAZWlbx8SyNSYp1+PuKQeXz1FmzZ6nbPONSSwT/I/Sz0OrgJlSaeQ5JT6pRRCNkq/beuXJszh0lycqNSxVCpqCSq+dMYqixCj7+hVRNKBYtFqqRCQeTFnVyVFRo1XKDDqqPKtBidzbTymmRVHn6aysDk5qEURRmZVTBu4Pzqi3MkeRFkEh0tGLWgOTSKugECLtJOC/dhX7IxRUFuWoWPguZ09fI2/ZClirIP7KOlYejQV0BFy5SaQCmtK1qOPyLA1Q56VWjTJokg6nzk/NFjVxjbnFppGtqVOlJPkKNmLmNd0L6tZSoXZdHJ9taYp/RN1iWkh4yLUrQS8ON+4qZy+GoSeBm3NbUcjFBRcXF4p0Xs7dBNCHXuDM1eTxxdrSbehW0z5t3iphRGvqAITIzpJGCr/MsmXLGD58OEWKFMmgiIQQ2VLCVVatOkKMAkrMUcY1qsa4lM/rbrFhxX7G1fZEa/Ys3YuPNxqYoUtIMWdM3GnGN6nPyOOR2JZqQpd2X9BlYAGu/f4F00+nrlxBr09Az7MRqHoFBQVQode/eAgKgEoFoMGlcgualbQwflKdl8oOmuSy9g44SNNVupBEUIh0EhwcjKenJ56engAcOXKE3bt3ky9fPnr37m0od+fOHUkEhRDvRHfuL9aejUdRO1ClQ1eqOydlTQqhZ9fz1+EH3N2ykl2/Nqbxe+XIoz5F0L872HJ1EGXKmIP+Lv/s+xcdiYmB7uo2Np0JRzGryg9eWxhRVgNxh/n+l8QEL1XtnN2zi4e9uuOqBt2NfzhwMwE0LpQs7WpcNC6GGMDavCQVy9mi9g1DU7Izk2c3xgYg8hxrZv7NDVUpyrlriDHsqHquVpE2JBEUIp04ODgwatQow/aUKVPYvXs3+fPnN3pcCCHeTSxHV67DN15BU6AtPy+cSQubFM8e1HC0wR/cePg3f/39hLZt/ke3Un8xxfcoo5s14Uan9zG/vJkVe8IMU8io7fNgp1VB7HW2/DkHj4YO3N/1O4tu6AAz4nXxJCeEeh5v6k+Ddsdo6RHHKa+VHIsB8/Ld+by+BaDD2tYaNRC3dxT1a2+gzajNDOnfi3JbfuXiws9oENqZBoV1XNu1hs3ngsnbaQX/08K9jHwbcyhpaBVCCCGysqj9rFh/Ex0aCrToxEc2xk9bfNiRlkW1oA9mz18bCbSsxehVf/Jx2dzE397Hwsm/Mv+4I59/XgvzZ/uo3brx808fUcAsjFNz+9Gl42dMOFOK5jXtUZPAo3v3UyxdZ0bVT/9HobML+XXyAv7xj8W2dFdmrBhBdQsALZW+GMrn1Qthp3rMpcOHufw4Aatav7Bh+XfUdQnh5KrpTJg4kw0X4ijaeiyrZ3bCVTKUDKFSFOXlN/CFEGlmypQp/PDDD1SpUoVTp06ZOhwhRE6nD8X/7Hn8ouwoXrk8bpY6YmJ1oLHA0iKxf15ccADX/EOxzF+MIi7WyYNJAHSnGV65OuMuqqgz9Rp7+1py5fRlnpgXpkKlIthrXljr8xJC8Dt3Eb9QFXlKVKS8m420UmUguTUshBBC5ERqO9yr1MHd8IA5llbmRkXMHQpTzuH1DqeycKFsDZc3j0NjT5EqtZGe0qYhiaAQQggh3oIGCxtb7OzUWJvLUI6sShJBIYQQQryxh0/z85PPQ0ZoXvcesMiM5Da8EEIIId7YL7/8wooVK0wdhnhHJh8scuPGDW7dukVISAjBwcGEhIQQEhJCfHy8KcMSIs2dOnWKAwcO4OLiQrdu3UwdjhBvRavVYm9vj729PQ4ODtjb21O4cGFKliyJSiW3B3OKe/fuUaxYMdzc3Lhy5QoaaRXMskySCD569IgFCxawcuVK/v3334yuXgghRBorUaIEH3/8Mb169SJ//vymDkeks379+jFz5kwAlixZQo8ePUwckXhbGZoIKorCkiVL+P777wkODjY8bmZmZriyTPpnYWHxH0cSIuu5efMmvr6+2NnZUadOHVOHI8RbiYuLIzQ01HAHJzg4mLi45DVhbWxsmDBhAn369JFWomwqqTUwNjZxJsHixYtLq2AWlmGJYFxcHJ988gleXl4A2Nvb88UXX9ClSxeqVq0qtxREtifzCIrsSFEULly4wJo1a5g/fz6PHz8GoFGjRmzcuBErKysTRyjSWsrWwCTSKph1Zchgkbi4OLp06WJIArt27crVq1eZMmUK1apVkyRQCCGyKJVKxXvvvcf48eO5du0aX375JQC7d++mZcuWREVFmThCkZbu3bvHggULnnt87NixJCQkmCAi8a4yJBEcO3YsGzduBGDcuHH89ddfODs7Z0TVQgghMoiDgwPz5s1j1qxZAOzdu5dBgwaZOCqRliZMmGC4JZzSjRs3ZARxFpXuieDFixeZMGECAD/88AM//fRTelcphBDChPr06cO4ceMAmDVrFkeOHDFxRCItvKw1MIm0CmZN6Z4IjhgxAp1Oh4eHB2PGjEnv6oQQQmQCgwYNokqVKiiKwpAhQ0wdjkgDL2sNTCKtgllTuq4s8vDhQ7Zu3QokXilYWlqmZ3VCCCEyCa1Wy6RJk/D09MTHx4fr169TokQJU4cl3kHFihX5888/AfDz82Pq1KkATJs2zTBi2MHhNRcmFplGuiaCmzZtQq/Xkzt3blq3bp2eVYlsQKfTERMTY+ow0k3SlXRCQgIREREmjib9WVhYYGZmZuowhAnVr1+fAgUKcO/ePTZs2MDgwYNNHZJ4Bz179jT8ffToUUMi2LdvX/muZ2HpmggeP34cAE9PT8zNzdOzKpGFJCQksHv3btauXcuZM2cM85GFh4ebOrQMce7cOWxtbU0dRoawsbExzA1aoUIFOnbsSPPmzeVHI4dQq9U0bdqUBQsWGH4PhBCZS7omgiEhIQAyy7wwOHjwIL169eLq1aumDkVkgIiICCIiIrh79y6XLl3ir7/+wt3dndmzZ9OkSRNThycyQL58+YDk3wMhROaSIYmgvb19elYjsojx48czbNgww3atWrXw9PTExcUFOzs77O3tZfLZbCQ6OpqQkBBCQ0N59OgR+/btY9++ffj7+9O0aVN+/PFHJk2aJPOIZnNJ5/+Uq0kJITKPdE0Ek7740nlU/Prrr4YksEqVKkyfPp1y5cqZOCqRkfr378/NmzcZMGAAPj4+TJ48GY1GY5heSmRPSed/aREUInOSFkGR7s6ePcvQoUMBaNGiBYsXL5Y+YjlUsWLF2Lx5M/3792flypVMnDiRJk2aULduXVOHJtJJdmkRVBSFmzdv8uTJE8May9l5cNur3Lhxw/D30qVL0WrTNZ3I1MzMzLC3t8fBwQEHBweKFy+epX7j0vV/LmlpIWtr6/SsRmRy/fv3R6/XU7JkSRYuXJilviAi7anVav744w+uXbvGyZMn6du3L5cuXZJbxNmUjY0NAJGRkSaO5O08ePCAGTNmsGzZMu7cuWPqcDKlpGUFRSIHBwc6derEgAEDKFWqlKnDeaUMSeHlBJ9zXbp0icOHDwOJt4ctLCxMHJHIDDQaDVOmTKFOnTr4+vpy6NAhateubeqwsreoIPzuh5KgsSd/EWcyqjduVj7/b926lY4dOz43ibKZmRY7+9zkymWRpV/fu4iNjSPowWMA3Arly7HvAyS+F2Gh4URHJ35OgoODmTt3LnPnzmXSpEmZfpnFnNuWKzLEhg0bAHB3d6dOnTomjkZkJhUqVKBixYqcO3eO9evXSyKYzmL3D6NWy4UEufVh19VZNJBrsv+0detW2rVrh06nw8HBjs96dqBN+4YUKpyfXLlkcYRTJy7QolHivIJHTq/HzEzSibi4eIIePGbn9gPMn7Oa2/73GTx4MIqiZOo5NNN9iTmRs125cgWA2rVr5+grRvFiSclf0udEiMxg586dhiSwVJli+Jxcy+BhvSlZqqgkgeKlzM3NcCuUjy+/6oLP8bU0alILgCFDhhgm386MJBEU7+zLL79k//79L3wuacCQo6NjRoYksoikz4WMKBWZhV6v55tvvjEkgV5bZuHkJDNfiDdjYWHOgmWTDMngsGHDePz4sYmjejFJBMU7O3DgAPXr16d+/focPHjQ6LmkkYJ2dnamCE1kckmfi6w+olRkHzt27OD69esAzF00TpLAFzh31pdZf65Eo9Gg0WhYuWwTkRFRpg4r0zE3N2PW/DHktrMhJiaG+fPnmzqkF5JEULwzRVEA2L9/P3Xr1qVBgwYcOnQISG7pedNEMDzgPMdP+PIg7nVKx/HA9yQX7778RBT3wJeTF+/yn6eqmIdcO3+Ba0GR6F9Roz7Un7MnLnE/E5779CF+nDl+mlshz7+K2MB/OXE+wARRvVh2mVokvcScX8KQr/vQp98YNgckpHo2jiurR/B1n74MmL6fJ6/60IrXsnbtWgBq1alKyVJFTRxN5hIZGc1nn/xIk/qfsc/7MA72jjjny8uQ73+lUtkWHNgnywimZmNrTZdPWgKwZs0aE0fzYtK7Mx1FRUVx+fJlwsLCiIqKIiEhwdBPTqVSvdG/N90nvcun3Cc+Pt7ode/du5e9e/fi6elJaGgowJuNFk7wY2mfxgw/ak27RadZ1PYV81DqH7JpcGtW1djDP0PLvuBDrefhpsG0XlWDPf8MpewLPvVxlxfyecef2PVEiybejNK957F2TCOcX3KpFH/2Dz7tdJZPD3rzYynN67+2DBB/ahqfdFqOvuVs9i3uTH7Da0jg/tqBtFpWjQenx5oyRIOkz0XqUZkikWXZGrj7D+Lr7U/w8nOm3JbeFHv2cYs5/Stf9BrHMaoxYs9k8shlfZr4999/AahT/30TR5K5KIpC789/4p89Rxg6si9ffF6R+VP96PZzG+6cucSP302ke+eBbNw+lypVZbGAlOrUe595s1bh6+uLoiiZrr+8JIJpKDAwkIMHD3L48GGOHDnC+fPn0el0pg7LZLy9vQ1/+/v7v/Z+usur8bpYgTbNH7B31WYetO6Ba7r+yMVydMF0DhQais+Jb8h74FsafPEHXr096Vsoq/66qniy/WdGbKrL/HaumbbpP7OdEDMdrQe95k3nwIefsmbnT/SdXY+/+5VEG3GYX74cz7HIPDScvoQRH8hcrWkl6S5GHkdZCCGlY0fO4r37MKPGfEOf/t1Al7hevEqlokq18nhtmUm96l2ZPH4eqzf8YeJoMxfHPImfpfj4eKKjozPdUqqSCKaBc+fOMXHiRLy8vEhISH37JnECXWtrazQaDYqiGG6lJv39pv+yovDw8Ne8Eorl1Or13KrahyVf3aBd57WsD+jG10VStrpFcuuftaz3uUmkTXHqtqlF6ncl8tY/rF3vw81IG4rXbUOt/3zbVFhYmoHanFwWaixzWaDWWmL1jtNrxN49yqbNB7gcGIEqd2GqtuhI0zK5Cb24G+8AZ+o2q5zc4qjz59Dmc5h90JIPCmrQPTjJhrU7ufBQIe97zfm4XRXyakAfco5tWx5TpktlIrYsY1tINfr1rMlzP1lmH/Jp9wjWjPyZbbVn0Srvy1LBOB6c2sL63RcIjMtNsZqt6NDQA1teXNdnHwSz914xWpUKYuPa/dyKcaRym09pXSqco2vWsudqGLmK1aNz5/q4Z65zXZalLtCZGXMPcqbNXLxH9OHP+qspN/dLppyLp2CXP1nQt7ScyNNQUiKY287WxJFkLiuXbcbWxpKnJ8/Ts8clUCK5eSWc87ePYwaozMvy6eft+G3ifAL871KgoKupQ04z77pqip2djeHv4OBgSQSzk7179zJp0iR2795teMzW1pYPPviAGjVqULNmTd5///10WWLvXZPJtNy/Vq1a3Lt377kYq1Wrxu3btwkKCqJ8+fKv1/oT6cOqTY+oMbgFhd6/TYv8i1m3+jK9h5ZL/LDqg9k/qjXdFzyhtGcdimvO8N28P9FqdFjXANATvH8Urbsv4ElpT+oU13Dmu3n8qdWgSyzwAuZU++xLqjScwrc/BWK+fQMOX62gvcvbt6MlXFvAJ81H4Vu4HrVL2RJ+aB0zZ25h1J5NfP5kD2N7niVg/x5+eHZbOerANPp8/4BBx1tR7vQ0unSdRmCZBnzgEonPT3NZvHsaW+Z0pEDgbqYOPUJV36esWRZIvrbj6aXn+d6+KnPKfTOR3MfaM+KXVtSa3gzH515OBCd+60zXyVdxrVWb0rkC2bpgCjNbz2LjH23J/1xdY2kSsYhBy+JZqoonT5XyWF7/i9mLtrK2wlNuqiryfr4wTi6fyZITi7k8u+Vbv38iJTV5mk1m4ffHaTzpACNb18Yu4DqqUv1YOKMTbpm1uTeLSurOYmcviWBKDwIfUbpcSYYtm5z4gO4qU0f70n10W5KuM/d6HwHg0y4/cPXKLRNFmrYqVy3Hdu9F73SMlBcVISEhFChQ4F3DSlOSCL6FyMhIvvrqK1asWGF4rEKFCgwePJhOnTplyJqLKfvomVrq1/vhhx8yatQoGjduTLFixd7oWCG7/2J7ZB3GNndBbZ6Hti2LMmf9ak4NHMuHFqC7OIsR857SbN5eZrd2QQ2EHBhCk/YLEg+gu8isEfN42mwee2e3xiWxAEOatGfBf9Qbr3WjpHsk8+bOoUzfDfw9tAZv/zOQwM3df3P9veFsW9OHohogcjt9KvXk6NkYvm7fnY7FV7Jlgy8DfiqPlkgOb95DrOc4WjpdY1633wn9ZB37R72PDaC7tZAuDUczZV8zphYAYg+x4dJAVp8fTM28/9E/MdcH/DDpc3Z2HMYvrWowraHxK9JdnsOQKTeoPtWbJZ+4owVCjoykZbuhjGtan5nFUtcFftMXkRCooenu7fxQ3hJC1tL9vT5ccP+LA380xp4E/KY348PFhwBJBNOODbV+XsyIQ3UYdugakWYVGLRoIg2fz+7FO0q6q6PRZK6+v5lBdPR/r60cHZXY17dpi3q07dAoI0JKVxPHzoE0uAuXcrLtF901NDVJBN+Qr68vHTp04PLlywDUqVOHIUOG0LRpUxNHZjpJrYM1a9Zk1KhReHp6vl2Cqg9iy+p/iCrdCzvfQxwCEgqVxdV/I6sODuXDhrm4f/gI1/I2ZEwTF0MjmH2tz2hfbgnbAP39wxy5lpeGY5rgklyAz9qXY8m2F1cbde4PunScRmTrCcyosZhhm+axo1dFHOd1YFXh6SzsXeoNvygaPPpt5Hw/iHl4jZMXffn3+FqOBSdQKkEBbXk+6VKFOSvWc35QearE+rDZW0OzPxuSO3A5ey9aYFfJh/m/H352vGisHR5yaO8F6A6onWk5YOB/J4EAqLGpOYhJ3XfTZcg42lSbQOHkN5sHBw7g69iUER3cDa/P/sNefFJtHn96nyW2WOq6Ek9g2pINaV7m2aS6uVxxsTen1Ac1nt2e1uCS3xkzfeY72WV50U8ICo5FARTdTfbuuEjUhx9k2FJxImerWbsKk8bNxe/WHYoUdQNUaFOtJrJl4x7s7G359vvPssXE20cPnyU8PGuukf0mJBF8AytWrOCrr74iMjISc3Nzpk6dytdff23qsEyudu3afP7553z00Ufv1EKZcHs9a32i0dosZ0DP5YbHY80esW3VbkY3bEl4WCQqeyccU+ZAGiecHBKzPn14GJEqe5yMC+Dk5PDiARP6B6wbN4UrNady+Nf25FXqor7bnKGf9aFqyFVyDXF5qy9J5PlFfD9gKgfCXClTriQeJQvh7pD03mgo3OkT6k6dyoZTQ/F4spl/bFqzpLY1+huhhCfEEnX5JCfupHgvS3hSKf+z16Rxo2gxs9eMxI66QyfS1bs7g39twUJnwwsnNCQcHPIav5dqR/I6agkPCUlM+15Ql0qjTfGeqFCR2A/WqMxrRidek/4R237szUxfPcXadiPfvr849OuXjKjvw5R6MkenSH8fd2/NlEkL+PG7iSxfPYVcuTz4ZqSH4fldO3zYsukfevXtmi2SwJxEEsHXNHv2bPr27QtAkSJFWLt2LVWrVjVxVJlDylvkb0/H1TVrOeX6P9YfnUBNw0ANPQFzWvPh+FVsftCaVm6uaO9e51oEVEjqehl7hSt+OngftPndcNXe5bpxAa5c8UPHC6aD0N3hVkAMBTqVe9aHzp2P/5jHtdYdmf60PjM932IyWX0gq38ewf4if3JwQbvEASGx3ny7fCkPnxVRO7fkkyZjGea1l8ph+3Fp50UVc9DmL0QBKxvyDljCtAZJJ9M4Hlw6zYPcZSFyP6g0aDVvkGrZ12fEuA7U/2Iwvze2fDawRks+N1e0d69yLRzeS3qZumv43ojH1bMgWq6/eV0iHei5v24AfZfcBI+vmb3od9xWBFH9W2/+7PUj9Q/PocVLBwMJkTZcXJ2Y+udwvukzmoZ1uvO/3p0pX8GDiIgoNqzbhdeaHbxXsRSDhvYydajiDcnZ4zWsW7eOfv36AdCoUSPOnDkjSWBaizvL6vW+FGrZnmpGo3XVuLVqS/UEH9Z6BWDXsAOe5rv47edN+EUBuiAOTh7D6oBns+naNaSDpzm7fvuZTYkFCDo4mTGrA148SbR5ccqXscZ33Qw2X48E4gi8dJJ/H4F57EHmzTzMyxc/0xEedBt/f/8U/wIIDA4mLDwelZKATg/oHnJs9ix2BCUQH580nZAtDbq3Qfv3cMYfLE7HLs9uP+duSAfPBDZNmsg/d2OBBJ6emknv1l8w7+LbzhisxqHRSMa2iWTTxnMkRWDfqDONLXczeaQX1yP0EBfEoakjWOJXhg4dKmH+lrWJtJXgt5SvB6zhrrokfWaOxdNeS8k+Mxjj6UDCjcX0HbCO+zKZtMgAnbo2Z/maqeSysmToD7/SolFPurT7hq2b/6HHF+1Yv3U21jbSWSGrkUTwFc6cOUOPHj3Q6/XUrl2bTZs2pcso4OzK3DwxnXjVhMFRh1ey0b8kbdpXfC4BUbs2p00tLSe8VqN2bsekWX1w2tWLasXcKVKkAt13FqBm0izRamfaTZpFH6dd9KpWDPciRajQfScFar5oomkAB9r8PJmuubby5QdFKVTYnQqdFhLfZTH/LOtMzLye9F1y7cVB6y7yR+tKVKxYMcW/KrSbGUWbz5tjsb03FYsWxd29Gn1PVqBZNS37R/Zkwe3EX22Lap/QweU2jyp0oH2hZ/dn1U60njCbL3Ot5eOKRXAv4k6pZrOJ6TqV4U3fYRSj2olmo8bQPnl2adR5WzNx3vcU9vmG993dcCtUhjZzwmnx+zy+LZ8xNwtiYhI7n7/RhOM5ie4Ks3r/wJYgDaW/nsUvDZ7dBtZ48NXMMTRy1HNn9bf0XeLH6/bK1AdtYeBHtahV62X/PmLgJln7WbxYw8a12HNgOdNnjTQ8dubSVib8NkiSwCxKpaTjxHSurq4EBQWxZs0aOnXqlF7VpJvg4GAqVapEQEAAHh4eHD9+XJLAN1S9enWOHTvGyJEjGThwYNodOPYxN3z9CLUoQKlSrmgjQ4kxy42dZVKHt1ge3/DFL9SCAqVK4aqNJDTGjNx2lrxwiIU+ksCrlwmIsKSAR2nc7DSAnpjQUKLJhYPdm/d5iX18i/5sFZQAACAASURBVCt+T9C4lqK0my0E3+B8gJaiFdyxVwNR+/m+Ri+CR514weopOoL9/+V6UAIORctSIm86JkoJody5fJ3A+Ny4l/bAOQO79yxatIiBAwfi4eHB1atXM67iLCGWcxMaUHf4EWLLDGT3kd+oY3QtkMDNOS354OsdBNt78vuhv/mm9MvbcWO396Roy4Wv0XpoTqPZd9j1lfOrCr4Wb29vGjZsiFarfW4VosxIrVajKArrt86mZu0qpg4n0zp14gItGvUE4M6jI0YjY7OLzm37Ex4e+c7Tx4SEhFHK3ROA8+fPU6FChbQIL81kv/+5NDR27FgCAgKwsbFh48aNkgS+haT3LGlurjRj4UTxSk7J27YOGKdKFjgVr0RyCVsc/iuXUluTr3RV8hk/iKWdA2+bF1k4FeU9pxRrlToUp7IDoA/myuFTXNo9lU3a9ixr+qLPlRYH9/d43/0tK38TGjvcylXFLQOqSi3pcyHfrRexoOLQQ4QOfdnzGop9tZ3HX73m0Zot4F7Cf02iJITIiSQRfImAgABmzpwJwMiRIylTpoyJI8qaHBwSRyE8ffrUxJFkIvpAvKf+yPyHZen3x2Cq5+ABdkmfi6TPiRDC2L27Qej1ma8TaFDQE8Pfd28HPjeVTGZib2+LbW6bVxfMoTLv/5yJjRgxgtjYWNzc3Ojfv7+pw8mySpYsCYCPj0+mXGzbJLRl6Lf+HP1MHUcmcOjQISD5cyKEMNawTjeePk3jOypprHqV9qYO4T+NHjeA3l9/bOowMi0ZLPICFy5cYOXKlQCMHj0aS8sc3GTzjtq1aweAv78/Pj4+Jo5GZCYXL17k7NmzALRvn7l/SIQQIruSFsEXmDt3Lnq9njJlytCjRw9Th5OllS9fnurVq3P06FEGDRrEwYMHDSOJRc6l1+sNg4dKly5N7dq1TRyREJnb+FFf07p5XVOHkaXUbtyTp8Fhpg4j05NE8AX+/vtvAHr06PHcignizc2YMYNq1apx5coVevbsycKFCzEze92VMUR2o9fr+eabbzh58iQAM2fOlC4DQryCW0EXChV0NXUYWYpbQVdJBF+DZDmpXLp0iYCAAACaN29u4miyh8qVKzNu3DgAtmzZQtOmTfH19TVxVMIUbt26RZs2bQyr0QwaNIj69eubOCohhMi5pEUwlaTWwMKFC1O2bFkTR5N9DBkyBJ1Ox4gRIzh16hQ1atSgTp06eHp64uzsjJ2dHfb29lhZWWXr1qF9+/ZRr169bP0aARRFITo6mpCQEEJDQ3n8+DF79+5l7969JE1d+v333zNx4kQTRyqEEDmbJIKp7N69G5DWwPQwfPhwateuTa9evbh27RoHDx7k4MGDpg5LZLBChQoxe/ZsmjVrZupQhBAix5NEMJWk28IVK1Y0cSTZU926dfH19WXXrl2sXbuW06dPExISQkhICBEREaYOT6Qxa2tr7O3tsbe3p0KFCnTs2JEWLVpIH1EhhMgkJBFM5cmTxEkynZycXlFSvC2NRkOzZs2eaxGKj48nOjraRFGlr7CwMMqXL09ISOIarosXLzZMrZNdWVpayghxIYTI5CQRTEGn0xmWvJJEMOOZmZll25ai6dOnG5JAgN9++40ePXpk+76CQgghMjcZNZzC06dPDR3Z8+TJY+JoRHYRGhrK77//bvTYv//+y7p160wUkRBCCJFIWgRTSNlHzcZG1iUUaWP69OkEBwc/9/gvv/xChw4dZK5KIcQrjRw7h9NnL5s6jCzl/MVrpg4hS5BEMIW8efMa/g4KCqJQoUImjEZkB6GhoUybNu2FzyW1Cnbu3DmDoxJCZDV+AfeZNmuVqcMQ2ZAkginY2tpiY2NDREQEDx48MHU4Iht4WWtgkjFjxtCxY0dpFRRCvFDtutUID480dRjPiYqKwe/WHQDKlC2eqfs7uxXKZ+oQMjVJBFOxtLQkIiKC2NhYU4cisrj/ag1MIq2CQoj/MnfxeFOH8EKnTlygRaOeiX9f3IKZmaQTWZU0QwiRTmxtbblz5w4RERFEREQYltmrWLGi4bGIiAjatm1r4kiFEELkVJLCC5FO1Go11tbWhm0LCwsgcR7FlI8LIYQQpiKJoBBCCJGJHfY5TYD/PVOHYSTA/x7m5okpxOqVW9FoNCaO6OXyODnQuGltU4eRaUkiKIQQQmRijo52fNzhW2Jj40wdygv9OGCCqUN4KQsLc9ZvnWXqMDI1SQRTycwjn4QQQuQ8pcsWZ8zEgQz6bqLhsWKFc5swosxLUeDW7TDD9oy5o6n6fgUTRpT5SSL4EkkrjAghhBCm9unn7Th88BSbN3pjaalh86IWlC0pK2ClNnzSUcb9eQqAEaP707JNAxNHlPlJIigyNb1ez4kTJ7h16xY2Nja0atUKAG9vb44fP24oZ2FhwQ8//GC0765duzh16pRh28rKiu+++86ozPbt2zl79qxh28bGhm+//daozLZt2zh//rxh287Ojn79+hmV2bx5M5cuXTJsOzo60qdPH6MyFy5cACAwMJBx48bh5ORE7969jcp4eXlx9epVw7aLiws9e/Y0KrNmzRpu3Lhh2M6XLx9ffPGFUZlVq1Zx69Ytw3bBggXp0aOHUZkVK1YQEBBg2C5cuDDdunUzKrN06VLu3r1r2C5atChdu3Y1KrN48WLu379v2Pbw8KBjx44IIdLWb9N/4tzZywT436PTVzs4ub0zVrmy5/rsb2Phqn8NSWCPL9rz9bfdTRxR1iCJoMiUFEVh7ty5TJo0CX9/fwAqVS5PjfpFAIUNm5cxe8ZyQ3nb3DZ81ruR0THWbVjCwnmrDduOjvZ072l8dbjGazHLFnsZtl1c8/LJF/WNyvy1ZgGrVmw2bBd0y0eXHnWMyqxYNR+vNX8btosWK0THbjWNyty5l5i83b9/n+HDh+NRsijtP65uVGbx0tls37bXsF2ufEnadH7fqMzCxTPZs8vHsF2xclladaxqVGbegj/Zv/eoYfv9DyrSvF0lozKz507nyKHkRLlGrao0aW18C2XW7GmcOH7OsF3vo+o0bFHWqMyfM6dy9nRyEvyRZy0at3gfCzMHLLRy+0qItGKb24Z5S8bTouH/8L0eTL9hB1g01dPUYWUKew7epveQfQB4NqrJ+Mk/vGIPkUQSQZEpxcTEsHjJIkMS6Ohkg6VNNDcfbgTAyvEJ71VJXgIwl7U5Nx9uMjqGbd4QozLWthbPlbFzDjMqY+do9VwZe5cIozKOeW2eK+OQL8qojLNr7ufKFCltxtOQ5DL5Cj5/nLxu8UbHcXN/Ph5nN71RmcLFLZ8rk88dozIFi5k9V6ZAUQ3vRRcy2k5dpmAxM2J1KWJ257kyhYpboCexjF5RKFAULt9fCoCtZWHcHD1Zs3IH3bp1w9LSEiHE23uvYmlG/vINI4ZOZfHay3xUsyDd2pcydVgmdfHyYzr02k5CgkL590oyd/H4TD2KObNRKenYGc7V1ZWgoCDWrFlDp06d0quaNOXs7MyjR49Yu3at3N4yoThdGCeuzmX+n1to0aEShYo4mTok8Zb+nLCHlQsP0bRpU/7++28ZkJXDeHt707BhQ7RaLfHx8aYO55XUajWKorB+62xq1q5i6nBeqsfHP7Br+0FsrMw4vbMzHkUdTB2SSdx/EMGHLddxJzCC/AWc2fHPElxc0+b3onPb/oSHR7Lde9E7HSckJIxS7oktt+fPn6dChcw1eEVaBFORHynTUxSFq4GrMLOMpu+PDU0djnhHefPZALBjxw527dpFkyZNTByREFnf9FkjaVDrE+7dDaLTVzs5tqUjlpav+ZOuj+afecdY4wdajQqNGnTxCcQrtrT6rhqtrO8zfdJVfBNUaDVq1IqeeJ0efd7CDB1YnCIa0F29zNCFgYSp1ZipFeL11rT4thot82Xcb2hEZBzNP93KncAIbHNbs3Ld9DRLAnMSWWLuJWTUsOmERd8iKi7I1GGINNLls+pU+bAIAAsXLjRxNEJkD/b2uZm7aBwajYbzvo8ZONrn1TslUZtT4oMiNM4bwqrlF5mx5F9OqPPTvHEhKuZRgaUdNT0LUfDeDeYsvcCMv+6jq+hOO08X8j2746p2dqZJHUcijtzkrMqBug0KUdEx45LAhAQ9nb7ayTnfx2i1GhYtm0TpMsUyrP7sRBJBkan4+Piwcctq7t1+aupQRBrybJ44wOTixYsmjkSI7KPq+xUYMuIrAGYvv4TXthuv2COJhkKV3Gnd0BW3Z4mdytmZlg1cKWQOmNtQtX5R2lXJTVJPO+cyRWhSyZakXr5qhzxUsQnhlseHrPylIh83dMXNIg1f3Ct8PewAO/YlznowedpP1K73/iv2EC8jiaDIVH7++Wc+7zqcbV5nX11YZBkt2lfi1M0ZXLlyxdShCJGt9Pv2U+o3SJx9oOeP/+B3O/S199UWsqWgBkDPvbth6IyejedOYAwKgC4Cv7sJxjtH3mPstDA+/qk07hk8LuPXWaeZuyJxpoIBP3xB124tMzaAbEYSQZGphISEAGBjK6NLsxMzcy1qdeZcHkuIrEylUvHn3J9xcXUiNDyOzn12Eh+f8OodAaxyU+jZ7dynd8MJ1ic/FXH8FKMP68mtAtBx524UyUeN59iMY5xvVJM+RTM2jVi37TqDxx8BoH2nJgwZ/lWG1p8dSSIoMpW4uMRkwdxCxjFlN3pe88dJCPFGnJwcmL1gLGq1mpPnHxoSpVfS2lLk2eAO/f0w/JKaBKMfMOnXR7QeW4HyWgCFu7eTWwxjL53lp1MFmfi/PBk64vTIqUC6f7sHgBq1KvP7jBEZWHv2JYlgKjJqWLxQRDBXT9/h5kPdq8sC8Q+DuHQ5lJh0DksIISAxMRo46H8A/D7/HFv3+L16J40N7vm1qICEh2EExAMkcG7eEQ7VrMF3H9rjZg2g8PBeOJEAuif8OfY2HwyqTJUM7BN4/VYIrT7bRmxsAiU83Fm8YjLm5rKqSlqQRPAlZNSwaaxdu5YNu8bj2bycqUNJQc/dNRvp1XkhX4+7QthrlH+6Yzv9hpzh7uvlja+QwLX1e5i39SFpcjgTCLofyszJOxg2bFiWmEtOiKxo4KD/GeY+/Oy7Pdy5H/6KPdQULmiNBlBiI/AL1KO7dp5B+10Z18cZC21uiuRPTBN0gWEE6PRcW36Y9SU/4KdqGZeEPX4aTbNPt/AkJAanvI6sXDcNO3vbDKs/u5NEUGQqpUuXpkx5dxzyWJs6lGS6h+zY+gCPZiXJ5XOOfQ/1r94nTem563OarUdDyeia08rjR+EsnrWX8ePHo9Nl1XRWiMxNrVYza/4YnJwceBoSS9e+u9Dp/uusocbdzSYxEdBH4OcfzNyxNyjzfVVq5AK0trjnUyW2GN4P41bAZYast2H4ADcyKg2LidHR+vNt3PAPJVcuC5avmUqhwvkzqPacQTpiCfEKcefPs8e/IJ3/qM7tf1eyc1sILb5wJOVAuWj/G+z82487keYUqlGWyqkalOPuB/DPzlv4BcWBrT3lGlWglkcu1MTjt/cCtxyLUSz0OnuPPyUqlz3vNXmP2iUsQR+Br/d1LgYmEGsewJ6tGso3KkohC9A9vIP35mtce6zgWLYUzZoXxFED+tD7HNgVSbE2BYjadYYDoQX5uJt7hp24hRCm4+LqxIx5o+nS7hsOnwpk5G/HGD+kxktKq7AvaEseFQTqozk57wDni1RjZy3zZ8+b4V7ACjXhJEQ8YubQpxTq04qmGbSIiaIo9BiwhyOnH6BSqZi9YCyVKpfJmMpzEEkEhfhPcZze8C9P369HvYIFCWyYm01bznPr0/qU0ALoCT28h/5fnyTEozhV3dX4jjjBSq2KBCt3ABJunmDwx3u44VaUKsUtiDx+gVULfenr1YOuRWI5s3Q78+/Yoo63pvyHTmju+rJ+3gkaT/mMQR+Fc3bDCQ7d1BGl9mXdshhy1S5K3is+fN/7EI89SlDBOZbT446zcX9LZkyugHPQNZaODaDs1Sh2rA3HuVkTOuiR9n8hcoh6H31I/wE9+HPaUibMOE296gVpVLfQC8uaudlSQAOBOj2X/GxYM9MdR8OzKtwL2SQmgrpgLtt7sryp1XOnEp3vFYYtvUNg4TLM71sA5fy//LTiHqElyzO7Zz7iz15ixMr7xJQtTjPzUK6FxROaYEerbh5UsX95v/zB446w9tnciL+M/44mzeu+83sjnieJoMhU9uzZw+WA4+QvouDmnsfU4UDoNbZ7x1F1aCnyqLXYNS9NwWUX2XG+NiWqaEEXxJqJJwj1bM/iX8uQRw2E3uL3LsvxAkDPnf1X8C/7EbPmV0+cvDXqCr985MW5izq6FgFQCIt3Y8z6tjRwVoM+ihNjFvLDJB8a1m3GJ3O+IN+AKfxu1ZR540tgnvCQpWMPEdGhG0t+cMMK0Pmf4MdO3iw5VIpB+YA4f7yv1GbK/npUymP6DFClUmFmrkGtklOOEBlh8PDeHDt6lpPHL9D9m92c39MVV+fnu9xo8ufGzRxO6a1oM6QGbfOmTMzUuLrZYqMKJNS+ML8M96DAC04n2jIl+aakL2V8wphNAazfK03fQ77UPBvJTMC6Uhm+OnKZ99cG0vmvGgx0ULi3Yy9NOgQyaV1dmjk8nwzOWX6RyXPOANDzq8582adLGr0zIjXT/0JkMjJq2LQGDhzIt19O59jB150hPz3pebLrPEejnSma+yFnjvtzIcKe4nmD8d7gRzSgD/Ln7E1rarT1wJBv2bnTpoXrs6ssNe7/+5SNi6rjHPyISwf/ZdO8M1wIVdDrk+4fq3DxrExt52cHUFtRuWt5igbe4viV56dc0Qfd4rivFpsoP9bN8WHpHB9W7ozA0i6CM4cCnx3Dhnq9ameKJBCgTIUCHL06kZiYGHLlymXqcITI9rRaLXMWjsPePjcPn0TzSf/dKc45KZjnxt1FTd76HzK5jc1zSYG5W24KasypP6AWXxR62flERW4bM1Qptq2ttEbbluYarD1c+cBBBagp0KgyXSyv8NvGiOf6Pu/Y68/Xww4A0KR5XX4Z/90bv37x+uTy/CVk1LAgIYQ9m/2I1ViwZbgXW5Iej9MQvOcchweVoF5EDNEqSxwcjK+i7R1zGU6C0f+e5NfhPpwKt6VYqbwULu5AfruUFamwczS+3aJ2tCK3Kpaw0Oc/h/qIGKL0OmKu3eHSvRT1Fi1OadekZNIOt4ye7l8IkakUKOjC9Nmj6NH1e/YevsvY6ScZ+V2qpdjMXfhmWiu+KFqQIi84ZWjLlGPe8uIUq+nAm5xRXvkLqrHCxUEh5GkMemwN57+zlx7R6aud6PUKlSqXYdb8MajVmeOCNruSRFCIl9DdvMDOc7a0W/w1372f/FXR3z1GvyZ72b4znI8a2+OkDcP/ZhyUSWrp0uF3/SkJuIE+jO2Td3OyUCuW/l4+sdUw9joT1p0meTVlhcAbj4jGxTCgQ3fjMfcUGyrlU0OqiZi1LvY4W5rj2KsTQ+qYGep8fOUej21dIPImqNRo5NstRI7XuGltvuzThfmzVzP69xPU/bAAdasXSFFCg3sVt5cfQGvLh7VfPdRMY6ZBoyjPWvf03LodgU7BqLVPF5tgmAJL/zCA3VfsaTLA0ZCI3LkfToseW4mIiqdQ4fwsWzMVKytZZSq9SZotxAvpuLLhIjcLlqZhReOMSp2/DJ7VFE5vvsh96xI0qqvh8Kw97A2IAxJ4cvQAczaGJJ4AlTgiIhJQoZCgB3QRnF96FJ9HenTxSadIhVDvA8zc8YQYICH4NitmXOBpubLUe7Z8k1qjIubhE/zvhBNlXYJGdRX+mbGfY/d1gJ7Qc0f5+dN1rPOVlmwhhLERo/tTsVJp9HqFj/vt4tGT6DSvw/LDErSNvs3MbX54rbrI6ShLos/6MmF7sOFSNu6mH1OWXMFr8wWGjL6F24jGjKyS2M4YFh5H80+3cj8oEjs7W1aum0bevI4vr1CkGWkzEJnKpk2buHJ3A2Y2T0wbSHQA27YH496uPKXMUz2ntqFuU3dmjLrAjpsf8L8Rbbg5YDOjGl9ggo2a2AR76n7gzNVAQONIg66l2TxiA+2r7iCXoseuRlXqVLzN1oleeNVojQo1brULEDh+Do1/0qCNjUVVuDwD//zw2a0aDSVrFsNu9C4+bXSVH32603Z4W259t4lBHx3H0kZNdJQZpbu3oncDC8gM3StTeXA/BK9l/+Bi94AJEyZgZiYrAgiRUczNzZi7eDyedbpxPyiST7/dzfblrdK0T7w6XwkWrHLnUWA0CfaFcW7lQYdoDXkcLNA8u1FsVaY4gz8uSEgItGldwZCA6HR6OvTazsUrTzAz07J45WRKeLinWWziv0kiKDKVYsWKobMqSEhU2l+xvpFcxRhycORLnlSTp9Mn7O2UtF2CPisH0MUviHthWpxL5MVJE094nBobrRpN+46srvcRfrejULs4UzS/BYRUotVdNW751OwGzD3e57c/GvHg6hNCLewoWjw3Vurk+vK164BXuw4pYihGr+UD6Hz7Ibcf6cnt7kLhPM++zh71WHKxXjq8KW/vyaMIViw4CBxkzJgxkggKkcEKuxdgyh/D6PXZT+zcf5tfZ51h8NdV0rYStRl5CyR9t60oYBikrBATm0B8bALx5ha4Ohvv1nvwXvb43AFg2swR1KhVOW3jEv9Jbg2nIqOGxdvR4lCkAOXec8HZSo3awgI7WzND52rzPHkoWcmNEvkt0AAaeyfKlHPENsU3UGVuhVt5N8p5pEwC/4sGu0L5KF+lQHISKIQQL9GqjSefft4OgGG/HuXo6cAMqTfqwnW8EtwZUCaUhd6hRr2ex04/waI1lwEY9FMv2ndqmiExiWTy65FCVFQUT54k3pIMDMyYL4jI6VRY2ttgb529R/gqL5q2QgiR4X6Z8B2nTl7E99J1uvTZybndXXGwT98BGVYVSvJThecfX7nhKiMmHwegyyctGDioZ7rGIV5MWgRTiYuLAxKTQpHxDh8+zBavI/heuGfqUDKG2prm0wcws7dLtr4q0yXocXC0wcrKCktLGQUohKlYWlowb/F4rKxzcft+BJ8P9DZJHAeP3ePz7xPrrlPvfX6b/pNJ4hDSImgkZb8lnU73HyVFehk3bhw7duzgk541KVOhwKt3EFlCxaqFOXj+d8oW+J90vxDCxIqXKMyvU4fQr/coNu/2o3ZbL2pWy/dWx3qbKXfDI+JYsMqXeJ2eUqWLsnDZRLRaSUdMRd75FFImggkJz6/oINJfvnyJJ6PrVx6YOBKR1iy09pIECpFJdOjcFJ8DJ1nz1zYOnQzk0MmM7w7l7JKHleumY5vbJsPrFskkEXwJSQRNo1WrVixatIgTh25y5dJ9SpXLb+qQRBpxsi1v6hCEEClM+G0Q0VExREREvtX+Dx48xvfSdSwszKlVp+ob7atSqRg87CsKFHR5q7pF2pFEMBVLS0tiYmKoWbOmqUPJkVq0aEHRokWJignD2sbC1OGIdxQaEsXCP/YzdORX2Ft5mDocIUQKVlaWzFsy/q3391qzg369R5HHyZ6V66alYWQiI0kimIqFhQUxMTHSImgiGo2GjRs3kitXLiwd73A/5BAADwND8bv5GBtbCzSaxDFOxUu5oNUmj7Z9+iSCh4FhRscrUdrVUB7gyeMIHj0wLuNRxtVoLcsnj8J5FBRuVKZk2XxGtzUfPwzn8UPjMqlbLx8FhfHkUYRhW6VSUbKscT+chw/CePo4uYxarcKjjHGZoPuhBD9NvmLXaNSUKO1qVObB/RBCniYPcNJo1ZQoZVwm8F4IocHJZbRmGoqXNL4av383mLCQ5Dkczcw1FPNIVeZOMGGhyWXMzbUU9TCeGOzMcX9OHb3FplWnePokkpAHudm5swdCCCEyF0kEU0nqJxgfH2/iSHKuChWS5hkogb21B4/CzrBzvRc/D15uVG7PqZHYOyaPQPXedoqpY7Yaldl3fjQ2tslldm0+zh8TthuV8fEdi5llcv/QbV5HmD1ll1GZY9cnoEmRLG5e48P86caj7U7emmS0vWHlfhbP2mfYNjPTsO3oD+SyzEUuq8R1idct/Yfl8w8ayuSyMufgpTFGx1m1aDerlxw2bNvmzsXecz8blVkx7yheK44Zth2dbNh1YoRRmSWzDrF5zUnDtrOrHX8fMR6pt/APH/7ecNqwXcDNkU0HBhuVmTN1H7u3njdsFy7ihNc/PwKgQoVabc6axac54H0BSEzuv/yyl/QPFEKITEgSwVQkEcxcbC0LYmtZkDxWt9FqVxmN5q5YuD9OTk6G7cN5LADjRLCy+wBy585t2N7vqAaME8Eq7gPJlSuXYXu3ow4wTgSrFvkRjSa59fFvh2ggORFUqVRULTLIaJ989qFAciKYkKDQuOokBg0axKRJowBwtX8MJCeCGrX5c8dxsbsPJCeCWo3lc2WccwcAyYmgmcb6uTJ5ba8DyYmgudb2uTJOtr5AciJoYWb/XJk8NueA5ETQ0jzPc2XKelzjcWACrVq1om/fvhQsWBAhhBCZj0pR3mbw9+txdXUlKCiINWvW0KlTp1fvkAkULlyY27dvs3z5crp162bqcEQKiqIQHR2NXq8HwNra2qiVKS4uzjAPZJKMLGNjYzzyLTY21uiCon379uzevftZIjjphWVe5zivU0alUmFtbW1UJiYmxiiRTs8yQiTx9vamYcOGaLXaLHGBrVarURSF9VtnU7N2Gi/Bls0k9RHMX8CZM/9uM3U4aa5z2/6Eh0ey3XvROx0nJCSMUu6eAJw/fz7FXa/MQVoEU5EWwcxLpVJhZWX10ufNzc0xNzf/z2NkZBkLCwssLJIHvLxonqzUZV7nOG9b5nUmck6rMkIIIbIGSQRTkURQCCFEVtWhVV9u3/JDrU7/PrkxsfHYWFsQERbOhxWapXt9er2CWq1i+JgfaNH6o3SvL6eQRDAVSQSFEEJkVXduB3L77hO6tvvA1KGkudv3aPG7jwAAIABJREFUnnL4+PW3nvdQvJgkgqlIIiiEECKrUqvVdGrzPgunf2HqUNLc7btPKFVd1iROa+pXF8lZJBEUQgghRE4hiWAqSYlg6hGhQgghhBDZjSSCqUiLoBBCCCFyCkkEU5FEUAghhBA5hQwWSSUnJYK3bt3Cy8uLEydOEBwcTEhICMHBwURFRb16Z/HGYmJisLGxYf78+SxdutTU4WRruXLlwsHBAXt7exwcHKhUqRIdOnSgVKlSpg5NCNOJesTOVYfYe0dNxU5N+biMlidXzvHXnggqtqtO7QJmrz4G8fjt2sucE+a0+rYOTt7rmf6wEpO+KoFtur8AkR4kEUwlaZLg7JwIBgQE8M0337BlyxZThyJEuvH39zf8vWHDBkaMGIGnpyczZsygZMmSJoxMCBOxyks99xi+//UAc/eGY7/hY5qVKIT10TtUea0kEMCMfNxn1ZJgCvesRYP0W5xMZBBJBFPJ7i2CGzdupHv37kRGJs7D5OrqSsOGDXFxccHOzg47O7vnllMTIitJWoowJCSE0NBQHj169H/27jo6iuvv4/h7JW4b9xAguAYNUiiFIMEhOLTQByjSYoVfoUgFKLRoaZEihdIWCe4Ugmvx4MESAsTdbXefP0JCDG2SXZL7OieHzc7dme8sK5/cmbmXo0ePEhQUhK+vL7Vr1+a3335j8ODBmi5VEEqcxKAcX0xrzopvTzPqS2cOrayFvr4s6zyx+Kds2+pPuFSfGm09aGGXxL87L3EJe2rwiKMhjgweVhcHiQSJBEiL4VmmFTWc9SHiIZv2PEZdyQHJlTs8rdqcMe2s0SWDR8cuc+JZOtZNPOhUUU7EzTucfxjGjVBL+gyuheL2ZXyuZFKrqSV3/gml5pAWNDHT8BNVhoggmE9pDoI7d+6kV69eKJVKbG1tmTt3Ll26dEEmk2m6NEEoVmq1Omee58ePHzNkyBAAEQaFMkiCork3v48PoeO8bQxZaMzgcjqgimfrlF+YbT+cI+7HaPRJOH/v7Uzm9WNM2W3Hj/NcODVpI5HVa7Awe1V6ZiSe3cfUEAndWjtzZe1WtlTqxbKa9xgxLZFaHw6i4bG/6bLehf1TExkwYg8Wv9syf8hFPDe14dmsVUwwmsmWmk9ZM/sMlgM/oFJIEqZJKpqYiUsYSop4pvMprUHw2bNnfPLJJyiVSmrXrs25c+fo3r27CIFCmSCRSGjXrh2nT5+mSZMmAIwYMYJ79+5puDJB0ACJLvVGfsoiL0Ou/7aBX24rIf0Be08koLAwRd/cCJ1HNzn0QIlUCjIbZ5rVNUchSSU+Ie+hYKlUStbxIwkSiQS7Gm40sDdEkphCgiqDf31vE5wYyRl/Q1o1MSPTsCqfj68Lx25yP01JbGwKaokEiUSXGh28+HVVf/o4iGhSksSznU9pDYJffvkl8fHxWFpasn37diwsLDRdkiCUOBMTE3x8fHBxcSEtLY3PP/9c0yUJgmbILOk7dwifV0knKk4NEkPMTSSo1UrU6UoypfqYGuc/Regtzgd83tRQX44yUU7FTm34fkpz3Anlnz9Pcd2hCtWMcrWX6GCgL05J0gQRBPMpjUEwJCSELVu2ADBz5kysrKw0XJEgaI6JiQk//fQTAIcPH+bu3bsarkgQSkhyJGdP+3HgyGNC0gGzKny7pDsfWUhArxIjRtck4/oNDp6LwK5vW/o6phAUnIYyLoYH96KJUCoJexrGk6AYkpUJBN4L5lFoOsroSB4ERfIsSU1MSDh3ghNQZsQT9Aw8+rakSfRJRn+xjXlbAwl/+oiT9xMJD4gjTUdNyL2n3HsaTawyhceP4hFTOZQ8cY5gPqUxCO7YsQOVSoVCocDb21vT5QiCxrVt2xZnZ2eePHnC1q1bmTZtmqZLEoTiZ2hFq/+NoFWuu/SqfMRvX6Wjj4wqA0dypH0EQWnNOOZoiBzos+In+jxv2yOgy/Nb44kY+vxmyyWMyb552eP5rfrEf5m9hXbsP9OYgEgpjuVM0acS+0+3RG5thl7/OkTIFDiaNuB+x2Lba+E1RI9gPqUxCF67dg2AFi1a5AyPIwhlmVQq5aOPPgLAz89Pw9UIgmYZGr74XtC3sqby8xBYVKRGCiqWM0UfABnmdmaYyEDX3AJHUxFDNE38D+RTGoNgTEwMgDgkLAi5ZL8fst8fgiAIZZEIgvlkB8H09NJzpkJsbCwAZmZiYCZByJb9fhBBUBCEskycI5hPaewRzA6CCoVCw5UUFxVxgX7cDU0reE2b1BiX2jVx0C/iTaaHctsvAtMatXAyzF9OHIF+dwlNK3iFndTYhdo1HSjqcopeOqG3/YgwrUGtAjtYOmS/H7LfH4IgCGWRCIL5lMYgmJKSAmTNv1o6ZXB1ycf0XB+DqUKfPCMj6tRmwr4tjKpQtOMlqsJ38lXXjTQ9fIQpNfK9jTKusuTjnqyPMUWhn3e7OrUnsG/LKIq4nKKnCmfnV13Z2PQwR6bUKJUfFIaGWQFXzK0tlCYqlQqfnRfwuxmk6VKKXHCo+KOtOJTGz/f/pDQGwWylfdo4Wa2xHPCdRFWtCFkyao09gO+kqmhFOUIBpf39IJRNnu2bEx4aVSLbik9IJCw0ErlcRvnyzsW+vSo1s/51dnEo9m2VJSII5lOag2BZlxl6ke0+B7kersa6Tkf696iPdU5KyyT04nZ8Dl4nXG1NnY796VHf+kWIS3rEEZ9tnHqYhLFbS7o1/+8TraeHXmL3tkNcD0nHtGIzunh7UtkEUMVybe9uIqv3pV7ibtbvjcSxnhVyi8Z08XBGBiifnGP3v0lUbdeGaiYAidw98g+PbVvjWVOBNO0p53bu4sSdEBIlppRr0IleHaqjIP+6Y2n4+VCaKZJ4dMSHbacekmTsRstuzd9m6FhBELTErLlfvr5REdm6+QCff/YNDo42HD7xZ4ltVyha4mKRfLKHVxFBsHRJuryY7i168dPRQGIibrP96y54jthCkBIgicuLu9Oi108cDYwh4vZ2vu7iyYgtQSgBVcxxpndoycD5h3kYFc5Nn/F49VnDg8x3ryfxwny6N+vI5A2XeRL6AN/FQ2jZajQ7nihBHcKhhVP4dcUMunUew9LdfgSdXsTI//3JnUwAJfc3TWHYsBH8fCLp+QqPsWjEVHYFyZEq77F6QCu8v9vBjZBYIv33M39IBwYtv4eywLqvEpwaxfHpHWg5cD6HH0YRftOH8V59WPNfdlAQBEF4L4gewXxEj+D7S3n/D4a1PciLEbHkVBn8G7/0T2Xl5EXEDdjC8W8aYQxkPlpDX8/vWHDMi4VOK5m8KI4BW47zTSNjIJNHa/ri+d0CjnktwHrZdFZGe7Hy6HK62kqBWE5Mbk/P1a+shvt/DKPtwVzjNsqrMPi3XxjkdI8VkxfwoMlCfNcNwFUOxJ5lRuceTJndgVZLKwJpnN5+kwmb/PiqmTXqK9+xdd0pjj9VUtMlknP/PqNSdVMunfEjvVNT1JdP8K+0BTM/MEb58BD77tdh2t7NjKwgA5LYP9KdoeeukjqidsF1+82m1cpovFYeZXlXW6RA7InJtH/1DgqCIAilgAiC+Ygg+P6SWDWg5xBPrHNO/ZJiWUeBOmQTR2/oYeZ+ilWLzjxfloKReTinj14jxOUoN/TMcD+1iheLjTAPP83Ra49xOnsPa8+ZtLfN7kBX0HxwT2qu2/uqarBq0JMhnta8KMeSOgoJqtATnLhtQYfp3lkhEEDhwfABDVn5iy9X0yoCUmw6j2NCs+eHp2t2pK3zGk6ciGKU97+cu12DgdNd+G3VaR4qG5F64hzJzSfRwgRkJp+zw+9zSA3n3sUb3L71Lz7nY1BWVT4/3Jt73SqCzpzlnrUnM9vb5hwiUDQfTM+a63jVHgqCIAjvPxEE8xFB8P0lNa9B+34DClwsknk7jgRlGsl3LnLhSa4LBCq1wd1BSnxcAsq0ZO5cvEDexe44SBOIT5KgsLLIc9GHzMoK81eeWCHFvEZ7+g0oeLFI5rNYEjDH2kKWp72FtQXyhFhilQAynCtURCd7sW5tvDxt+fv4GWIrXeCaXRPGtivPv99s4ExwdxLPRNB0+IeYAST58fuX41h4Ih676jWpUrkKLq7mLwJpnnWrSIhPQqKwwiLvDmL16h0UBEEQSgERBPMRQbD0kTu44GhojPW4dSxunT2CXzqhNy8TalobhzOOGBpbM27dYl4sDuXm5VBMa5fjlJ2cp/fvkUhtskdiTLt7l4BMaPQu9dg7Yyd/iv+9BKhj/vzeTO7dfkCGXRuc5HAfCTK5LFd408W9oyeKYUfZXvkuygYzcFO40rTKdE4fOEh8kAd9P1IAKkI2fcv04+X55eRqethIgTR8x/7JH+HZ68q9bjkOznbIn97nXiLUfrGD3H3XHRQEQRDeG+JP/nxKcxBUqVSaLkEzTD3xbqNk549zOfI0DVASfWkpn3X9lJU3VJh6etNGuZMf5x4ha3E0l5Z+RtdPV3JDZYandxt0/5nPtzsDSAYyw04yb+YmHr/r06loS592+hyaN4Ot9xNRkU7Y6YVMXxdAdW9v3F8yHbRuPS8+0j3Ckg1PcG/mjp7UnmZN7Dn/6yru1O/AR+YAahLjE8iQqFFmqoBMws8vZ9mBMJQZGRR2+YeZpzdtdP9h/rc7CcjaQU7Om8mmd97B90P2+0EMIyMIQlkmgmA+pTEImpiYAJCUlKThSjREakXXOcsZZuBD/7rlcS3vSlWv5aT2W8i0DiZIrboyZ/kwDHz6U7e8K+Vdq+K1PJV+C6fRwUSKTY8fWTbSin+GN6Sia3nK1x7EQcdm5B9H+s3rsabr3JV8We4UYxq54uzsQvVuK0jotIiVY2u9vJteryEdP5LzLLIGzZsYAnIqN6uPzrMY6rRrjQUAMip0G0JHvf18VrcCFVxdaTjqIrW9GiI/PoOha0IKDAsjtenBj8tGYvXPcBpWdKV8+doMOuhIs3fewfdDYmIi8OL9IQiCUBaV7k/6d1Aag2Dpn0pLjw8X3iD8FS2kNq2Yuus6owJvcT9MiXmFGlSy1steik2rqey6PorAW/cJU5pToUYlXiy2pc2MvVwb9YDbAXHoOValqp2cpLhUdEwLeQvpfcjCG6+qBqTWLZi05TLDn9zhfkgGpq7VqGyTfVy6Gv87Hsz/CtnPlvOvEzU/1z0tF3AjakGeVrLyA1j7bzse3Q0gSmZH1WrOmBDDwI8fI69QG9fhwXyVtxps28xg77VRPLgdQJyeI1Wr2iFPiiNVx7TUfkhkvx/Mzc1f01IQSreb1/0JC3uzQahzd6DfvnkfgNTUNI76ns3X7s162uu4V8PCorROf/p+KK2f8e9MTy/r2z89PR21Wl0qDhtlf9HFxcVpuBJNk2PuWodGri9bbI5rnUa8bLGelRvuVi9+NzHXe0nLNyXDzLkmDYpjQH49KyrUsaJCzh3muNV7TeDRs8It7w7yX/dQm2W/H0rvHNyC8Hp37zykU9uhpKamvfM6oqPi6O897p0eW69+DbbuWY6hofbPwF5aiSCYT+75eJOTkzEyMtJgNUXDwiLroGFQUOmbe1IQ3lX2+yH7/SEIZU1ycirDB3+dEwIN9N9+Qkz1O05BlJGhQqlSc+XyLUYPn8HqP+Ygk4kJOTVBBMF8cp8vFBUVVSqCYMuWLVm6dCmnTp0iJiZGHAoTyryUlBR8fX0B+PDDDzVcjSBoxrSv5nPPPwCZTMLZnd40crcr0e3/utaPL6af5MDe43w/4xe+m/1uvYrCfyMuFsnHzc0NQ0NDAC5cuKDhaoqGl5cXJiYmZGZm8uuvv2q6HEHQuDVr1hAfH4+Ojg7du3fXdDmCUOK2+Rxgw5+7AfhparMSD4EAnw+pw4RhdQH4bekG1qz0KfEaBBEEC5DJZDRo0ACA8+fPa7iaomFkZMTYsWMBWLx4MZcuXdJwRYKgOXfv3mX27NkADB06FGtraw1XJAgl6+GDx0waPxeATq1dGf88jGnCvOnN6dGhIgDTvlrAPwdOaayWskoEwUI0adIEKD1BEGDq1KlUrlwZpVJJjx49OHv27OsfJAilzLVr1+jcuTMpKSk4ODgwZ84cTZckCCUqNTWN4UOmkpyUgpO9EesWt9HoRZFSqYQ/l3jS2N0WtVrNiE+/5trV2xqrpywSQbAQHh4eAFy+fJn09HQNV1M09PX12bNnDw4ODsTHx+Pl5cW4cePw9/fXdGmCUOwCAgL4+uuv+eijj4iIiMDCwoK9e/diZmam6dIEoUR9N+1nbt24h1QqYePS9liaG7z+QcXM0ECH3Ws7UcHFlJSUNAb2nsCToBBNl1VmiItFCtG0aVNkMhmpqals2bKFAQMGaLqkIlG5cmWOHz9Ov379uHz5MuvWrWPdunW4uLhgY2ODQqHAzMwMY2PjUjFsjlA2qdVqkpKSiIuLIzY2loiICAIDA3OWV69enQ0bNlCnTh0NVikIJW/vrqOsXb0VgJkTG9O8kYOGK3rBxsqQ/X92oUmXLURGRDOg1zj2/LMaM4UY8L24iSBYCBsbG3r16sWmTZuYN29eqQmCAJUqVeL8+fMsW7aMxYsXExAQQFBQkBhaRij1nJycGD16NOPHj88ZL1QQyorHgc8Y/8VMADw/cGby5w00XFFBVSqas3NNR9r028k9/wA+HfQ/Nm5bgq6ujqZLK9VEEHyJSZMmsWnTJvz8/Dh06BBt27bVdElFRi6XM2bMGL744guuXLnChQsXiI2NJTY2lpiYmLI7FV0JiYuLE4cki5mhoSEKhQJzc3MUCgV169bFw8MDqVScDSOUPenpGYz4dCoJ8UnYWhnw55K2SKXaedSnhYcjfyxqQ//PD3Hm1GW+HDObJcu/EUepipEIgi9Rr149WrduzZEjR/jpp59KVRDMJpFIqF+/PvXr19d0KWVGbGws1apV48qVK9jb22u6HEEQyoAfvl/G1StZF2B0bluBv3f4g1pFepoStVM5vuhhQ9qlO6w6l4JcV4pMAspMJWkZEiq1rUvvajJQpXJ+202OhErQ05NChhKDGpUZ/aFpkdfbr1sVAp8k8PWP59iyaT/lXB2ZOHlYkW9HyCL+PH6FSZMmAXDkyBF8fMT4RsJ/t3jxYkJDQ5k7d66mSxEEoQw4dPAUK379G4BerZxRXb/LxO9PM3Heffylulia66EPINfBhEjWzjnNhO9PM2t/HHITA6yNX/TEyfXlKB/c54dVATxKk2NR2FzrRWTy5/UZ2q86APPnrmLzhr3Ftq2yTgTBV2jXrh0dOnQAYNiwYTx48EDDFQnvs9jYWBYvXgzAypUrCQ4O1nBFgiCUZsHPwhgz4jsAWjR2YMPajnzcyAgZoFbq07B3HYa3UiBHgmXdSoweVplGz89aybB24LNPq9PK+XlMkOrTwKsCDklyBi3qyLIJdelXz7DYapdIJCz74UPatsiajH3CF7M5deJisW2vLBNB8DXWr1+Po6Mj8fHx9O7dm7S0d5+YWyjbFi9eTFxcHACpqamiV1AQhGKTmZnJiP+bRmxsPJYKfTb82g65XI6rs3HWF78qkcAnqjyPUcWnkfB87uCMkHiCMnMvVfNs51l+t6zPN01L5mIrHR0ZW37zonY1S5RKJZ8O+h937zwskW2XJSIIvoaVlRWbNm1CJpNx9epVxowZo+mShPdQ7t7AbKtWrRK9goIgFIt5c1Zx4bwfAOt/9sTR3hiQYOtkgokEUCYS+DRXEFSlsn/+Nc4hRQIoQ+IJzBUEVREP+foPGRMmumJRgsnB1ESXfX90wcHWiIT4JAb0Gkd4WGTJFVAGiCD4Bpo3b87MmVmX3a9cuZJRo0ahUqle8yhBeCF3b2A20SsoCEJxOHHsX35esBaASSPq4dXaNWeZ3NkUJxmAkidPElE+vz/uzL/MDqvKj91MkAGq+AQCY553D6pS2T/vKmmfNKGHdclfvevkYMy+9Z0xNtTh2dMwBvaZQFJSSonXUVqJIPiGJk+ezKeffgrA8uXL6d27txhmRXgjhfUGZhO9goIgFKXwsEhGD5sBgEc9W2Z/5ZFnudzR5HkQVPP0STyZAMnPmD0/hl5Ta9GyXPah46ScQ8dxZ/5lTlQ15nQz1lhoqFvDGp8V7ZFKJVy/dpeR/zcVpVL5+gcKryWC4BuSSCSsWbOGiRMnArBt2zaaNGnCrVu3NFyZoO0K6w3MJnoFBUEoKkqlklHDZhAZGYPCVJeNS9ujoyPL28jQFBcrCaAm4lkC8apMLiw7z6XWzfi8sgxrJxPMJIAyicCnSkh6xuyFcfT9ujrlZYVtFVAlc2ylLx26HmbN0+I7WtbhI1eW//AhAIcOnmbaVwtQq9XFtr2yQgTBtzRv3jxWrFiBrq4uN27coE6dOnz22WeEhYVpujRBC72qNzCb6BUUBKEoLFm4jtMnLwHw+4I2uDoXMsaf3JTy9lmHd1Uh8dy/cZXJZx2ZM9waXUDuZJLr0HEcZ5ed56pnM0ZWfEVckBrSanB1qsXHEZFe5LuVx/CBNZk8Omvs27Wrt7Jy2cbi3WAZIILgO/jss884duwYVatWRalUsnLlStzc3Jg5cyZRUVGaLk/QIikpKaxfv55du3axa9cu2rdvD0CzZs1y7tu8eTMZGRkarlQQhPfZ+bNX+emHlQB8MaQ23TtULLyhzBBXezkSIPPZM76bFUj9/9WjsX7WYrmTKU5yABWPT5zhq4vOzP0/yzeYfUKC7GU9hkVs9ldN6NO5EgDfTF3Mvt3HSmbDpZSYWeQdNW3alBs3brBq1Sq+/fZbwsPDmTFjBt999x3Nmzena9eudOvWjfLly2u6VEGD7O3t6dKlS87vBw8eBMDR0THP/YIgCO8qKiqWEf83DbVaTb2a1syb1vwVraWUczZCRjqZieEEVurMZg/dF4v1TSlnLYEnaiKvpfB/Pu7Uf8loMcrIUHz2hZMgl6JjJSNZDZa5lic/CmDDiUQkhlIyZQo6dXPE9tEDFv8ThxI15T6qjuvt2xwPB7WNE6N6GHHhL3+uJMmo3KYOnVX3mbk5lPQaVelvHMrhp0pS1Wb0HFiRdYva8Cw0kdMXQxg1bDrb7ZdTv2Gtong6yxwRBP8DuVzOyJEjGThwIHPnzuWXX34hISGBEydOcOLECSZMmICDgwMODg7Y29tjb2+PtbU1CQkJREdH54xJmHsOxbJwW1vq0MTtCxcuIAiCUFRUKhVjR35HaEgEJkY6bF7eHj29V3XNSXF1NkZGDDhVYd4kZxS5F+uYUt5BAk8kVBn0AV830Cl0Len+1+k1OZzeCz9keHk5sVcu8HuYGufnyxMvnKfX7wYsXFyHavoQd/EcfT+LYsFvNelluR+PTbYcHWVItQoObO10HPk8d8xkUuqZxfJLdA2GV5Qil1VisN1NGq+8Qbk5zRjTXodT0zYxcr0lhz9TsPP3jjTpsoX7AXF83PdL9vn+jmt5pyJ6ZssOEQSLgImJCbNnz2bGjBkcOXKEXbt2sXv3bkJDQwkODhbnfwmCIAjF4relG/A9dAaAlT99hFt5xWseIcHMyRQruREtpzahk3m+4WCkhpR31EXH1Y2F450wKXQd6exbepFHDTvSq3xWjFDUsKOmWVDWYlUSm369gcpzANWeH3I2c3ej4dO9LDhejTVda9Jp6QW2PajP10YxYCXF92AE6fWsuRtsytD/s8dcBiBFYaJDhqMj/eobIEeFrbUuz54kkokCS3MD9q/vQpMuW4iMiqW/9zj2+a7B3Nzs3Z7MMkoEwSKkp6eHl5cXXl5erFixgosXL3Lv3j1CQkJyfiIjIzE1NcXCwgI9vRf97bmvfNLW25refmmo3d/fX/xhIAhCkbh86Sazvl0KwLD+NejbtfIbPU7Poz6bN9WlpodRIRcKyGkzxoujchuavyxTqjIIDkvH0E2XQvseVSk8i1Ciq5crYkhk6Omk8Sw0E4ycGdzuDCO3htLZKYX6s+ry+PM7nBieyiW1I+PzXeMi15NReL8kuJVXsHtdJz7stZ1HD4MY3H8SPjt/RU9P9yWPEPITQbCYSCQSGjVqRKNGjTRdiqBFRo0axfLlyzVdhiAI77nY2Hg+G/I1SqWSmlUsWPzdB2/+YAMzmnm8fLGJmyOvOssQqQEffmDN/LvRxGOBOYAyk5R0NagBuTmezU3Zfi+KNOzRA0iM5m6sDe2a6AFSGveqhMGn55jVpx6rKzpiXOsqS+fo0XKIB/pvvicANKlvz99L2tFrxAH+PXeNsaO+Z9mq75FKxfWwb0I8S4IgCILwHlGr1Uz4YhZPn4RioC9n8/IOGBq8rM+sOEipMbwN8xwCmbr0LjsP3mXpykfcSYll9293uZgko+mEdkxS3uCLBTdY73ONqbMe4/ZtG8Y8H4ZGXrkK/cul4dDIGTOpLm29HXn0WI+O1V7Ekkz/Byw8Ekfmg4f8fDiGmKv+/HYumbjr/qw6nUjuEQu9O7kxf3ozAHZuO8TcWStK8Pl4v4keQUEQBEF4j6xdvZX9e44DsOyHllSvbFHyRegq8P66Dd7pqYTESrBs70a/fk3ARB+FIYAlA79py8D0NMLiJQzone8wssyM0Wu8STfKiiF6Hk05s06CSa5G8ipuzFzjxsyce8z5eVM1fn5JSROGu/PocTzL1t9gycJ1lCvnwIBPuhXxjpc+IggKGqVWq4mKiiI2NpaYmBhiY2NJSSm9c0hWr16dGTNmoFAo2L17t6bLKXYGBgYoFArMzc1RKBRYWloWuIJcEIQ3d8PPn2++XgTAoJ5V+KRXNc0WpKuPvU3WTQvbQiKFrh62VoU/VG6kmyuEyDEx/m+lSCQSfv6+BY+fJbDvSCCTxs/FwcmWVq2b/LcVl3IiCAoa4e/vz4oVK9i6dStPnz7VdDlCCXF2dsbb25sRI0ZQufKbndguCEKWxIQkOrQeTGZm1hy71dws+HXtdQ1XpX2aNbBn35FAVCoV/XqO5cipv6hRS3zevIwIgkKJSklJ4ft2fQp2AAAgAElEQVTvv2fevHmFThguk8kwNDQUvUalgFqtJjk5Oc//85MnT1i0aBFLlixh8uTJTJs2DX39tz01XBDKHrVazcRxc3JCIMDXP57TYEXvjwG9x3PgyFrsHWw0XYpWEkFQKDFJSUl07tyZY8eypgNydXXl448/pnXr1lhbW2NmZiZCYCmTHQbj4uIIDw/nyJEjrF+/nsePHzN79mz+/fdfdu3ahaGhoaZLFQStdvrERfzvPqJaDTciI2KwsjbXaD0pyakEBmQdzalavaJWfm4/CQrBydkOiUTCD98vY/HS6chKah6894gIgkKJUKvVeHt754TAiRMnMmnSpDxjKQqlj0QiwcjICCMjIxwcHKhbty6jR4/mp59+YuHChfj6+tKnTx92796tlV8kgqAtPviwEcfObNB0GTkuXbhOp7ZDATh84k90dESceF+J4WOEErF27dqceXYXLlzItGnTRAgso/T19ZkxYwbz588HYO/evfz1118arkoQBKFsEkFQKHbp6elMmTIFAG9vbz799FMNVyRog6FDh9KtW9bQDpMnTyYjI0PDFQmCIJQ9IggKxe7gwYOEh4cjkUj47rvvNF2OoEW+//57JBIJwcHB+Pr6arocQRCEMkcEQaHY7d27F4AWLVrg6Oio4WoEbeLi4kLTpk0B2LNnj4arEQRBKHtEEBSKXfY4gbVr19ZwJYI2yn5dPHv2TMOVCIIglD3iMh+h2MXGxgKgUCg0XImgjczMzIAXrxNBEPJKT8/g++lLNF1GHmGhkTm3v5myCKlM+/uV+g7oRM3aVTRdhtYRQVAodtlf8Nlf+G8q4bEft8N0KFe3Ona6r2udTuhtPyJMa1DLqfAx6dJDb+MXYUqNWk68dNS61HDu+YeCXUXcbI1e2WWuigvEzz8R25o1cdCyYfBUsQFc849GUcWdCoq8e5EWcgu/cGMa1Smnoeryyv4DQQRBQSicUqlk9W+bNV3GS/2+eoumS3gjHk3dRRAshAiCwn+2ceNGvL290dHRKXR59he8qanpm69UGcAfI9sx7ZwRPX6/zO/dX9ObqApn51dd2dj0MEem1Cjkha0ifOdXdN3YlMNHplCjkFd++p01DOn1Nf9EyZFl6FDts5X4zGyLzUvSYMbVJXzc+yofn/RlUlXtGqQ049JiBvT+E1Xn5Rxb2weHnH1QEuwzgS7rGxJ6eZYmS8whegQF4c052FtTv25VTZfxXtlz4JSmS9BqIggK/9mIESOYNm0a06dPZ+DAgcjleV9W2VOMvSwoFibzzia23qhNt46hHN24i9Cun2BXrEce0ji3+mdOuEzh1IUxWJ8YS+tPl7D1szaMctH+Qx6FkxC1/1um72zJqh52WntCcPbrIjMzU8OVCIL227BmFvXrVtN0Ge8V15qdiYqO03QZWksEQeE/U6vVPHr0iCFDhjB79mymT59O//79CwTCN5fGpU3beNRgJOtGPKBHHx+2PR7I6PK5e92SeHTEh22nHpJk7EbLbs1R51tL0qMj+Gw7xcMkY9xadqN5/gZ5SNDT1wGpLgZ6UvQN9JDK9TH8T2Nep/H03E52nbhDSKIE03IN6NSrA9VN47hxyJfHNi3xqmeTE9AyA0+z65oOjTs3xkkGmaEX2e5zkOvhaqzrdKR/j/pYy0AVe429uyOp3rceibvXsze2IZ8PbUaBPlMdDz4elMjmGd+y94NldLF+SRRMD+XS7m0cuh5CumlFmnXxxrOyCVD4tgY3juHos4p0qRrGDp/jPEq1oF63j+laNYFzm3047B+PQcUP6dOnFa5adshcEARByEtbOwmE94ha/SJhPXjwgE8++YTq1avz119/5fQGvpWkU2zcGUHTHp1wadSDTg6X2bLpDjn9RaoYjk/vQMuB8zn8MIrwmz6M9+rDmgfZLVTEHJ9Oh5YDmX/4IVHhN/EZ70WfNQ94eZ+TLg0HD6P+zUWM/Xo6Q77YjvmICfS0fde3iJJ7qwfQyvs7dtwIITbSn/3zh9Bh0HLuqfWIOjyLoRPXcy/n6UnmxOKRfLnpHjoSSLq8mO4tevHT0UBiIm6z/esueI7YQpAS1CGHWDjlV1bM6EbnMUvZfTWYdFUhJUh0qTlmLsMUu5n+/UGiC2uTeIH53ZvRcfIGLj8J5YHvYoa0bMXoHU9QUti2nhJ65Bf+9/VoevaczoEH4Tw+9ivDuvRigHc3xm+9TWTkbbZ/24sOX4rhYARBELSd6BEsYomJiZw/f56zZ89y9uxZbt++TUJCAsnJyahUKiQSSc6cqtm33+bnXR5X3I9JTk4u8Dzcv3+fQYMGMWvWLFJTU9/qOYw9tIH9SS2Y1dEWqa4l3TtXYMW2TVyaMAsPPci8sYzpK6PxWnmU5V1tkQKxJybTvufqrBVk3mDZ9JVEe63k6PKu2GY1YHL7nqx+xXYz5M5UcU1i5W8rqD5qO/umNMXkrSrPRfmQQ/vuU2faXjaPrIAMSNo/Eveh57iaOpqeg3rh9vdutt8ex9e15JB0hl2H02gzuzO26rssmryIuAFbOP5NI4yBzEdr6Ov5HQuOebHQEUg7zfabE9jk9xXNrF9xfqJBYyb+OISDvabyfZemLPbMvUeZ3FkxmQUPmrDQdx0DXOVALGdndKbHlNl0aLWCDuTfFgT8/DvKEBkdDu1nYi19iPVhUJ2RXHfdwIkl7VCgJOBnLzzWngY6v+szKAiCIJQAEQSLQEZGBhs2bGDp0qVcuXLl3XrBSil/f/+3e4AqjN2bjpBcbThmt09zGlC61MAucAcbT07Bw9OA4DNnuWftycz2tjld2ormg+lZcx17AVXwGc7es8ZzZntsXzRgcM+arNtb+GaTry2hb6/FJHWdw69N1zJ150oODK+LxUpvNpb7mTWfVX27N4usMp/v8ONzUgm/d5Ebt2/xr895YpRVUapBXmsAfeuv4K9tfvyvVn3STu3CV+bFL54KVCGbOHpDDzP3U6xadOb5ClMwMg/n9NHrMAiQ2tB53IRXh0AApBg3+x8/DjpE38mz6dZwDjnXCqtCOXHiNhYdpuPtmr13CjyGD6Dhyl/wvZpGB7v828p6bcureNKxun7WQwzssFXoUrVx0+eHp2XYOtigoxLvA0EQBG0nguB/kJiYyKpVq1i0aBFPnjzJuV8mk1G7dm2aNm1KgwYNMDc3x8jICKlUilqtzvkB8vz+up+3bV9S25g8eXKhJ/rr6ekxfPhwNmzYQFRU1Bs9p8qgbficSkFu/Cfjhv6Zc3+aTgR7Nx7iO8/OJMQnIVFYYZE7A8mssDLPSn2qhHiSJAqs8jbAysq88HMhVKFsmb2Au80WcuannlirWyJ92pEpg0fSINYfg8m27/BGScLv9y8Zt/AE8XbVqVmlMlVcXDGXZJdTjt4DWrJw4XYuTalM1K4jGHddxwdGoHocR4IyjeQ7F7nwRPJilZXa4O7wfJ9kzlSo+KYX35jRcspc+vkO4qufOrHGJnu/44hNAHNrC3I/U1ILayzkCcTGKsGu8G1JZPJcz4kECSCV5n12JQiCIAjaTgTBd7R27VomTpxIdHQ0AHK5nH79+vHJJ5/QuHFjjI2NNVxhyZk+fXqeIKivr8+IESOYNGkSDg4ObN78puNfZeK/2YdLdv/HtnNzaJZzoYaKxyu64vHDRnaFdqWLsx3yp/e5lwi1s6+QSLvL3YBMaARyB2fs5E+5n7cBd+8GkEmjQjb7hEePU3HsXRMLKYAr/Zes5F7XXvwc3Yqlbczf+jlRhWzi2+nHKf/LSVb3yLogJM13LH/+Ef68hRSbzgNoP2sqW4/WI/64LT221kcXwMEFR0NjrMetY3Hr571upBN68zKhpjUg6ThIZMhlbxG1FK2YPtubVp9+xaJ2+lkX1sjtcbaT89T/HgnUIXsvM+/d5kGGHW2cnn88vO22BEEQhPeGuFjkLSUnJzNkyBA+/fRToqOjMTQ0ZMyYMTx48ID169fTunXrMhUC4cXFIgYGBkyYMIGAgAAWLVqEg4PD260o/Sqbtt3GpXNPGua5WleKc5fuNFGewmfrY8w8vWmj+w/zv91JQDKQGcbJeTPZ9Pj51RBmnni30eWf+d+yM6sBYSfnMXPTYwq7XgJdN2pVN+L2ll/ZdT8JSCfk5kVuRYBu2klWLj3Dy0e4yyQhLIjAwMBcP48JDo4mIUOCWpmJCsgMP8/yZQcIU2aQkZ2ZTVozqJucfdN+4KRbL/pWfR68TD3xbqNk549zOfI0DVASfWkpn3X9lJU3Ct2DNyDFvO0MZnVLYueOa88vmlHQtk879A/NY8bW+ySqID3sNAunryOgujfe7q8dxVsQBEF4z4kg+Bbu3r1L48aNWbduHQA9e/bk8ePH/Pzzz5Qrpx2zNGiCoaEhEydOJCAggAULFmBnZ1dou9xXFxcm+czf7AisQreedckfQaR2HenWXM6FrZuQ2vTgx2UjsfpnOA0rulK+fG0GHXSkWfYo0VIbevy4jJFW/zC8YUVcy5en9qCDODYrbKBpAHO6fTuPfgZ7GNa4Ai7lXKndew0ZfddyZH0fUlcOZdS6e4UXnXmDJV3dqVu3bq6f+vTaU40hHfXY/1ldKlRwxbXhKC7W9qKh/Dgzhq4mSAWgR8MB3tgGRVDbuycu2cdnpVZ0nbOcYQY+9K9bHtfyrlT1Wk5qv4VM6/DOl6+A1Aqvb2bSM2d0aSnWXeey8stynBrTCFdnZ1yqd2NFQicWrRxLrRI6XvC614UgCNrpWXA46ekZmi5D+I8k6mL8FLazsyMsLIzNmzfTu3fv4tpMiTh9+jQdOnQgMTERHR0d5s2bx9ixYzVdllaIiorC0tLypcsrVKhAQEAAv/zyC4MGDSq6DadF8uB2AHF6jlStaoc8KY5UHVPM9LMTVRqRD24TEKeHY9Wq2MmTiEvVwdRMn0IvsVAlEeJ/h8eJ+jhWroazmQxQkRoXRwoGmJvpF/aoVxVI5KO7BETJsKtaDWcTiHngx2N5BWq7KpACyce/pOnwGL658DsFJ0/JJCbwFvfDlJhXqEEl6/80qOErKeOecOd+CBmmrlSrbMPb7ul/sW7dOsaNG0flypXf/uIiQev5+vri6emJXC4nI0P7Q0P2udzb9iyn2Qf1NV0OACkpqZS3b5Hzu1yuHTMZKZUqJJKC5wdrm8zMrAvXVv8xl05dP3rjx/Xp/gUJCUns9/39P20/Njaeqq5tAPDz86N27dr/aX1FTZwj+Ab8/Pzo1KkTiYmJuLi44OPjQ+PGjTVdltZ4VQiEF3PJxsUV8cjuela4uVu9+N3EnLxRSQ8rN3detDDB/FVZSmqEfbUG2Oe9E30z83cMRnpYVaiDVYUX95i71cMcUMXc5cylmxxauBN5z/V0KHQGPTnmrnVo5PpOG38rMjNnajZwLv4NFSJ7arns14kgCK+WHWy0gVoNKjFCwHtNBMHXCA0NxcvLi7i4OJycnDh9+jTOzpr5wnxfZX/Bi7lkX1CF+LJw0irCa3zOkq+alGgPnLYRQVAQXk1XVwefnb9quow8lv/yF8eOnAdg6Ig+tG3/gYYrer1q1StqugStJILgK2RkZODt7U1wcDAKhYJDhw6JEPgOzM2zrkcNCwvTcCXaQ179c7Zd+1zTZWiF7NeFCIKCUDiZTEaLDwsZ8UBDHgc+4+Txizm/H9h7nBnfj0FX983nkxe0h3Yf2NewhQsXcubMGaRSKX///TfVqomJvt9F9mH0Q4cOicG2hTwyMzPx9fUFwMPDQ8PVCILwJhbP/z3PZ/mzp2Fs/Gu3BisS/gsRBF8iOjqauXPnAjBu3Di8vLw0XNH7q1evXkBWz8+OHTs0XI2gTbZu3UpERASQdRW+IGiarm7WmAVpaWkarkQ7PQ58hs/G/QXuX7JwnbiC+CXSUtNzbme/vrSJCIIv8cMPPxAbG4tCoWDatGmaLue9Vr58ebp37w7A5MmTc774hbItLCyMqVOnAtC7d29cXFw0XJEg5L64LVHDlWin/L2B2USv4MvFxsbn3M4+VUqbiCBYiKCgIH79NevE3MmTJ2vlf9z7ZsmSJZiYmBAZGUmXLl3E+YJlXEhICF26dCEqKgozMzMWLVqk6ZIEAXgRBOPjEjRcifZ5WW9gNtErWLj4XH9UaOO50CIIFmLBggWkpaXh5OQkxgosIk5OTmzYsAG5XM6dO3do3Lgxa9euJSUlRdOlCSUoOTmZNWvW4OHhgb+/Pzo6OmzcuPHtZ6ERhGKS/Yd/SLA4cpHfy3oDs4lewcKFhmS9lgwMDNDTK77xYN+VuGq4ELt3Z72QR48ejb5+WR7Yo2h16tSJXbt2MXDgQGJiYhg/fjzTpk2jadOmWFtbY2ZmhkKhwMDAAIlEzG37vlOr1aSkpBAbG0tcXBwRERGcOXOG5ORkIGv8yb///pt27dppuFJBeKFJkyacP3+eg/uO89XUz8RnUS6t2jThg5YNAXj0MIj5c1cDsGTFt8hlWf1K1tYWGqtPW+3fexyApk2bariSwokgmM/t27cJDAwEsoKLULS8vLy4e/cuX331FX///TdJSUkcPnxY02UJJUhXV5eBAwcyd+5crK2tNV2OIOQxYMAAFi1axN07jzhy+Cxt2jbTdElao0u3Njm3L124nhMEx4z4VlMlFbt69Wv8p8c/DnzG7h1ZIyP079+/KEoqciII5rN3714AXFxcqFmzpoarKZ1sbGxYu3Yt8+fPZ/fu3fj5+RETE0NMTAyxsbE5PUalVWJiIsnJydjY2Gi6lGJnaGiIubk5CoUCc3Nz3N3d6dy5MxYWotdA0E7169enRYsWnDx5klHDprNl11Lq1BVDh73K2C+HIJOVzjPNHBze/XM6NCSCfj3HolQqsbGxEUHwfbF/f9aJsB07dtRwJaWfpaUlQ4YM0XQZJa5Nmzb4+/tz5swZrTxfRBDKulWrVvHhhx8SEhJCr66jWb9xAR5N3TVdltaaOHkYOjoiTuQWGPCU/t7jePQwCD09Pf7++2+tPdVM/M/lc/PmTQBatmyp4UqE0uj06dMcOXIEgNWrVzN69GgNVyQIQn6VK1fm+PHjOWGwm9dnNG/RgK49PHF2scdMYYqZmTEGBvpl9hzCqMgXU4aGhkSU6SCYlpZOXGwCcXEJhIdFcnD/SfbtPoZKpUJPT4+9e/fSpk2b169IQ8ru/1whVCoVMTExANja2mq4GqE0+uabb3Juz507l6FDh4peQUHQQtlhsGfPnty8eZPTJy9x+uQlTZellRrW7qrpErSSg4MDf/zxh1aHQBDDx+QRExODSqUCsg5bCkJROnXqFEePHs35/enTp6xevVqDFQmC8CqVK1fm+vXrHDhwgL59+2Jra4tcLvpPhMJJpVLMzc3p0KEDf/75JwEBAVofAkH0COYRGRmZc9vKykqDlQil0bffFryyTvQKCoJ2k0gktG/fnvbt2wNZwyIlJycTGxtbpsdBvXr1Kr179wayRtvQ0dHRcEWao6Ojg7m5OcbGxkil71//mgiCuURHR+fcFrOJCEUpf29gtuxeQXGuoCC8HyQSCUZGRhgZGWm6FI3KPVWom5tbmQ6C77v3L7oWIxMTk5zb8fHxr2gpCG+nsN7AbHPmzBET3AuCIAgaIYJgLrmnuQoODtZgJUJp8rLewGzPnj1j1apVJViRIAiCIGQRh4ZzyT0ZdGJi4itaCsKbO336dM75RSqVikOHDgHg4eGR85q7du2axuoTBEEQyi4RBHPJvmIYeC9P+BS005QpU5gyZQoAaWlpOYOKLlq0CA8PD02WJgiCIJRxIu3kolarc26X1UFCBUEQBEEoO0QQzEUEQUEQBEEQyhIRBHMRQVAQBEEQhLJEBMFcRBAUBEEQBKEsEUEwFxEEBUEQBEEoS0QQzEUEQe0UHR3N0qVL6d+/P+3bt+fRo0dA1vh77u7ueX727duX57GBgYEF2mQP35LtwYMHBdrkH/fvzp07BdqcOnUqT5sbN24UaHPu3Lk8ba5evZpz++OPP8bd3Z1Ll/JOZH/hwoUC68k/vMyZM2cKtLl161aeNidOnCjQxt/fP08bX1/fAm2yn99sBw8eLNAmKCgoT5s9e/bkWd64cWMCAwMRBEEQtJsYPiYXEQS1z6pVqxg7dmyeOT0v3NxApkElnjwNLxCQbgccoFLIizEgHz0JLqTNflxDYnJ+v/fkSYE2dwL24RTyYgqlu0EBBdsE7sXWLThXm/uFtNmDpeuL0PQw+HbO7fv372e1ebwbU8eHLx7z+GbB9TzejaGtf67frxVsE7QLHYububZ9uUCbu0E7kZi65mrzb8E2T3aQaeD0ok3A2ULabCdVxz5Xm5MF2gTHHUcW5YKZYQVM9MuJ95QgCIIWEkEwFxEEtU+jxvXQN5AjkenxwUdVsLEzRcc4kphkFeilMm5a+zztXSpLiEl+EZhkRikF2jhWVOVpo2OcVKCNrWtmnjb65okF2lg7p+dpY2SZUKCNhWNqnjamtgW3pbBNytPG3C65QBsT6/g8bSwdC+67oUVsnjY2LukF2uiZRROT/GI6O/vyygJt5EYRxCQn5fzu6KYu0EZiEEZM8otpGF2qSPO0SU/LJFPnIcGxQQTHnsZIz5Hd64PJyFDxzTffIAjC+61q1ars378fAJlMpuFqhP9Cos6dfoqYnZ0dYWFhbN68md69exfXZopMQkICpqamAFy5cgV3d3cNV1S2ZSpTuBvyF3f9b2JhaYSRib6mSxLe0YlDd/hq1CYA1q1bxyeffKLhioSS4uvri6enJ3K5nIyMDE2XIwhCPuIcwVxyZ2Ixs4jmPY0+TlJaCM6uliIEvueatapMkxZuAMyZM4di/PtTEARBeAsi7eSSe4o5cWhYs1TqTCIT/DRdhlBE5DoyRv3PEwB/f3/8/MT/rSAIgjYQ5wjmIs4R1A5Xrlzhx59mIzEIZvy0DpouRygiblVsadWuGlZmlUWPoCAIgpYQQTAXEQS1w/379/HZvB1zCyMRBEsRiUTCnKV9qWo/EDPDCpouRxAEQUAcGs5DBEHtEB+fdTWqkYmehisRioNSlarpEgRBEITnRBDMRQRB7ZB9rqZMJl6epZE4KCwIgqA9xDdtLiIIagdTU1PKuTpja2+q6VIKSHoawvUrYUSmv0Hj9AQeXg0lLOX1TQVBEARBE0QQzEUEQe3Qr18/rt06ypI/tGysOWU0uyatZnifdfx8+PXpThV5iwUf72R3kLJINp95+ypLF10nILNIVqcRU0ZvorG7F2vWrNF0KYIgCAIiCOYhgqDwKpn3/Th0x57WbXQ5v+M2karXP6YoKR8/ZNfWAEKKJldqRGhwHA8fPCYmJub1jQVBEIRiJ64azkUEQeHlMrm14wZP6nowe3AU94b5cfiJO/3K5fpbKjmK87tucjkwHcPyFWjdOP/ZcJmEXbrF0bPhRCRJMHJy4sOulaloKiXtvj//3DeiYZUUzh8M5EmiDg4NqtO+tQ3GqIi67s/5q3Fkpsq4tu86uu7VaVBeDpkJ3Nx3ndO3E1Fb2dOiR01qWEpBlcLdw7eJqVyH6km32X0olZpDG+GufUfbBUEQBA0SQTAXMbOI8FLJAezfn4T7mGrYu8fSwu4S/+wMp9dYO+SAKvYhv368mW0xNjTxsER6fQ9bVkuRKXXJmqhQReBfGxn1Uzj2zcpT3jiVK7vPsvGfNqz+wwOTC+dZ8HMMVhIlinoVcJXHcOzv02zt0pNfv69M5L9X2XIkgrRkKcfW/0uSgRsNbENZP3wjf4bZ4FHPhJTzB/HZeJ/Jf3annV0CZ5YfxK9uOLE7LxNpW5OxH6sQBwEEQRCE3EQQzEX0CGoHX19flv+2GD3TaMZ+3V7T5QAQf+wap1LK80UbE6S6hrRpZ4HPXj9ujbCjjp6S+2sPsTWmKt9u78ZH1lIghUsz1zD27+crUEZx1jeSKhMGM3+wJTIgxXcHPcc/5k6aB40AZaySmouH842XCVJUxJ05wGfDDvFHJze+HNaf35y20nmWDuM3d6WpnoqAFQdYH+/Oop1tqGUEZEaxbfhqli17SLvvzYBMLu8L5ZOV4/i/RsZow7TwTVpUoka1elSrVk3TpQiCIAiIIJiHmGJOOzx8+JDtW/dRroKVdgRBVQLHdz4gpVJjTO4FcgVQOdph9eQm+8+3os4HyVy9GIn5h21pbp3d42aAe99aVNp0J+tXmTX9142nPxlEPXzCff8wru8OIl5pjer53x8yh6p0aW3yvM9OilnjhnhWvoLvqTDwcCpQ04XToeiaOnL5z1NceX53mqEB0f8+BOoBEizaNucTLQmBAMPHf4SbrTeWxtU1XYogCIKACIJ5iB5BoTDKpzc5eD4DmdEV5o6/knN/ujyJE9vvMbqZNYnJYGJhmOfAq8zCENOcO9Lx37CXucsfkWhri1tFK8o7mmOa62UmURihyJ3YpIYozCAxrpABmFWpJCaqSU8J4+bVWF6sxgqPWtknAkqxd7UUb3JBEAThpcR3RC4iCAoFKQnc5cctm4Ys3t8B95zJTlQE//EH/RZd41h0d+xspIQ/iiAZe7JjWPqDCJ4poRagCrvG0rmPcPphBN91MkYKpJ/YzZ7NiTlbUj2LICAZKmavICOCwCdg1aiQKzzkptjb62Bo+QGzZ7mRXVZGeCi3wvWBrIEOpTIp4pUsCIIgvIw4czwXEQS1g0KhoHKViji6mGu6FEgPZv/ecOzb1qJmnhnvpNi1q0ldVSAH96TSpHMl5MdOsuxANKlAZkQAaxf4Efz8bAN1UhpJmaBWqVABmZFBbF7nT5RKSebzcQFVMXdZ+9MtnqQAymT8Vh/nn0h7PmprldVAJkGSksCThzFEJenSpFMlVPuPs+ZkHOmAMuYpG778g+nrQ0vq2REEQRDec6JHMBcRBLVDnz59aNe5Pv4hGzRdCqkXrnHkiTVene3RybdMalOV1o0P89Oe61hu78D0e1v54ctfODBVD1mqGgfPclS8lTVvsvrKzLEAACAASURBVKxcDbp7XuaniYtpN1MXdaYBDfpXpealK/wy/iKVPwJZuYpUe/YPHzfcjY48gySJJW1n9KZPpay/1+Q1KtLYfB9LuvzCme8msKRfe6bf28qsEYvxMdBDmpKOfs3GTJlQGYgs2SfqDU36bAMB91Ywfdq3DB8+XNPlCIIglHkSde70U8Ts7OwICwtj8+bN9O7du7g2U2QCAgKoUKECAEFBQTg7O2u4orIrNvmBVgTBt5UeFcnDoFR07W0obyMlJT4TuYk+ejKATGICI3gWI8Gqkg12xhAXEEKIzByrU1vw/tuJFTtbYh8cRlCsHNtK1tgYvb7TPjM2moePElEqLHCrYIxuse/luxvS/Tfu3Ahm3rx5TJw4UdPlCCXA19cXT09P5HI5GRkZmi5HEIR8RI9gLqJHUPivdC2tqGb54ncjRe63mBxzV3vMXV/cY1beETNURGXfIZVj5upIrbfYplxhQZV6Fu9etCAIglBmiXMEcxFBUHtIytglDlIDQywtdEv9X2aZmVknTcpk2jKgjSAIQtlW2r933ooIgtrh8uXLzJr9DbFJj5i7rK+myykBUsx79GJbD03XUfxata9Og3pNqV27tqZLEQRBEBBBMA8xxZx2iImJYeeOfUilEpRKFTKZ+L8oLT4d3ZKaTsMw0vt/9u48PKbrDeD4d5ZM9k2QRIjEkogkEiH2fVdU0VLa2lql9KelVbrSapWqtrS0KC262IuimtrVUjuxbxGRRWTfk9l+fySZzBAEM5lMnM/z5Hnmzpy5953cmbnvnHvuezzNHYogCIKAODVsQPQIVgx+fn4AaDRajh6MMnM0gjFJJVbYWlU1dxiCIAhCEZEI6hFTzFUM3t7etG3bFoBfFv1r5mgEY1AWqNBqtVRzDEEqvbMQjyAIgmAu4tSwHtEjWHF8+OGHDB48mMkfDQdMVuFIKAfJtzP5cMJamjQNZME3k80djiBUSJpbJ4g4FE2e3tedRCLD2qUWDZs0wtvBiP02OXGcOnyS6HQZtVt2pkbCLg5cy0bqEUbPFt4PnRhoCrLJzlWhuU8bqZUtjnbGKG6VzZV9OziTDC4N2tOhgbMR1vlkE4mgHpEIVhxdu3bl6tWrODjacS1xIynZ5wCYPXUzcrkMhbUciQSatqpDs9Z1dc/TaDT8MGeHwbqat6lHk5a+umWVUs2ib3YatGnZvj6Nm5XUdcnPV7Jk3m6DNq07+RPSxFu3nJtTwE/z9xi0adelAUGNS+pPZmfmseyHfQZtOnRvSMNGXrrljPTcu3o+O/UMpEFQDd1yemoOv/6436BN197B1A/w0C0nJ2Wx6qeDBm26Pd2Iev7uuuWkxExWLztk0KbnMyH41q+uW06MT2ftL4cN2vQa0JjadUpO6cbHpvHHb0cM2vR5LoxaPiW1cy6ciWPB7H84fjgalVLN8UPXefnFUzRv3hxBEAwVHP2Okf2XEn9XNiVB5hzAc58uY9HrTXF8zO2oLi5hcI9xrLuej1ZWk9F/neP5TaMZ8F0U8l5LSNg8EpeHWyPnZrYnbOox7lclUtHpW67/8zqej5vPqhP4491neWc/NP7oCMc/DnnMFQoiEdQjEsGKxdm58JdefY9nyVOmkJJ1mfW/TTPYTy6OtejdM0y3rFarWb7wY4P1VHPzpWf3kjZ5ufksX/iJQZsa7vXo3qWkTWZmDssXfmrQpnatALp2LGmTokxn+cLPDNrU9Q2iU/uSNom5KSxf+LlBm8RbGTRtUZeRI0cCoExPZPnCmQZtggOb0q5VyXpykuJYvnCWQZuwxi1o3bykTXr8DZYvnG3Qpll4G6qHl7RJvhHF8oVfGrRp07oD1ZuUtIm/eonlCw0T0w4dOlM9tKRNzIXzd7Xp2rU71Z1CAZAgI5oLHN6/EICqVavyxRdfiCRQEB5EYk/dNp0IdJWgzkvl+qnDnLt1jlUTh1Ct4QnmdbJ/jJXns2fudP64XoDcpwf/e6U3XetbU6fvO8zwSkNaLxzbhw8Yqa0TVapUKUwENflkpmej1EpQOLjgoCg8llo72RinKJjEnnptevO0G9RpUMo87MJDE4mgHpEIVlw2VlVwswtl6NChpKamkp+fD0B4yFP4Vuuta6dWq+nevbvBc5sGG7bJz8+/q01YkGGbbLvsu9sEGrapoki/q03jhoZtnGUpBm1u377Ntg3H2RtxhemT1wNgp7l113pCGjyFb7WuumVrZdzdbfx74Vutg25ZmhNN9+6bDNo08nsK32ptdcva2tfo3n2LQZugek/hW62lbrmg9kW6d48wbFO3F77VwnXLub516N7dsOc1sE4vfKs11i1LQhvyxhvRtGjRgr59+2Jr+/CHGEF44kir0/OTNXzboXByc83tDbzc9Fl+vnGN9Sv3Ma9TG64fPU50joxqAS1paHeDgzuPkeffk45+dkAOsUf3cvBKOlYewbRp0xA3OUAOybE3OXctAQ1S3NsOZdzwzlT3UGDl8gwv+CvBzg0rTTa341PI00hROFXD3VkBaMi+HU9KngapjSse1RwoqQQqo+GknSRMKlxSX5pJm6B3OaRU0OmrK/w1qrDYfUH6LW7HxhCr/3x1FokJqeSjwMXdHUfVLS5dvkW+1JlaAZ7kn9nDvrMpKGo2pl1rP1ykgLQqHcd9QWAu2FT1AvK4dekyt/KlONcKwDP/DHv2nSVFUZPG7Vrj56LfBakh69ohdh29QUHVYDq080eRfIu0ArBz88LNztQ7t4LSmpC7u7sW0K5atcqUmzGa06dPaykckKZNSUkxdzhCJbRlyxYtoLWzszN3KIJQLv755x8toJXL5eYOpULL3TxS6ylFi8xX+/quvJIH1PHa+Z0VWpBobfut0GqVR7XvB1tpkThp+340U9urpkIrQaFt99V1bf6VVdr/tXTXWkkKj2NIpFoH/0Ha709ma7XZy7V9rdEd4wAtVs21My5ka3e97quVgda61xJtqipK+1M/D60MiVbR8E3tzjStNj9ytra9s1SLtLq296IrWtV9Xofq4ufaFlZowVrbY1Fy0b1K7dH3g7VWoFW0+0p7XV3U9vIsbSsrtFiFaaeeVmqVR9/XBluhlTh21r4yKlTrLJUUvQ4rrXun2dqjuVqtVnVF+0VrKy1YaRt/dFLv/+Go7fzKKG2os1QrAS1ItFbunbSzj+YWxZCq/fezLlovq+J1yrXV272sHdDQSovETtvvl2zj71QLIa4a1qMVPYKCIAhChaEh5ehPrD2uAmTU8vXVeyybbbM+YrcklJ79n6GtVyRT+w/nu0MZ1O45gc+/mc2UvvVQX1rN+EHvsUvZnDHfzuPlxlaAFLeOE/nuu8n0dL8jDZD5MPTbr3jWS4ry/HxemzKfz8Z9yr50CV795zD/5bqYel4gbeZOftvjw+iZX/HZK81xkyi5tfsL5v6Vfb8nsfO3PfiMnslXn71CczcJylu7+WLuX2QDOXumMXLaDmLVLjR56SPmzH6P7tnr+eOcmP9anBrWIxJBQRAEwaw0Mfz8XB3WK0CTn0FySjZKrRapU2teHtEcOFXYTqtBU/8NtuybQ3sXSFs5iLpncpEFvMOK9bNoYQ2MakJWo258d/kXFm6bxspRI0ncPIklJzTY+/fklVe7YE0+u+8IQeo1iLnz/ua/Qcu5+MPrfIIEee2XmPvtELzLo/tIVpMX5v7KrB52kB9C/I6ufBeVxuULN1E/fa+0RUbNF+by66we2JFPSPwOun4XRdrlC9xU53FtxVquKsGhy3TW/TyO2lLQPOfBraBxRGSVw2uqwESPoB6tmFlEEARBMCetiqykOOLi4khIzkIltcMr/HlmbFjN20H6SZCcgGdepLULQAEXT0SSoQH11YU87e2Ou7s77r6DWHFTDZp0Th+/SEGZg5Di/sxsvhjkWdj7J63OgJlf0s+jnI6LUm/8/ArHSCKvgVdRr2VBfsF9iolJ8fbzo/BZcmp4uRcmOAX5FKhTuXb9NmpkeIWG6a5cltYIp2lt0R8m/gN6RI+gIAiCYFYyb15e8y+ftrQCiQwb5yq42JR2MlaCi6trSW9O0TFL5h5G76f8ixKiYlKqhbk+1Cldze39bN2fWFgbUJPEntVbiXluGLUf87ywVqNGXXyoVSpLLzkjkSGTFR+DZZStX0aCTCbTXZks03+S1BZ7OzkS8khNTEQFKABUySSl36/64ZNBJIJ6LCkRVKlUZGVlkZmZSUZGBpmZmbo/lUpl7vCEezh+/DhQuP9Wr15t5mgEU5JKpdjb2+Po6IijoyNOTk6629bW1g9egfCEkmHrWh0PjzK8R3THKQX+oUE4Ss+RIfNn0Ozv6e4AkM3JVfPZckVCgyAfZPet9KdHk8D6t8ezIlqNom4jfG5FcnHjJMb+2IZNox9ljKAEm6L3vCb2OtEqqCODzDNnua4Gkw86xIHw8IbINx8l6c9vmLO/Fe+Gq9k/ayZrY9Wm3niFJxJBPRVxirm8vDz27dvHyZMnOXXqFKdPn+bq1avk5OSYOzThMRQUFDBo0CBzhyGYiZWVFTVq1KBRo0aEhIQQEhJCmzZt8PDwePCTBaEULk//j1eDNvFF5BKGd05nUOfaqC79zaqNJ0mtNpBfXpZDmRJBDbGr3uTN32PQWIfw5rJdDN7bh7bv72fbu2OY3+4vxgc8bOogo3ZgA1ykR7kdvYLxQ+T0qZPG3t/XklwuE0fJCXj1PYYue56lV3fzUVsPPpaCxtoTL1cZKSnlEUPFJRJBPRWpR/DYsWMsWrSIVatWkZ6eXqbnyGQyHB0dUSiMMY2PYAr5+fm6/Vm9evUHtBYsmVqtJisrS1fzUp9SqSQ6Opro6Gj+/PNPoLAHsXv37rzyyiv06dMHKysxJ7PwEOza8Mn6FShfmcCCPb8z9zAgkeFUvy+fLp7PwDKO79Pc+JU33lpLrMaGkDfn82FrV+ybzmfK5rZ8cGAnU1/7hk4RbxP0kIcZh96T+fjpf5m48Tpn1s/lrMKLTpPH0eXLuUSUw0ksqXs/ftjzFyGzF7Mt8haaaiH0Gd2L+IlP8WmKDJnJeyUrLolWP/sxMg8PD27dusWqVasYOHCgqTZjNIcPH9bNfJCbm4uNjU25x3DgwAEmTJjA4cMlU3xJpVL8/f1p1KgRQUFBNGjQABcXF91pJv3TTeZOYIX727ZtG/369cPW1paUJ/1n6BNCqVSSlZVFRkaGbjhHZmYm169f5/Tp00RGRhIZGWnQy+/p6cmHH37I6NGjLf7Cte3bt9O1a1fkcjlKpSjVYXpq0qJOEhmVjsStPqHBtTDmNMWPJ5/E8yc4l6CiakBTgjykZKZkUoAce2dnSh0KaRQabq1+g+fnnUDt3pfZv06iuQ1oEn6mf8OX2ZjZgMn/nmBm8yezE0X0COoxZ49gRkYG7733HvPnz9fdFxgYyMiRIxk4cCBVq1a9z7MFQaiorKyscHV1xdXV9Z5tCgoK+Pvvv/npp5/Ytm0b8fHxjB07ll9//ZXFixcTEBBQjhELlk2Gi28T2vo+uGX5s6Z6QAuq672dHau43bu50Uip2iQYu0sL2HrgCP07HKFXmAOxu9ezLRXcuo1lRNMnMwkEUT7GgLkSwc2bN9OwYUNdEti4cWO2b9/OkSNHGDt2rEgCBaGSUygU9OnTh/Xr13PhwgVeeuklAPbv309oaCgff/wxBQVlL/4hCIIhWd1XWbl9Ge/0a4pLwj7WrdrKWVkoAz/4jT3rxuH/BJ8aFj2CesyRCH7//feMHTsWAFtbW6ZOncq4ceOQy8WuEYQnkbe3N4sWLWLIkCGMHTuWqKgopk2bxokTJ1i9erUYAywIj8ix0YvMWvcis8wdSAUjegT1lHciqJ8Etm7dmuPHj/PGG2+IJFAQBDp06MCxY8cYP348ABs3bmTgwIGiZ1AQBKMSiaCe8kwE9ZPAjh07smnTJnx8fEy6TUEQLIutrS2zZs3ik08+AUQyKAiC8YlEUE95TTG3ceNGgyRw7dq12NnZmWx7giBYtkmTJhkkg+PGjTNzRIIgVBbiHKSe8ugRTEtL47XXXgOgTZs2FpcEJiUlsXHjRnbt2kVycjLp6emkpqaSlZWFCSsRVRparRYXFxcAatasaeZoKgeFQoGzszMuLi64uLhQt25d+vbtS+vWrS2+9Iq+SZMmoVQqmT59Oj/++CPPP/88nTt3NndYgiBYOJEI6imPRGbKlCnEx8djZ2fHkiVLLCYJzMzM5OOPP2bRokWiFphQ4cTHxxssz58/Hz8/P77++ms6depkpqiMb8qUKWzfvp2DBw8yevRoTp8+bTHfIYIgVEwiEdRTPMWcqXoD9+7dy8KFCwH45JNP8Pb2Nsl2jO38+fP07duXmJgYABwcHOjWrRu1a9fGxcVFN4dqZep9ESxH8Wwt6enppKWlceDAAU6dOsWlS5fo1asX48aN44svvqgU70+pVMqCBQto1qwZV69e5eOPP2bWLHENpCAIj04kgnqKewRNkQhqtVreeOMNAMLDwxkzZozRt2EKly5dokePHiQmJmJtbc3kyZN55ZVXsLW1NXdognBP586dY/LkyRw6dIj58+eTn5/PvHnzKsXMOw0aNGDKlClMnz6dOXPmMGbMGHx9K2T1YEEQLIDl/0Q2IlMmgocOHeLkyZMAzJkzB5kFTGyoUqkYPnw4iYmJuLi48Ndff/G///1PJIFChdewYUM2btzIyJEjAfjxxx9Zv369maMynrfffhsvLy/UajWLFy82dziCIFgwkQjqMWUiWHxKOCwsjPDwcKOv3xR+/PFHTpw4AcCKFSsIDg42c0SCUHZSqZSZM2fSrVs3ACZOnGgwn68lUygUjBgxAoAlS5aIcbtCuTt48CByubzS/K1evdrc/1KzEYmgHlMlgllZWaxduxZA10NR0Wm1Wr7//nsAXnzxRVq0aGHmiATh4UkkEmbPno2VlRWJiYmVqldw+PDhACQmJrJt2zYzRyM8idRqdaX5e5KrXogxgnpMlQju3LmT7OxsrKysGDBggFHXbSrnzp3j0qVLgOUkr4JQmho1atCzZ082bdrE+vXrefHFF80dklF4eXnRoUMHdu/ezcaNG+nTp4+5QxKeUKPmrkAms8x04ofXB5s7BLOzzD1nIqZKBIvHBgYHB+tqyFV0p0+fBsDNzY2goCAzRyMIj6dDhw5s2rSJyMhIc4diVK1bt2b37t2cOnXK3KEIT7D6TVshk1uZO4xH4lClKlkpSeYOw6zEqWE9xYmgsctMFH9JW9IYu7S0NACqVq1aKa60FJ5s1apVA0re15VFSEgIAGfOnEGlUpk5GkEQLJFIBPWYqkewOBFs1KiRUddrSsUHTGdnZzNHIgiPz8nJCSgcr1uZEqbi75S8vDwuX75s5mgEQbBEIhHUY4pEUKPRcO3aNQACAgKMtl5TS09PB7CYU9nGkrrlHbq0akWXiRtI0pTSoCCHrKwcDFOJAnKyssgxUX5RkJNFlt7KVafmMqj9QL45WXkSGlPTfx8Xv7crA29vb105J5EICoLwKEQiqMcUiaD+HLyWlFTl5uYCYGNjY+ZIypEmgT9XrOXyrVucX7+CjbF3ZoIabi4djJ//aNbrVSHR3FzKYD9/Rq83QWkSzU2WDvbDf/R6iteuyUvmRtQNUvJKy1SF0ujXvqwsJWSg8Luq+HslMzPTzNEIgmCJRCKoxxRTzOl/OTs6OhptveXlSRofqL6+njUH5HR+9y3aSf5jzborqM0dVCkUzT/h4I1DfNJCYe5QLEZlfh87ODgAIhEUBOHRiKuG9ZiiR1D/y7n4C1uoiFScX7OO4w6dWfjcc+Tsm8Mb61Zz+vUPaCwH1LHsXLKCnbtvotEo2Drnc677d+e5qkdZtXM3NzUaFFvn8Pl1f556YyAh1gAZnNu4hJ/+PExUmhS3gA68NHYEbTzlgIozK2ewKqcb49um8MsPazkcnYWVZyi9Ro3luUYuaGN3smTFTnbf1KBRbGXO59fxf+oNBlTZw8JfLlP3hTF09y6coUaTfpZNS5ez9eg1UjQO1AzuxPMjB9PCo/Ajrjqzkhmrcug2vi0pv/zA2sPRZFl5EtprFGOfa4SL+ElosYp/YIpEsOK5efOm2U7Ze3l54efnZ5ZtC5ZFJIJ6TJEIZmRk6G5bYo/gEyP/GKv/OEeVbpPp6FwN5TMdcRq7gVWH3qZxGxvQpnNp/3Z2n0tGo5ZxekcEsdlBdPLZz/bd50jWqJGd3kFEbDYhYwcSYnWbfz54llHLk6nXqSONamQQ+cc0Bm4+zDcbf2Cgt4rru5bz45ljnPzmKjnB7QmpCWe3f8f4iPOody5jYPol9m/fzblkDWrZaXZExJIdMpZncvex/NsIunQYRXdvGZr4P5nYfyy/xVUlrF0L6iriObRkEqt+38aMNT8xooEC1fVdLP/xDMdOfsPVnGDaF26M78ZHcF69kxVDvMy9B4RHVPwDU/+7RqgY/vjjD8aPH2+Wbb/++ut8++23Ztm2YFlEIqjHlD2CEokEOzs7o61XMK7sfSvZGO1Bj1ntsAfo2o/OrpvZvHIn77V5Cid5Q8Ysi6D3D/1oNt2JKVtXMNAOoA8RvX+gX7PpOE3ZyorCO8naPYspP+fQ98ftfP2UB1JAkxjBpKdH8MnMv+i2oAsA6ivXqfH93yzo74UMKIicRc9u89myJ4MhQ8awLKI3P/RrxnSnKWxdMRA7oOCQfuQZRHz+Hivjg3h7/RreaVKYFBRcWcHLz0xi+ke/0WXlcKoVbozrNb7n7wX98SrcGLN6dmP+lj0wZEi5/J8F4xM9gpahvIYnPMkzZAiPRiSCekyZCDo6OlbqcUqWLY1/Vv9Fovez9G9RdHGMQwee6VaN9ZtXsS2pBwOrPsy503wObthGnHcPuvqkc/li8VWqtejRtR6/rfmLgzmFiaDMuxdDexcmgQCKug2oY6siPjUNKMPFRXkH2brjNm69ZjG2ScnQA0W9wbw9ZDHbv9/CjttDeb5wY/Qa2rswCSzcGA3q2KKKT32I1yZUNMWlcUQiWHF51GvAxF/KZxrA5e+O4cwuMeXgw8rLyyMrK+uhn2djY4NcbtmplGVHb2SmTgSFikmTsJk125NRFaxkVJMNuvu1uamoM/awelMcz46sWfYrqzTp3IxJQXV1GSPaL7v7cStnopI0eAMSZzeqygwflkjK/qtekx5LbKoEb38/bA0ekVPfvy7WqkvciC0qMyNxxq30jZXxhQkVkTg1LJhDfHy87vayKWOQGHkihvJSPKvI8OHDdfN3P4yIiAi6du1q7LDKlUgE9ZhiZhGlUgmAlZVlTr9T+am5sWEN+3L96D/pJRrrn73XprJ/8Vx2rlnH1WFvUF92z5UYktphb2+FPGgUvy4YgtedbyeJLdU8pBwAeMzfHFJra6ylkJydw53pXF52DipssLEpDkD0SFdG1tbWQMl3jSCUh6SkkmnZzu77x4yRCI9LJIJ6TDWziFCBqS6yZu0RtOEfMOWNMfgaJHsqmidvZfv8dayOHMf7oWX9gWBLSIgf0gPXSHCtTyeP4uepubHlKxacrMPIyb2ME79DCCF+sGdnBJcmNaJh8Sdak8Df24+jqtqLxj5yuGaczQmCIADIZCVflvWbtkZqoadHLx7aA0BY9360H/JKmZ/39TAjfYdXAJa550xEJIIlinsw8/PzzRyJaRWcXM0fZ61o/llfat/V4ycn+JneBMz/mj9WHuKt0FYorOWgvsLeVZtwCg6jS9OaSBXWyFFzZe8qNjkFE9alKfUHjaDT4olMHz0d66kj6egrJ+6/FXw8+WsudfmZd+VwqUwRKijc5F5WbXIiOKwLBhMVygMY8nIXfp74HWMmuPHp693ws4rl358/YdrfSkLeeZn2dvCkl54uKCjQ3Ra984LZqW5ybce/JGar7urJLyFBIlOgcPKgmn8IXjWcKlTh34YNG+puj5q7HJncMj9XU3uGkZWSRMO2nanZILjMz5PJrVCrKkcvvEgE9YhEsETxbAWVe9xRDgd+38g12zaM6+VZ6pesPOAZegfPZdbmVez6oA3d2valR+1prJv8Mn90+YZzv72As1tb+vaozbR1k3n5jy58c+43Xqj5PF8tucWbE+byWvfvCr/sJfb4dp3CD1O74kxBKVsrhdSNtn17UHvaOia//AddvjnHz3X1G8ioNXgeP6VN4M0vpzBg5TuFd1t70nrsD3z3ZjAKIO9x/k2VgP60cpY0w49QOWkyL3F55zZuZKWQdPY0qXkAtrgGhuPuXPiLVKvKIzfpGvHXb6HU2uDSeBA93p5MWB1RfUIwLpEI6hGJYAlnZ2egcs3Lejc7Osw5QcKc+zSR+TMxIo6Jxcv1hrL0v6F3tKnH0KX/YXivlGqtJ/DroVHcPHeG66lanGoHEujtVHSFsA29F14h7q6Q+rLoal/9lVNv6FIMNzmdQ3HT9TblSotxP3NoeDznzl4jRe1AzYBAfFxKPt42vRdy5e6N0XfRVfreeXcllJaWBhSOp3uipk0UKiSpaye6z+oE6etY1u8tUgHsWtP1qx9p6qzfUkP2yTksfXM+MceXsfrtAmyXfU6AuPZQMCKRCOoxxRRzlqq41yQ1VZQWeSxSB2oGtaBmeWzL3pOGzTzLY0sWp/gHjaurq5kjEYQSyjP/EVPUXS+r3wzfuyafkmIf1At/74XEXFKhid/KyaMfEdDR9s6GgvDIKtKQA7MTPYIlateuDUBcXBxxcXd1JQmCRTly5AhQ8r4WBPMrIP7kcbI0ADKqhjTDubTKBOpYUm8XzXqu1aBWiXJPgnGJRFCPSARLtGrVCjc3NwBWr15t5mgE4dHl5uayceNGAPr06WPmaAShiDqBqNPRhRdySaviHdKg1FN0qouHic4oSv5sgvENFEMbBOMSiaAekQiWkMvlvPjiiwB88803BsVDBcGSzJkzh+TkZORyOUPEVHpCRZF1mKjLRVed2oZSJ7i0BC+d+2xtkgAAIABJREFUS39uJVkNYI3ns2/SpIY4bAvGJd5RekQiaOidd96hWrVqZGdnM2zYsEp+BbFQGW3cuJFvv/0WgMmTJ+PpKcZQChWD8sxhbuYW3pb5hd89PlCZwNVfJ7FxayxaqRNe/b9i2JhmiP5AwdjExSJ6RCJoqEqVKixYsICBAwdy4sQJnnrqKb799lsaN25s7tAE4b7y8/OZO3cuc+bMQaPREBYWxqRJk8wdliAUKSD+xHGyis74SuI388fb+4vm/tGgyk4i+epF0pSueDQfytPPj6JFs1rI1Vc5/vVMDh65jLbtbMa8Fi4O4sJjE+8hPaaYYs7S9e7dm59//pkRI0Zw8eJFunXrRufOnenduzc+Pj44Ozvj7OyMk5OT+L8JZpGXl0d6ejrp6emkpqZy6NAh1qxZoxvO0LhxYzZv3qybik0QzE6dQFRk0fhArPHqNpZ24fZFD0qQSBVYO1enirc39gq958nqEjZuBNGDRpNWs444gAtGId5HekSPYOkGDhxI3bp1ee2114iMjGTHjh3s2LHD3GEJwn1JpVLeeust3n33XWxtRbkNoQLJ+q9kfKCsPn7dO1G/btkOx+obh7mRUp9GIeYtjK5SqXS3czLSkVnoFHPaorJxEYu/5uC6X8r8vOJZRW7cuGGSuMqTZe45ExGJ4L01adKEAwcOsHXrVlavXs3u3btJTk42d1iCYMDa2pq6devSt29fhg4dio+Pj7lDEoS7KCOPEFM0PlBSPQzfWmU9FGvIOnmU2+5N8PUsrdZM+Tl//rzu9rSeYWaMxDgSo6+SGH31oZ93+/ZtE0RTvkQiqEckgvcnl8t5+umnefrpp4HCAtyZmZmkpaWRkZGh+/8Jpfv111+ZN28e/v7+LF++3NzhVBoKhQIXFxdcXFzErCGCBSgg7uRxsgvnncQmsBk1FQ96TrEcok+dQRH4EjWsQBn9Nwe3XyAr9jzajp/Sq21V04VdyVWt5fNQcw2f/OdPgEox5EQkgnpEIvhwpFKpboyg8GA7d+4EwM7OjkaNGpk5GkEQzEIdX1I/EAVeoeGUOQ8sOM21M0pqDm9M7uElHLoeQKsXwtk++HtivJKgHBNBLy8v3e0Jy7Ygk1uV27aN6csXugHQ5rkRtB00oszPi9y1DbVKSVBQkKlCKzciEdQjppgTBEEQTEKZTU5OLurbEVzSjQ/0xtMHcjKysXGyf+ABWX3jMNHJbjhfX85R+750HFgfBWp6LNqLxK26yV+CvipVquhue9ZrYLGJoEOVqmSlJOFQxc3coZiNSAT1iB5BQRAEwfg0nJ3RjhURGUjlcqQye6ztQKuJ4eCE1uzXeND86x30a3a/04yF4wMTnb2oURBPzKYv2JY/ke69ArCtVr5JoFC5iERQj0gEBUEQBOOTEjj1GDOnPs46CscHWjeZRd9J3eG/95kz+RPcwn+ltd05rsf54ON3Z1VqQXgwUfhNj0gEBUEQhAqpaHygV2gYckBqb4+V3AlbO8jct4nLOZZ5alYwP5EI6hGJoCAIglARaW6fIT6zEX5NqyAF5D4dCKybwfXNC9kTF07zRpZ/9apgHuLUsB4xs4ggCIJQEUm9hjJs3YvYOBfVD3RoRc+FTchOzMSqetWyX3ksCHcQiaAe0SMoCIIgVEw22N1Vqcsa++qiJ1B4PKLrS49IBAVBEARBeJKIHkE9lSURXL9+PZMmTSIjIwMnJydzhyMUycrKAuDMmTPUrVvXzNEID0utVuumk1q/fj3du3c3c0SC8BhUeeRJbLAx70x1QgUgEkE9lSURzMnJIS4uDrlcrks+hIpDqVQSFxdn7jCEx1BQUGDuEAThkWkSVjGs2VDW2r7M2v8W0MvF3BGZX1ZKEsmx0WVuX5wv5OXlmSqkciMSQT2VJREs5uLiwuzZs80dhlBk27ZtrFq1itq1azNt2jRzhyM8pNTUVCZOnAhAjRo1zByNYEkSrlzg3L87ymVb5//d+cA22vQYopOV5FtFE5etAZfHGyV2YP0vyOSWmU5kpSQBsOGraWz46uG/l8+ePUufPn2MHVa5ssw9ZyKVbYo5W1tbnn/+eXOHIRRJSEhg1apVVKlSRewXCxQbG6tLBF1cRBeK8HB+fvtlc4egI/OfwJr9oZy1CqOD16MlgefOndPd3jDnsSplC2YmEkE9la1HUBAEQTAfKysrHBzMM9uHtfX9riaW4R7aBffHWL/cQnsA76XlgJfoPGxcmdt/+nQLAOrUqWOqkMpN5dqTj0kkgoIgCIKxjBkzhjFjxpg7DJPw8/PT3R46YwFSmWXObPLz5FEA1G3cHFf3sg/5kMmtUKuUuLq6miq0ciMSQT0iERQEQRAqPzW3I/dx3iqUNg1cHruOXFD77sjklpkIOlSpqhsn+KQSdQT1iERQEARBqOzUl+byXMtOdGz5EkvjNOYORzAz0SOoR0wxJwiCIFR2EkdParjIsbKpgbutON496UQiqEf0CAqCIAiVndRzML9d7UOWxAEHMUnxE08kgnpEIigIgiA8EawdMM/1zEJFIxJBPSIRFARBEIzl2LFj9OzZ0yzbbty4MX///bdZti1YFpEI6hGJoCAIgmAsKpVKNz91eUtNTTXLdgXLIxJBPSIRFARBEEzh+alfI79vkWfj2PPLQmLOnTL5doTKQySCeirbFHOCIAhCxRDcqSdW1jYm305KXIxIBIWHIhJBPaJHUBAEQRCePGf2RJASF1Pm9mqV0oTRlC+RCOoxVyKoVCrZsWOH0dYXGRkJQG5uLtu2bTPaevUFBwfj5eVlknU/qpSUlLv+j23atMHT01O3nJSUxK5duwzatG3bFg8PD91yYmIie/bsMWjTvn17qlevrltOSEhgz549REZG4ubmRkBAwAPju3DhAgDp6ekm2y8PUhH2W2xsrO5/UaxNmzYGc6PGxMRw6dIlgzZt27ZFoSipdXHjxg0uX75s0KZ9+/YGc6BGR0dz5coVVCoVJ06coFq1ao/8+pOTk3W39+7de9e2jS0wMJBatWqZdBuC8Kj0xz6unjHZYuvvFs8qcvKfTZz8Z9NDP//YsWN07drV2GGVK5EI6jFXIpiTk0O/fv2Mvt6kpCSTrBfgp59+4vnnnzfJuh9FcnIyq1evZuLEiQb3b9iwwSARvHz5MkOHDjVos2XLFoNE8MKFC3e1iYiIMEgEz549y/Dhwx8p1mvXrplsvzzI0qVLGTx4sFm2XSwiIoKxY8ca3Pf+n4dwqlry/z247nc2fDnVoM1H245h71wyr+e/q37hz2+mG7T5ePspbOwddct7fvmZrfNnGjN8gLviN4UFCxYwYsQIk29HMId8EnYs5sS5dNTa+7WTIJEpsHJwo4pvCHXDw3C1La8Y7y8hIUF3++iWtWaMxLzs7e3NHcJjE4mgnooys4idnd1jPV+tVqNUKpFIJAa9LMaQk5Nj1PUZy969e3VJoEOVqrr7t8RkcfFkvG45Jird4HGATdGZnNFrEx2deVebDdGZnHAsaXMtOvOuGB53v5lSRdlvO3fuZPr0wuRNKrv3149EIr3v42VuI5UglcnRqFUG9z/Kvir+fijZvml+MFaUfSWYUh5Z8TdITcigIPY45y8kogWw9qZOqxCc5IXvLa0qj9zka8ReuEp2gRapUyChoz+n74BGmDsf1H//12zQCJncMtOJ6DPHAWjUsSetnyv7j/vvxw4CoEGDBiaJqzxZ5p4zkYowRnD37t0EBQWZbfsPEhQUZPBLsKKxc3blwy2H7/l4rYYh930coHZw2APb1AlrTssBQzm4bjlQmOA0atTo4QMuJ8HBwcTHxz+4oYnt3buX+Ph46oW3ZtS8Ffds16L/C7To/8J919V64DBaDxx23zbthoyi3ZBRnNqxlXPHDnPyj+UV/jMWHh5OVFSUucMQTMqZei9+QT0KiJ7XgwtFiaA8+BUGfzYU5zv6IlQ317Nq3NucunWW43NeReu6mUGdqmLOLgv9z9D4JX8gk1uZMZpHN7VnGFkpSTTq3It6TVqW+XkyuVWlGSdomSf1TaQiJILCo6lfvz4TJ06k9XP3TwyMqWG7roT2f7TTw0L5CurQnYBu5jkdLwj3pL7JtdM3KKxXIcc9tBkOpRyV5TWfolGIAxIATQJn/9pNXrkGKlRmokdQj0gELVdQUBCfffYZ806WX69X3SYtyVE4cHL9z+W2TUEQKpGMI1y/WjRsQeqBd2NfZKW106SQnpRL8eAEdU42Sg2iK0cwCvE20iMSQUEwLZlMhpWVFbIHjO0ThCdBQeRhYoq69iQOjanb4B5junOOE32leJyrDFe/QOzF0VswEvFW0iMSQUEwrQ8//JCMjAxGfv1TuW63IDeHgtzsct2mINxfAXEnT5BT1M0na9AMn1KvANGQuX8LVzKLjk+OLWj9TGNxOk8wGvFe0lMpEkFNBtf2b2XT9iNcjkkgPjGFPLk9VWv40ahldwb0a4+vg7mDLEeqWKJ27ONWtvo+jSQgU2Dt7E5VvxC8ajiV6RdSQV4uBdlZjxBUPqdXfMySI9lI5FYorOTIZFLQqFGrVSgLlGiqd2HClKfx0TtPlH1sCZ8sO0WezAprhQK5REN+Xh5Orccx9Tm/R4ijIsknYcePnDz/4HIaSIvKadQJoW7TxmUqp7Fy2gQu7N/5kDFpSL2wnyM3ClBYK7BSWCFDg1qlRFlQQAFVCW7fGM87v0XVtznz7wniVdbY2CiQoyQ/Lx+rWs1o7ef8kDEIlZb6JlH64wNDmpXay6e5vYO/l/xDthawrkfTd2fRsnapJ5AF4ZGIRFCPRU8xp0nlxG+fM232Sg6me9Jh4GAGDH4Ofw8FWTfPsuf3BXw3cRFfzmzJq198x0e9aleqnb9hwwZeeuklbJ1d+WDzf7r7NZkXubTrb2KyUkk6e5rUPABbXAObUt2p6MtUnUduUhTx12+h1NrgEjqQ7m+/Q1id+5cY+fv72bqrhh+OGo3cDgc7NTlXdrJ8dxQqAKk7TZ7pQaibI3bVXbG/422o0VphK7nJ9tV7iVY64tu8Lc0a1KGem+XXsYJ8suNjSCkqp3HBoJxGIxz1ymnkJUfpldNoSOjoGTzd3wTlNDQp7Fn4EZ/vSyY5Po60/KL7pTa4urtTpVorJjaYyyAvw6O3OvZv5r47ix1R8WQoAZkdVdw9qf/8V2x5r7WxoxQslf74QIkjTvKbXDlYNMZZq0aZmcDtc/s4tW07celSHAMH0mXCuzQPchWn8gSjqky5wGOz1B5BTcoBvn71Vb7cfQvbxqNY+scH9NZPYoLDaNOzHz1m9qPflwdZMHoIql+3MqN95emd0Gq1qFQq1CrDenFS1050n9kJ0tezrP/bpALYtaLLnMU0NXj5GrJPfsVPExYQc2I5ayYVYPfzDBo4YgJ2hA7+gNDBKk582pHfdxfF6tmT9779kvb3GCYksbch9/xF8oNHMvfzKTzfuErpA8stkhN1X5xJXQqI/rYnFy9QVE5jJM9/Wlo5jT9Y9fokTt86x/E5Y9C6bmJgRyOX05BW5Zmvd/EMefzzRlNe+DUBDSD1eoGlh2bR9h77Seb9IosP9GX/B90ZHBHKnN++5Ll6FbfGpGAe+uMDAZIOLGLXoeIlCRKZNdaObvgM+JBOLbsSEFwDyyzQIlR0IhHUY4mJoOb2bqYPGcl3JzKwDhzN0t+m06FaaYdDB5qMHU/Pn0ayLvkiyz5dzIut36bhE/IOUJ4t+dKV1WtWyulxKfZBvfDzXkTMJRWa+L84cexDGnQwYdlWTRyHDl+hOHV1CGtJ49KSC00S/y2awoS5kdQb/T3/vN7u7tORFiIiIoJdu3Zxw7oazZ8pZYYT9U2iTsfoTpdVD7lfOY2PiYzIQKtJ4Oxfe8jrOADTpFsKgoLrIyeBAkCTcJFzSRraet077czYN5N3fpEwdMVMkQQKpSgg7uRx3fhAac3+PPvdh/iKTE8wA9HDrKeizCxSZuoY1kx6nfknMtAqAhk95/17JIFFHEIJ9S/MIPIjI4i4dr9xc5VJAfEnjpOtAZBRNSQc59K60tSxpN0u+p9oNahV9x2s9vgyDnEwsrggqYJGLZtzZ36af+NvZgzswog1Doxb/Q/L37TcJBDgwIEDfPPNN5zeubX0BhlHidIrp1H7nuU0ku8op5GFSnPv7Yb3GUjYcy8/YtRS3BoG4FUciOoSZ88W3Lt52k4+m/Qr8hFzmNLW6RG3KVRq6hiiThX/4JFgGxiOl0gCBTOx4EOK8VlWj6CGm6ve46MtCWiQUO2pN3kt7EE9D9ZYF+9xTRxR0SrwqxwnF/39/Xn33Xc5kaa6+0F1AtdPRxd+6Uqr4h0aUOobX3XxMNEZRamFTTC+gTb33WZQxx4UyK05tmrxI8Wcd+wgx4svZJXXp3lLD71fZpmcW/kxb0z/G/tBM9nyTi987x9OpVBw5jA3deU0Qqlzz3IaJwzLadQPxO4+v4EC2nRG5ezO8TVLHikuRUAQ9RUQlQtoU7hw9gbqbn53J6maFCI+mcJq+1dZM6nFXYm9IABo0vV+8GBDzdAmZT8Y58Vwdddekh2aENS6QdH7PpvE/f+Q5vOUSeItjf6Uixq1GonEQjpQ7lD8Onat+IETERvL/LziWUViY2NNEld5EomgHotKBPMO88PcCJK1gLQWfV7qSdUHfQ41ccTfLvrwalWo7395pkVp2LAhH330UekFpbOOEHWlqOfNNoQ6QaUlF+lc3ryVZDWANZ7Pjqep5/3/ob6hzciS2T5iIqji/MEjJBX1YkmrN6WlX+HHUX37EAsnv8mXx3wYv3A7/2vjXonGAt5PAXEn9Mpp+N+vnMZWruqV02hl6nIajgE0rC0n4oIKUHHl7Dly8bsj0dNwe9s03t3gwth1E2kqzggL96A6c5ibxRcfyfzwCalSttNzqssc/n41ki4dSf5yCKvT/mJoH3ekmRH89eFbRHdyoJ2PCQPXc+bMGd3tKe0svWoBxF48Q+zFMw9ueIeKPOVqWYlEUI8lJYLZe39nQ1ThaUypVxd6tyhDd1HuFS7fLPoVKnPHy+vJ2P3KM0eIyS28LfMLx+fObhplAtdWT2Xj1ji0Ukdq9P2cl0Y34x59UcahiePQ4at3jA/M5/pfs5n4znz2xiuReoRRP7ByJYEKhQIHBwesrEt5v6pvcj0yRq+cRvg9ymnsJGKpXjmNKTNNX05DXp9Afzu4kAFAzsWzXFE9Q6jeR0hzazNT39uMx/hNjG/8BHTfCo+ogLgTeuMDazTBt2ZZ3r8asnauID5kIn3qHmVtSi75OUU/cB170WPkSpZeu8/4COG+XD29cPcte0J74cAuAORyyz+OWv4rMCLLSQTzObHzXxI1ABJcWrSjSRmyloLTR4ksOhUpqRJMaN0nYfcXEH/yWGHSAEjiN7Ph7f1Fj2lQ5SSRcvUSaUpXPJoPpc+gV2jRrCZy9TVOfDOTg0euoG07i9Fjwo37YbljfGBwqAubJ/bi0z+vk5tWeL8mYSNf/ziW7pOCKs0H9b333uO9994rvedWf3ygxBFHq5tcOVj8a1uFMuMWt8/v4/S2HbpyGp3fnFymchq5mRnkZaQ9RuS2BAbWRb7xBCpAFX2O85kQ6lr0sCaeDe+/T4TPW2weG2TaHxGCRdLk3OJ2XD5qZTSnjhT/4AGrGu5Ir18i0dEdNw/n+/7wk/g+R5vaTuTt3cj57HC6daxR9N5X4NYgGF95AKiiTP5aADw9PXW3X1uwCpmFJkTfvToAgLaDXqb94FfK/Lx3WtdFrVISEhJiqtDKjWXuOROxmERQk8KFi3G6npOA0NAy1FBTcXbXv8QWJY9u7XrQuhKdutJqtWi1WjQajeHFPuoEvaKtCry6jqVdePELLyok7VSdKt7e2Cv0ViirQ+Oxw7k+6DXSatYp9YOSl51JbnrqI8VrMD4QLafnjSOxw3iW7uvCsVFdmXYwB8jn1NKv2ThsMQOqW+b4m4dREFkyPhAgef/ie5TTeJ+OLR6unMaaTyc9QkFpfTK8AxtQRXKCRC2Qf4kzFwqgpQLQcHPNu3y014/Jm0fTQPGgdQlPoqiFQ/j5z1tI5FbIZbbYOEhAq0Zz8isWDp+FttoQRqz+FP97vn+k2NcPxp50TuzYiyr0PYJ044HUJF/Ix72lJxwsn9dTtWpV3W3fkKbI5JZ5tYtDlapkpSThVLW6uUMxG5EI6rGcRDCN1OKLGiQueNcuQ/20/JNs3HK58FSkrB4DR3ShMl3PuGHDBoYMGYKdsytTtx0reSDrcMn4QJkfft07Uq+MPaHqG0eISa1Ho0YupT7+z6KvH7GgtOH4QIljA575fAGfDArAEQh68zmW/reMGxrQ3t7K3EUn6f1BWCXvZTKcbktasx8DvvugQpXTUAQGUl8OiUpAHcv5s8loWnqivfE77378H0Hvb2Wkn/hKFUpXd8IOZk4xwpCBgjNcP5+Hx7MtSoZO5J/k9C0/wnzkRJZTIihUHpW/m+EhWEwiKHXCyVGiu+3s8sCrREj8cwErr6gBKR693+K18CdjDJMy8gg3i8YHSqqH4VurrAdqDdmnjnHbvQk+nkYef3bn+MB2Y5lWlAQCOHZ4ndfaFA9kVHJ+2Tesj6/kY38M6gdWzHIa0mqBNPAo/qypuHTmHEp1FCvemc7xph/yxYv3KHUjCMYkUSC3kmBlU3weKJe49RuQdhmAm3gDCo9AJIJ6LGaKOWk1ggK8Cg86mlRSkotTinxi/1vLonnz+WXPNXKK7tUkbWfW7K0kaUFe+1k+/bQ/D7ggtpIoIO7U8aLxgRJsGoZTs8yn7XK4fvIMisCm1LACZXQE+5bMY+v0sWzZl/R4Yd05PrBlCwwmMJH5MmTC89Qp+lLXpkYw7/vDuv1pybZu3crEiRM5sNawJ1WTrjfdFjbUDA2reKcrrAMI9Ct+A2lIunia/UsmMeNMK6Z9/jze4iAslAerMNqMHoDyn5ns+XMV+xbOJtJtGO1DKtFYH6FcPRHpQFlZTI8gCsIHPkugNaBNY3/Ev2Rosjj21WCGfHGUPDsNZ78ZxrBFF1HlX+KXiRNZcVWF3LMHn634imeejCwQ1PFc140PtMIrtGnZp2gqiCTqrBKvkMbkHV7Kzv8cCX0hnIITu7l2+fESwbxjB/TqB9aleXPPuz6I9q3HMa6jE4XvRBVXfpnDqhuWXwD88OHDfP/995zd+4/B/aozRx6tnAZAXgzXtv3G4X0XyNF1nGaTeGAjl2ILCz+36PcC4UPGPGb0TgQ2rKXr9VOfXcjYzy/T8dMZDLjPLCOCYFwyXLt8xrh579MouCWNR3xE9271Kt4PJ8FiiG8vPZaTCIKi8et8ObktblINsas/ZMrvy1iwqQ5Tl89k/Cv/Y/onT5E073+82PcZ3tmagnuHt/k14mdeblg5Twk3bNiQqVOn0mnYWFBmk5OeRGbUP1y8XDw+sDaePpCTkU0pJafvor5xmOhkN6TXl3M0oy0dB7bE0aYZ3Rfu5tXhDQBo1KUXzV4Y+5CRqjh/8GhJ/cCqTWkRUMpXuLQWgya8RL2ih7QZe1kw/1+yHnJrlsGwfqDUMwxfrzJ2r6mucOSHFSR7+ZCy5EVWb7lVmPhnRrDtw7dY9dNeAPxatKNe2+6PGacCv0B/3YVZ2pxUbHvNYPrTHuKLVCh/1m64+XjjIC5OEh6T+BGhx7KmmHMgbPyvbKk7l0++WMYfb0xFqahF8pTJ/GOTSezZQ0TdiiHK5Wkm/fQ2o/oE4ISG28f3kVCnNcEPHFdoWfz9/ZkyZQrzTl7j7Cft+CUiA6lcjlRmj7UdaDUxHJzYlv0ad5p9tZ1+ze536UXh+MBE5xp4FsQT8+ds/s6fQLdeAdhWK7myrHZwEzJQcPjXBQ+MT5MRz9X4NApyolm3o2R+YStfT2yvnOeSkzs+3lXQnXjMiueGXQs6ByzmcmQBoCZq5ed83cmZgf5e1PaphqWn9JqcWyQnpqMuuMFp/XIaXu5Ioi+R6PCgchoasnb9QnzIm/Sue5R1Kbnk5xb9Zx170X3EKn6KMm7RdNvAQOrKN3NKBXLfIcz6pCdPwAXdgiBUYiIR1GNJPYKF7KjX612W93qLlCunOH7mGgmpWRTIHWjV3pPbr8zlRIEd9UN8cdJkcX3fj7w7cQet1mwguPQLYSsBWwI/OsLnHz3OOgrHB1o3mUnfSd3g8Ad8NflTqoSvoLXdea7H1cbH72EmD8vn4OdPM2BpDFIrBVZyW5ycJIXzGZ+cy4Auc6DqQJb89y1P2QMUcHR2f55ecA2srLBzcEQuk6BVn2PhiB58p2jDjH9X83JNy8tAbG1tcXNzw8benmsLnmPJhgQkcitkMltsHACtBs3Jr1g0/Au01QYzfNX0+5TTAInPAFrXdiJv7ybOZzelWwfPO+qqNTBq/HLfYAJcJZxKq8uwWVPpVsXy9oEgCII+kQjqsbxEsJiCKvXC6VIvvOSujF/5TQqqa78zsskarK205BdocOoyhy99xKj2+yoeHziscNoyjZ09VnJHbO0gc98mrtSYyMPN4mRN68+PkPB5WdsraPbxQRI+ftjAK77JkyczefJkXUHpz99+nLWV1FU7uXMfqtApBBrUVSugesvCordZqclkpzzmRT4ANh1587uvaClpzYBOlfbXlCAITxCRCOqx3ESwFNZe1KgqhTgNaFXkF4DEIZz/vTeIyjiuXa1WU1BQgDIvDyubxztpqrl9hrjMYIKaFF6wIPXpQGCdb7m+eRHxOeG07V54WjknI43s5EQjRC88loIzRJ3PxWOAfl21U0Qm1qexT+FX3PqZ7z1mQeli1tTr/BL1jLAm4cnyQYcA5ArTVwNV5uc9uJFwl7zsbLLSUsrcvjhfUCqVD2hZ8YlEUE/lSgTDGdDfn1XfnScPkLk0ZuTcxYxvVDnLEm/atKn0gtKPQOo1lGFrX8DGuajn1KElPRaGkZ2YiVX1qrpxfDuWzHvEgtK6MMF+AAAgAElEQVSCUUkUyOVSrGyLy2fkErd+I5LOk0VdNaHC0Gq1lTZJO/73BoudWSSr6EzB2s8ns/bzyQ/9/NOnT/PUU08ZO6xyJRJBPZUqEcSeVh/9yY4Ou4jMqEJQqzY0qCqOimVjjZ3z3ffZV6+cSbTFswqjzej+/L5mJnsVzZHFXSS3zlA6ibpqgpn5+/uzZcsWs2zb2fmuLzGTWfnJW+W2LcH4RCKop3IlgoDUBf8O/fA3dxyCUOTPP/9k27ZtJDrWoO3zI420VhmuXT5lbNtkkuOzse4+UJTUECoEFxcXi+8tuheFQoGXl9dDPy87O5u0tDQAHFzdjB3WI+s6cjz1mrYqc/vZg7sC4OPzcCPGKyKRCOqpdImgIFQwx44dY+nSpdQLb23ERLCItRtuPqUfWFo9NwznuoH8t/xb425TEJ5QTZo04ebNmw/9vC1bttC7d28UNrZ8vO2ECSIrHzK5FWqVEje3ipPMPiqRCOqpCFPMLVq0iKCgILNt/0ESEhLMHUKpgoKCmDFjBv8lF84kodVqObplrUEbL/8gatQP0C1r1GqO/bXeoE3NBkF41itpo1YpOb5tg0GbWg1D8KjjR2j3vmgdXDm0bC6LFi2iUaNGxn5ZRhMfH2/uEAykJ94dT/yV82g1JXX/7F2q4Fzdw6BN3OXzoC1p4+DqhlM1d8M2l84ZLDu6VaNe01bkWjvx3/JvK/xnLCoqytwhCILwBBGJoJ6K0CP422+/mW3blqx+/fpMmDBBV5YEYO1nhgN/u7068Y5EUHVXm55j3zFIBFUFBXe16T3+fTzq+FGrYQhpaimHls1l5cqVrFy50pgvqVJLirl+130LRg+kICdbt9xuyCv0+t97Bm2+e7kfamWBbrnj0Nfo8dokgzbzhvfRfZYBurw8nk4j/qdbFp8xQRCEEiIR1GOumUWkUinBwcFGW196ejo3btwACgcMe3t7G23dxVxcKmYNtfGhhXXjtFotP9wxdqNHg5q8VvQ4QH5+PovvaPNUQC1e0WuTnZ3N0jva9G5Yi2GhnmRnZ9PxtY8ea9/l5ORw9epVAKytrfHz83vkdZWFq6urSddfVq+NGaPbV8WmSyUU6C2HVXe4q82HEtCfcbmp+91tptyxreYejrzi50znR9xXGo2GCxcuoFarkUqlNGjQAJnM9BdeVZR9JQhC5SYSQT3m6hF0dHTk8OHDRlmXVquladOmuuWMjAyWLVtGQEDAfZ71cLKzs9m/fz9//fWX7j4PDw9CQ0MrzPhKiUTC+fPn79vG2tr6gW3s7e3v2cbe3v6x91vv3r11iWB+fj5Tpkyhf//+j7XOe8nKymLHjh2sXr1ad5+rqysdO3ZELi+fr4IpU6YwceJEFIq7r+Yo/j8UK61NTEzMA9vcOXzB2toaa2vrR95Xs2bNYtq0aUBhUvj0008zderUR1qXIAhCRSMSQT0V4dTw41q/fj3nzpWMkdJqtcyYMYMVK1Y89rrPnDnDjz/+yG+//UZmZuZdj4eEhDBq1CgGDRqEg8PDTMH2ZDp06BA7duwwuG/GjBn069fPqO/ByMhIFi9ezO+//05WVtZdj9eoUYMRI0YwfPhwatasabTtlsbGxgabexT8dnJyeuDzjdWmrDIzM5k3b57BffPnz2f8+PGix04QhEqhEs4x8egsPREsTvrutG7dugf2fN1PWloazzzzDOHh4SxcuFCXBNrb22Nvb4+1dWF9vVOnTvH666/j6+vL8uWi0PKDTJ8+/a77zp49y/r160tp/fCysrIYOHAgzZo1Y/HixWRlZSGTyXB3d8fDw4Pq1asDEBcXx2effYafnx8ffPCB7qIpARYsWEBKiuFsA6Ulh4IgCJZKJIJ6LD0RvLM3sNi9EsSyiI2NpWPHjvz9998A+Pn58cUXXxAbG0tSUhJJSUmkpqayd+9eXnrpJWxsbMjKymL06NF8+umnj/V6KrODBw+yc2fpU57NmDHD4GKHR5GcnEzXrl35888/gcLCtl9++SUxMTFcv36dqKgooqOjuXDhApMnT6Z69epotVrmzJnDsGHDUKlUj7X9yuB+Cd/8+fNJTU0t54iE/7N312FVZG8Ax7836AYJQUCxxe7uQuzAznXXXnPLWHt33bB+xlprBygqYne3Yiu2ICIiJQ03fn8gyJUQBQk9n+fZZ52578x9L3PjnTNnzhEEIeeJQjCVglwIfqjY+5RWwTdv3tCxY0fu3buHlpYWK1as4Nq1a4waNQpzUyl3T+zGe+8lXqgk1KhRg+XLl/Pw4UNatEgaaHP27NksXbo0W6/rS5VZkXznzp1stQrGxcXRrVs3rl27hlQqZeHChfj4+DBixAjMzEwIv3uC3d57uRSgxNHRkWnTpvHgwQOGDh0KwLZt2xg7dmy2i9GCLr3WwGSRkZEsWLAglzMSBEHIeaIQTKUgF4IZtQYm+5RWwfHjx3Pr1i1kMhnbt2+nT58+7/42qgdsGtsDt37zOBP/bhsLCwu2b99O+/btARg3bhzXrl376NfzJcusNTBZdloFZ86cyblz5wBYv3493377bar3tIoHm8bSw60f81IdOG1tbebOncuECRMAWLlyJTt27Pik5/8SZOXyb2aFoiAIQkEhbhZJpSAXgubm5hqtb6NGjUKhUDBixIiUwXNlMhkqlSpLw+MEBwfj7u4OwO+//07z5s2znItcLmf16tXUrl2bBw8esGzZMtEymIqxsbHGmIM//vgjfn5+9O/fHxcXl5T1UVFRGBkZAaBSKAjY6I1xxdKYVCmX4b7j4uJYvXo1AD/88MNH3YEskUiYMWMGPj4+HDlyhH///fez3cGc34WGhjJ79uyU5Q0bNnDmzBlq1KjBoEHvZkQJDw/H3Nw8L1IUhAItIS6WM9sKbl9ypSIxr1PIMaIQTKUgF4JNmjTRWB47diwKhYIWLVrQqlWrNPGqhESer9uJWqnEcUiPNI+vX7+exMRETExMGDx48Efno6+vz4gRIxgzZgzu7u788ccfuToJen7m7OyMs7NzynLyZeIKFSrQoUMHjViVQkHAhl08+nsVsc9eUN0z8ynStm/fTlhYGDKZjBEjRnx0bhKJhDFjxnDkyBFOnTqFr68vpUt/fbNVOzo6MmDAgJTlixcvcubMGZycnDTWC4Lw6bb/NTmvUxAQhaCGglwIZlVyAfjon/+Ie/6SYmP6p41RqVi5ciUAffr0QU9P75Oeq2fPnkycOJGYmBg2b96c0gdN+LD3C8CsWrVqFQAdO3bE2tr6A9Hpa9q0KUWLFuXp06esXLmSv/7665P2IwiC8D5DQ0ONE+GCzsDAIK9TyDZRCKaSH+Ya/lzeLwAzExISkjLfadeuXQGIun+Cw7dCSBlYRPWMh1FqULzEx3s7cq3kByToOtahTTUbjI2Nad26Ndu3b+fChQuiEMyCTy0Ak129ehWATp06Ja2Ius+Jw7cIeXfgePYwCjUKXvp4s/3dgUOi60id1tWwkUrp3Lkzc+fO5caVqyhj4z74vGqVCtRqZHq6SHJh1g1BEAqmRo0acevWrbxOQ0hFFIKp5NUUc5+TOlHBsxUePP7nP+ICgtI8roiMIfa99XEhISn/Trqcq+TFzin0nXqJtIOKnGP+gHOpliXY9PPkybKkvm7Jg/saRMcTeftBlvOWGxmg52Cb5fiCTgYYXbzHyaUdMi0Ar3Qfi0SWyftTlfQeTu5bqHyxkyl9p3IpndFgzs0fgMaRs+mH591luOiSMiB4Z983HLSqk+XXYeXSkGoe4m5aQRCEgkIUgql8SZeGZWpoJTFFPfIv7oREZBjnv2or/qu2aqyLUL9fNUiwbDyM2b91ejfPq+olhxYt4lhoBfpM7k45+btYA+cyaZ6n+hV/Ttd2y3L+prUqUufw2izHF3Q2aGNw59kHWwHVCgVpDk9q79WIEsvGDJv9G53eHTheHlrEomOhVOgzme7vDhwSA2fKaCEIgiB8RUQhmMqXVAhKkSBHAtmcJSI2NhaQYlazJ9/XTPWA4hKhGxdzLNKJFiPG4qaf2fYfL+ZJwCdtV1AFkMDLAa3oU6cxD35fRvD+U+nGlZw8HJNqmfSv6eYKkDKVnNSsJj01DxyXQjey+FgkTi1GMDaDAxcdHQ3AkaKGLF+Q+Q0qAE+XbCRw6/4PxgmCIAj5iygEU/mSCsFEiZo96jAGL/6RMs/f8HjuGuJfBqeJsx/YGaexAzXWKRQKbFo24eXLl3h7e1O1atVPyiE2NpaDBw8CEDLQhd4jRn5wm/uzluC33B3jCqU+6TkLOpOqzlTfupAInzs8+O3fNAWhSZWyWDavm+H2lStX5vz58+zcufOTh35RqVQpYwg61KmGafXyH9xGx7rQJz2XIAiCkLe+nM5wOeBLKgSTSbS1KDqsF41uelP2zx/QsbHUeFxuYoR+sSIa/xmXLJoyVtrq1atJTPy08ZKShzKRy+X0/W4wWmbGH/xPpps0b7FE/nXfcGBSpRzVty6k7smNWLZukOXtkof62bFjB69evfqk5z5+/DiPHz/W2J8gCILwZRKFYCrJU7BduXIljzPJeTJdnUwLwvcNGDAAiURCUFAQHh4eH/18CoWCxYsXA0l3sFpZWX1S3l+7NAXhB05SOnfujKmpKQqFgiVLlnz086nVaubNmwdA/fr1KVMmbX9PQRAE4cshCsFUkmfgqFixYh5n8vm8XxDqFk6/ILS3t8fVNam/2ejRo9NOEyd1wGX8HP6a3ZfK2poPqdVqxo8fj4+PDwDffvttjr+Or01yQVioWeZ38Orp6aUMeDxnzhx27tz5XoQUB5fxzPlrNn3fP3DAjBkzOHz4MADfffddjuQuCIIg5F+iEPxKJReERYf3zjBm4cKF2NvbEx0dTevWrTlx4sS7B6XW1O09gpFDXCiVqqdpQkICw4YNY/ny5QBMmDCBBg2yfmlTyJwkC0Mb/frrr9SsmXSDSJ8+fVi9enWqeYulWNftzYiRQ3BJdeASExOZMGECf/zxBwADBw5MGUNSEARB+HKJQlDIUOHChfHy8sLGxoaIiAhat25N27Zt8fLyStNv8Pnz58yaNYuyZcuydm3SsC/9+vVj+vTpeZH6V01PT49t27ZRsWJFlEolw4cPp3r16ixdupSICM2hhPz9/Zk5cyalS5fWuJS/cOHCL6qvrCAIgpA+cdewkKmyZcty4sQJOnfuzO3btzly5AhHjhzB3Nw8ZQozhULBw4cPU7U6waRJk5g0aZIoJvKIpaUlhw8fZsCAAezdu5c7d+4wbtw4fvrpJ6ysrJBIJKhUKl680By3cMyYMcyePfuLGlRdEARByJgoBIUPcnBw4MKFCxw8eJAVK1awf/9+QkNDCQ0N1YizsrJiwIABDBo0CEdHxzzKVkhmZGSEp6cnPj4+rFy5ki1bthATE0NAgOYYjdbW1gwcOJABAwaI4yYIgvCVEYWgkCUymQwXFxdcXFzw8/Pj4MGDKJUp01VQuHBhXFxc0NISU1PkN1WqVGHx4sX8/vvvHDp0iPj4+JTHzMzMaN68uThugiAIXylRCAofzcHBQYwvVwAZGxvTpUuXvE5DEARByEdERyBBEARBEISvlGgRzKcOHjzIzJkzP3n75Mt/P/zwA7NmzfqkfTRs2JDZs2drrIuLi0NHRyflJpALFy5w6dKllMclEgkjRozQ2Obs2bNcvXo1ZVkmkzFs2DCNmNOnT3Pt2jUsfHwwBfz8/Kj+Xj4nT57kxo0bKcu6urppWiaPHz/OrVu3Upb19fVTZklJvR+5XE7NmjWRy7P3Ebh+/TojR3546rzMPHr0CIAFCxawZcuWj96+dOnSrFy5Mls5fA2yM4zR06dPATh06FC29nPo0CF0dXU/eXtBEIScJgrBfCokJITLly9nez8PHjz45G1tbW01lr28vBgxYgRnjh/H0TppppCD3t789s8/KTESiYQR/fpqbLd/lxd/LViYsqyjo8OwPprjF+7evp0FS5fiKjGjsdSEh/dv0znyjebzb93KklQFj7mZGYO7u2nEeG7Zwsq3w9cAWFtZMqib5nh4m9atZe3GTTg4OLBhwwZq1Kjxwb9FRiIjI3PkOEHSUC7+/v4fvV3qvprJ3rx5w6tXryhRogQA0dHRaYrm/v3707p165TliIgIhg4dqhEzaNAgWrRokbIcGhqaptD/7rvvKFmuBFaujTGp6syrV68YPXq0RsywYcNo2LBhynJgYCDjxo3TiBk5ciT16tVLWfb392fevHk0bdoUFxcXZLLsTTuYE8cpvZukPoZKpcp2DoIgCDlJFIIFwLRp0/L8+fbv30/v3r1RKpWc3emJU9ukWUcKa8upVKpUSpxUKkEW4Kexra2OtkaMtrZWmhg7PR0qlSrFc2ADoK9nnCamiIGexn5MjAzTxNgb6mvEWJiZpokxlyX1iPDz88PV1ZXDhw/nyGwyU6dOzdXhchYvXkxwcHCa9Tdv3qRNmza0btGclX/OAaUS5Zs3aWYZaVCpIpIqlVKWE0NC0sQ0qVYVScXyKcvxQUFpYlrVqUXT7t2xb5k0iPVTv2dpYto2qI+kdMmU5ZhnT9LEdG7aBEkJp5TlqKePWbp0KUuXLqV27dp4eXlhbGyc6d8kK5o3b079+vWzvZ+s8vHxwcvLK9eeTxAE4WOIQjCfK1y4MKNGjcrV5wwMDGTZsmUa6yZOnIhSqaRiqZI0fTtrBcAQt64Mcct8BooRPbszomf3TGPG9O3NmL4Zz3ICMGFAPyYM6JdpzC+DB/HL4EGZxswZO5o+bV1xHT6Sl69D+P3339m8eXOm22TFqFGjcrUQlEql/PrrrxrrgoKCcHFxISQkhCsXLiAJDkIikaAbF8fwHpqtp5WK2CINC0lZNoiLSRNT0a6wRoxRfNr9OFtbacSYKOLTxJS1KqQRY6pSpIkpZWGmEWOuVtGwWlVOXrnK+fPncXNzY9++fdn+G48aNSpXC8GrV6+KQlAQhHxLFILCB/n7+3P37l0AlkyeiK1V+vMTFyQVSpZg54J5hMTGUrND57xOJ8esW7eOkJAQjAwM2Djnt5SiSU9Xl/k//ZDptob6+h+MMTEy/GCMhanpB2OszM0/GGNrZcnhlctYu8ubb6fOwPfePfz8/MRYh4IgCDlIFILCB9nb2xP7JgLZo/t5nUqOqlquLGqJBJWhYV6nkmOsra2ZNnYMjSuWp/zb/oEFXf/27ejfvh0qa1vUZuZ5nY4gFDiql5fZe+YpcRhQomErKlt++oAhKftSa66XSOToWZemVu2yWKRXWahecmXfGZ7EqpFaVaFNw+KI26byB1EICsIXpF+/fkgD/JC8d6ONIAhfr4QrS/nO7T8CJcUYefgu/2usk/19pXffk0SKUenu/LP1P74tr1nmKa7+j4GdfuNmIkgLdWfz/S24mX1yGkIOEuMICl8tlUpFVEwMUVFRGvMkC4IgCB8gMaB4g3a0b9+e9u3b0rJOCUylaiLvbWH04LncUqQOjufcxq3cTUxaUoUeYJNXEOIe+vxBFILCV8v36TMs6jbE0tKS169f53U6QiYu3brN/iNH8PX1zetUBOELF0/QzWPsdN+Mh/cp7oUq0g+TWuEyYyteXl54eXlz4Ow1tg8vgRw1cdeOcvJ1qjIv+hjrPR+jkOhgZW2KVBXBkU2eBIhKMF8Ql4YLAlUoxxdOx+OBCrlcigRQKRJIVNvh8ssvdDC9wOLJ67mj0kIulQBqlIkJKM2bMHZ6d0rJQOHrzrSFJwiTaiGXqlEoLWg2fjKdi314bLbr168zYvhwiI/j9Nr/sj2em/D5xMfHI4mPR0uhyPZg2fnJtCX/cujceSZMmJCtgdYBHh5YyTbP7ci1tNHWkqJKTCAhIRFpmR5MHVoH2ZXVzFx/nXi5NtraWkhViSQkJJAoc6bP9G+poQ8on+D15/84FixFR0cLiSKBBNMGjPq5I1n4SAlCvqQM2MuUfkOYd+z52z6AEqQGTrT5ZSWrfmmMVaZNR3oUK1YYKQ9QSnXQ0XoXHHFgI7sClEgMmvPLLGvmDFlH0KkteDwewvgS4gOT176cX4ovmdSQMi260VExnyF/HOONWk7FbxYzqV0ZyheWgaQkTd06w7+jmbY3CJW8DH3mTaNHBWcc3n7G5IVr0r5DAhtn/ca9WhMY7lKNGrZZ+wBGRUVxJdXMIOlSPMVzzR6uxqiRFarBsB61KJyN9mbFo8P8ufce0W+v2EqkMnT0LXAqV4M2NYphllHqqlD2rtpGYofBdMj8WyvHNaxdB6WWFnKZBFViIokKJWbt57Nrck3uzOvO0C2ByLRkyKQSVIoEEhIllBu+mVUDiyIjgYt/dGHk9mDk2lrIVIkkWnZh0dYfqK6d9RyaNWvGlStX+GPM94zr3zfdGMWTI/y1+y5RaimFa7oxvHahT780oHjMttX78IlNOVDItfSxti9LkwbVKWuc4YHi1anV/Ktox+QmVrl6acK4SCmqK56yaLonD5Qgc3BlwuhWlCzniD6gtCxN9Wpv2LNwNl6PlSArTodfRtDCqRxFkrs9SQxxKF+FUqc2M39rHM2/7UH9KqWxEL9pQkGlvMeivr2ZcywCvVIdmPBNI8ye72X58iPs/rU7Q+wu4TnAIdUGiUT4+3LnjhxQEf/qEkvXXiYRKebNO9Miuf+fKhjvjXsIVkkwbNAZt26WXJ28gfWvLrBl811GTykvCpE8Ji4NpyP/9RfTxsa5Pk1bVqXI2x8alXlpGjcoj40ckFlStl5TWlWzTzqgagUmJRpRv4Ltu7uyjItRVu8e9wqPZfEf39ChaWVsP72/cFpyS6RPdvH36g14BRtikc13ltxKwr0d6/h75wtKunZkYNvmNLELZ/PU3pQfsopz0elvpwo6zML/1jF/XwBp59v4vA7tm0md6HvcvnWbBzTjn71H8fqlLtrIqTx6M0e2f0Phx3e4ffs2T+2/w/Po8bdFIIA2NX/Yyt6FbTFQlGTQgq0c8Bj/UUVgVsmtJPjuXMdf647zwtAke18CciskT3by95pdPHVsw6CObehS05bXe2dQo+NwfruW0YF6hefGNfy9/gCPc/lAWTk3pM9AV8obvF0htaN+r950qmmLDNB2qEuXvt/gUjb50yOnaMOe9OxQ493JjdSSKq7NsQ6NpMbUNfzvp+/o1bIs2R/uWhDyRsKFlSw9FY5apxaTdm7jrx/HMnGhN5tGlkGuCmbP0vX4pv6sKp+zvl8lnJ2dcXauQNUmg1hxPQ6z+pPYtmogDm8/K6qXO9h4KByVxJCGndtjY9KcDs0tkKoTuO6xCZ8MrjwLuUcUgqnk5mDAn0Jub09SI56SF37+aH5+onjmF4waQBmEv3+i5sbRF5n3+11cpw3i87TE61K2WGFkyHAq5ki26xf9opQuLAW5Htb2RShetCT1Ww1m6YCKRFxZw8y9wel0NFby+NAJrqjiuXjoIPc+8AVjZW7Gn+PHMmfOHAwMDDIPzgIdk1IUt0v64ypDwog0NEQn+W8t1cagUHEcCyV95BLDIojV10HjUEhCObr8BGUmz6F/DXtMdD7Tx1PXiTK2UpAVobSjVjZ3pkeZoknH3dC8CMXti1KxaksmT+lHnair/LlsPy/S6QekfH4Yr9sq4m4exuNpHvwSaBfBofDbY/XqOX5x7z2uikWFFhIAZSDPnr+fo4rgvbOZH96X6b0cEA2BQkEXeesWTxUgc6hN/eLJbXS6VG1YEzOpGsX9W9yKT7WB1JgK7b9h8ODBDP5mAN0aFcdQqiLs7FLmbH3w9kRcyVOPzZyIUiPRKU9lx+f4XLmPpXNFDCSQeG8bm87Fp8lFyF2iECxI9B2wLyQF1EQG+BOS6gc26uzf/HFKjZkUIJYAvxepWsTi8Vk0k0uNf2VI2Y9vhDc3N6eNS2tcGzbIJEqCmbEBEokuxgZZLS4SCfF/xP3QdL4IJMaY6r9fmEuxtLHGWJLI69dhaQtBxRM8H5TiZ9fCKH0P4e6beYFhYWrK6L69+f7779HX189izpmQWuFgZ4AEUEc8xz9UM8O4W+e4+vagqV48w18jPRWvvGexXDqEiW0sP+8HU2KEmaEEia4Bxlms2BPCn3P7WSjv10sgwcxInzRHyswGe0MJCWGvCU57oLh76AGVBrfBUeXLtn33+VApOP+nHzi7f1+auZA/mdwRh+SuEQkB+AVoZhBx4k8WHItOOrEihhd+QZotzOFH+P0vP7rN/FwnVoKQuyQSKUkd0FWa361vlyVIkKb+YpJY0GjsYlasWMGKlavxOHqUv1qagOo1R5Zv5KYCUPqyefNZ4tSgjjvH7JY1qF69Oo0mHiFSDSges33DcWJy8XUKaYlCsCCRO+Bol3TIVC/83xUSMZdYMOsGrf8eRnk5gIoXz/xSflwT7vzL9BO1+HVkZT7lanDZsmXxdHdnx4K5mdwoIk1pUf1gw6oqhBNrJlK3xyjGbNzDv/+MpVavCcw8/TJVQSBJZz9Knj97ToTEjIpl7dL0K1H4HsHXvjVD2zehuPopnvtvk/ARrzP75BRxTLq8iCoQP79UxUXCLZbMOIS0WFLLoyrkOf6R7x5WhR5k9v+iGDC1U7b6Vg4bNozffvqBBtWqZhwklbwt3CRpCjhNKoIur6N3nz64ztnEeo/5dOjZl67/ntEoYtNrSVcGPeNhpATLUmVwSnOg7uP51J6ebm3pWATuHjrAxcQ0u9BQ0tGBqhUrYmdnl3lglhlhX8Qi6QtQ+QL/1Mcq6ix/z7xByzEdsJTA+58neMPJP3/jTpsZn3RiJQj5kXGVKpSUg9LvFEduJp+cR3L60DkiVBK0nKtQKbNzfKkdzZs4IweU/o95rACFzybcfRJQS82o5jackSNHvv1vBH3r2SBDyfNdGzkQkQsvUMiQ+BYrSGTWONjpA29QBvnhHw+1teO5sWQmZxtMxbNWKH7mEnipIuS5P5GAjuI+//26l/ITtyXd7Zjnojm9aDSddlrw+y+g9XIAACAASURBVH//Y0hRLUDBE+9JNPlhFMF/r2B+PdO0ZyjKaJ5c8WT85kcUbzeRyQ3ev5SbwIUjgTi3K4GBfSu6FHPnzyP7ODW8Es30cueVgRxHe1tk3EGhfImffwLU1gYU+K6cyv7yU5imPYkud31RKl/g90wBheRABCfm/MPL7kvpaZ+95qXevXvn2IDSkVeX0H70LqxHL2ePW1G0AUXAHnoP/AnXsD859lPddPqCKokMuMqyv9y5bd+WpUPrY/ReRPzNo/iVaEsFvSL0aFGUxauPsenKMOrWzs15BuTYO9oiJRCVOhx/v3BU2CAljssLp3Gm/jR2tDnNyT8hWKHi9XN/YgAdIPr8XKZfbMLvuz7txEoQ8ozqKf+2NGHFe59b3TbLCd86mNGtVzDE+xpzOrbEv3tdTF8cYdPWRyhldnQf3RcnGZmcXMuwsbNGWwIxMeGEx8ZzbqMHdxNBZteJaasW0zbVJE7xJ2Wca7aQh6/2sGlPCJ16WXymFy18iGgRLFC0KeJQOKnFKf4FfgFKFPdWMO1QFSaPqoaulj32Nm/7Pb3w45lCydMN0/Es+iMT6r//c5w3lM+2M2XzQ2xc+tG/aPLppZxiLgPoZ+/PqkXu3EjVOKOOvMbCaVPp810PnIcs4XHzuZyd1pKi79dLsT7sDClHZwcZyEvh1qIU0qCTbLmY8UUHpVJJaEQEoaGhqFQ5M6CVvn0RkroBxvPC7zlKQPlkPdM8Hfnhh0aUSW4xVAbi9zzpKzXq7D/8cb890weWSNvXTBVPxKvXROX2nS/KZ6xYtIUbhVoxoUPRlD6fcrtW/NTenofbl7DogcaB4vSmmQz8eRhVOg5nyvNm7NwwBbc0d6bHcfpoKNWa2yNDTqXWzakoDWL3votE5dZrA0CGrYMtSecIKl74JbX4xd9cxNQDlZkyvi4mdg7YvX3hiuQW+Lir/G/qCWpNHUvNfHFiJQgfQa1GkRhPfLzmf3GJSpAVY9DqHfzpVg79l6dY888fzN98mTCzKvRbtJPF3Ww+WDBoO5XAXgZqxT2uXTjABs/HKJBh19aNpu/N5KlTuxvtnOSgCuPgph3pz1Qi5ArRIligyHF0sEWGL0pVIH7PHrD6Py9K/uJJHUMAOxzsdOCaAmWgH35PPVi0wYIxW5pgmtepvxV+5TKX47RxcS6rOc+k3InqpY1Q7L/CiVcqKtskrZYYVeb7aVNoFXUYSfdJbD22l1NDq+LyXl0beeEIp/3CeT31NgDqGAkW0tfs2XeGsEYtSG8mo/vP/KjUxQ0APz8/LC0ts/365A6O2EohQKUi0M8fhcoQz2nrMR/jTjNTKYn2RbCQQqAqhgC/IJQxISyceZXmczwpk/ZaNzum/ciUNRJGX9zOt7a5eN4W6cOx2/Ho1nemqkazl5xyzqUwVR7kxKVXUDrlQFG/1xSW1Ytm26Se9Dl4jI1XvqNBg/e+/aMv4Onjx+uwGVwCUMcgMZEQeOoA+940pFsGt92eu3adINUNileuTLly5XLkJWrbO2Atg0ilkiB/fxIUxqydspMSP++ikQmQ4IC9tQyeKFG+eIafIgHpkinsKTcR7wb548RKELJC13UVL5SrPhgntajHePdbDAu8zXXfIBL07ShXqTSWqb4DMtuXdp0/uZv457sVfgqWZfRk2vWZ65vI3Ky/DOEzEYVgAWOUUki8xmfJT9wqOp6tDZN/PXWwt7dGxmOUMbdZM/4xVsM24VIogwIi5j77PU7xCiXSYjWxfvyYIn07pwm7du0a3w4ejCQhnoubN3zSgNKqyFcESs2RKxWokaTbr0wqkQAqlKq0w/dIzRvzY/eyeC3Zzx/betFyoFOq1rM37D+lZNjff9DPImXMApYO78aYMwfZHdqMvua5U0TJrB2w1QMiVYQ+9+PRzq2slA1jg2vSDSByewdspRCoUvHC7xE+ixdwst5UtldM5yKjvDRtmhVnxhkramdxTMSoqCiIjEI3IQEd7U+5d1tF+KvXGMuUKNRJ/f/SHCmpFAlqVMp0TuGlZnQc5Ea1Y/+yeZUn39ftT7lUb5ewM2dQuM1hS/u3/fNQ4ec+iopzzuJxIpQu7czTbXWYtXxljg0onUzukHQsHioh7sUTLvznziar8Wxv9TYHuQP2tlJ4okQdFcCzC8tZuc2RH72a5ZsTK0H4HPQLO1OnsHNepyHkEnFpuIBJbnECBXcf2/D9pJa8q3HkONjbJh1UxQPuGX/Dr50yaM4PP8VvfSZz3bkb/Qb0ofixkQw7EE16NWN0dDS3bt/m5oOHmWSmQpnR5VVlIJv+WMreGCkWlSpRXh7PnXsPNPuaKPzxefAGmUMl6lvLgAQSFGpIVJCgTnptFdwG4maZyIXNa/AKf/dcquBjeEaUpYVZquSlVnRoXhm96ItsOfIq9+a01CqC49vLoYr7Wxi7IIaB0zqT3Jgns3XEVhdARdDZv5h0oBKTR9cg/auMCnzPX0VStTalsnjK1rp1ayyrVGPxZveMg1Qq0qvhAJQv9jFm0WmkJhWpW0JO7CNfbmrcyKHgwd0HhMkcqFvVGoD4RAVqEpOOFyAv2ZWfWloSf9OdP4+Fv/vbq16z41AE1eqYpXpPSinSpBn1dKI5su9Yrk45JTV1wN4sqcxVPtjAD6v0GPFrB6xTxgoshIOdYVIhrLjLirHrMB87BVfLjL42E4iMiEl1d7GCqEhxP6QgCPmbKAQLGJmtI3Z6gMQK18lTaafRUiTFwsEOIwlITBvz44we2Kd7hBO4NO8nNln2YVgNY0BKdFgUJWrV5tMbzlS8CA4lTVueKpwzK6by40NLqplJkZfoxpQOdjzdtxGPF8qUbQNPrGfdI2t6DutJdS1AGcLLcFBHhxEc+zbMuD4TelVEN/gwv62//XbIASX3dnlxVtsMM43cpVhVrkgZWQwndnq/NwH6Z5RqWBJV4EP0e0+jl0OqJjHtd/04Ex+8xvnnCWTYfVP1knMXXlKpThV04p9wdMNKFs+cwiqftIO4fBTVK16EpG11VYVf47cp87llVRbkxRk6tB1OL/Yx70BgSnGjCj7JvF2PKeIyhFHOWoCSoNfhqNUxBIemHChcB/agjnYw21Zs5NLb1con3qy+poWlseabTGpekTrFpERd9mLtw1wcU1DugP3bsQTVkZEUHzKN7kVS5ybHweFtn051ONFlRjGtc+F0vzRVoadY/ttiVk3uSrcld1EAcQfHU7va9xwXtaAgCPmYuDRc0GjZ41BYjnnRX5je1TbNj5Lc0QE7mRHlxs+if0aTnirucPDoK2qMaZI0E0LCbc5e1ad6L8dPHxg38T5eJ5+iUMu55r2A788lEBcbxfMH1zh1PxSTdn3e9oEzw/WnhWwwnsOMceM416gS1uG32Xs1lo6zFzKredJ0ZwkPTnPYXwnK2xw4+ZpB7QshRUaZrgPp5TGWleun8q31LNbWvscvG2/x2uohvopmVEr9jlYoUQAJdzczbmNj9vQvqXGXp7WFOfN//hG1dWEMDd/ry/appMbY21kgJRD9mmP4bdB7N4DIHXC0lcJDNXbdpvNL00wuMkZd4Py90lR3vMyqZa+p3KcleqN6cr3SOKjy6XfYJvgeZ+8zJWqZLxvm/smhxHhiooK45ePD9RBD+vUrBkixbPgDu/8wZtTSH+h4vQH1LCK4ePIq0c1msHtUs6RhbhIfsve8P0pUXDpzmped2mIjBVmxzvzsuo0OnhsZOM2a9T/V4Or8zVwMt+LmUwWdS2scKBRKIPEeC//cRPsl/aj4GWZUSUNuh0MRbbiuxKjueGb1K/be+1+Ovb0tcm6jNG7IjzN64ZDuBySBa+sOotv7Z8ou2ciGZyEoAd2GA+jlNI+43L7RRxAE4SOIQrCg0a7E4IVb6VGiPo7p/CjJy/TjH/c22Dcok8nB1UVbzwq7IkllUcKDw5wMq8y48un/+lpYWNCxfXsk0Znc16lVjhke55mRldegZUeH7xfSYUQ0fo+eEmrQjYm/GGnkq11uGJcvDUu7rUFdluy5wJKUFeXwOpq2XyOAvMxQLl/KeABicxMThvVwQ1U6J/vCyHEoaotM34bhs4eSZpg5qSkODubIbWrz6+Q2ZHiVEYi/epar8X74L7rM5D/HUs1cm2obz2Q7Q23n4Vy5NDwLkVoUazKS3U2GERn4GN83+gwd/COmqV+TVlmmu59nepptDWg12Yu4ye/WVPvfQb5N72nkZZjmfp5pmWSyaNLPROoZYuFUPAt5Z5UOjg42yA3M+f63wZRO5wOj5+iAlcwIu3GzGZjhyNFySvQbR3mds/ywX07r5TWTTjh0i1K8UVUk4u5iQRDyMVEIFjja2NdomPHDMluqNbbNfBfyUvQaUZ8p29ax9XECtzw38bD8BGpkMN5emTJl2LxhPbJH9z897XRzNcChlDMOH44sQGSU6DmHLY0L06BKeqPM6VJv1Co8h5ejbqYjRyt4cN4HeftpLOwcwB9d23Fx7i5+rKGFSiXVHOE/le+//57gB77UL1smJ17MWzKMCpekeuEc3OVHKmZnh8raFrWZeQ7uVZsq38xnbUcnWmRwEqRT7TsWrOlGyVZlM/mylGJsbkb88f2c1GnC4ipJ+1K9OsIT46Y0k4nJVAVByL9EIfhVkmLX4U9WtggjXKWN6fllXChWJxv9A4XUpDZVaGyT8eMGJepQ/0M7UQVx7kIglfo2oVwjNa2KzOXAkwRi4v9jvfwbhtROv3Bxc3PLsQGlvwY6xerRulgmAfolaNgma/tKCHpFuF2jtzOpvOHC5oeU7NoZWdC1HMhUEATh8xA//V8xqb4Z5tJrHD2vS7VaDp/eP7CASkxUEBj8msDAQJTKfNaRK+EaPk8r0aiOIWCAc63KJN7ZwZrrtrSskRsd6ISPZdC0H30kR/l3swfL58zDp3x/OtmJr1hBEPI30SL4NYu+xtZ/T2PauTOc28Ptqp1wznDOLAmJiQqkUsknjSOYH917+pRqbj2BnBtQOsfotuavU80wMJQCUiqP2caayEgwMvoqpzU7deUqgYrLlKpajQoVKuR1OumSWrZg5rYGvH4RgszSDbOv8UB9QV6/fs2NGzd48uQJMTExxMbGERub9P98d+Io5FsSiQRdXR10dfXQ09NDX1+PQoUKUb58eUqWLIk0o34+uUgUgl8zg8p0G1/5g2FxcXF06NCBixcusG/pIupV+fA2BcGlW0mzkBgbG2NunpN9z3KCDANDzYJbxyhrs1n4Bb4kOugl5Yo7fY7E8sSURUs4e+06P/30U74tBAGQ6lKoiF1eZyFkQ3BwMF5eXty9exdUalCpUCcPjKVOHnYp7fBLgpCRqLhYoggHiQQJEu5LJJw9cxYzczNat25N9erV8zQ/UQgKH6Srq0t4eDhx8fEMmT4Lz/l/U7po0bxOK1uevnjBpIX/A6Bly5ZfTCvnpEmTmDt3LjUrlOfkmlX54mwzu4JCQrhy5y5A/i4ChQLv5MmT7N27j8S4ONRKBabGxpQtVQozM1N0dXXR19NDV1cXuUz8dApZo1KpSEhIICY2ltjYWGJiY3ny7BlP/J4RGhzM5k2buXLlCn379kVfP2+GGBDvZiFL5syZQ4cOHbj/7BmVunQn5PRxDPTe3WY87q9/2HPiVMqyk70d+5Yu1tjHqN/ncPDMuZTlUkUd8V60QCNm+MzfOHLhYsqyc4nibJ//j0bMt1NncPLK1ZTlymVK4/73HI2YAZN+5dz1GynLNco7s+GP2SnLluYWqJFgYWHB5MmT+VI0bdqUuXPncvHmLfr+Mplpw4dS0vHdfdkJiYm8DgvX2MbcxBhdHZ1MYyxMTTSmrItPSCAkPCLTmLj4eEIjNG9aKWRmiraWVpZj1Go1w2b+RnxCAoaGhjRv3jxLfwdB+FiHDx9h3969qBWJmJuY0NG1DWVLl053OkxByK7QsDD2HTqMz82b3L93j6VL/2XYsKF5UgyKQjCfCwwMZMiQIbn6nNu2bUuzrnHjxnh6ejJs2DCsLC3RLV0Opfrd5ZFXcQk8CQhIWdbS10Npr9lqGBQTpxGjb2ycJubpYz+NGNNChdLEvIiK1oixtLFJJyZKI8bOweFdjESCrq4eM2bNombNmpQuXTrDv8XHGDJkSK7+aKR3nJo2bcqIESNYvHgxWw8eon71qhqF4A3f+9TtO0Bjm13/m0/r+vVSlq/cvkOjgYM1Yvb/u5imtWqmLJ+/cZMW32qO0Xhk5TIaVKuasnz66jXaDB+pEXNq7X/UqviuVe/oxUt0/H6sRsz5jeuoWq5s0oKWFq1atWTf6TOsWLECExOTdP8WH2Po0KHUq1fvw4E5xMfHJ9eeS/g0V69eTSkCK5QtQ88uXdD+pLm6BSFrzM3M6O3WjfJly7LJ05MXz/1Zs2YNw4YNy/WTD1EIFgDp/eDnhebNm3P37l2CgoJA30DjsW+GDKFpy5Ypy8bGxmCgOVvHkBEjaN22bcqyqalpmpietRpR+kYAunY2lJw0NKnv3nsxo8aMoYubW8pyoUKF0sSMHT+BHr16pyxbW1unifnmm2+y8rKzzNPTM0f39ykkEgl//fUXRYsWZenSpdTt2AVlqgGzlZGxabZRFXHUjAmLTBtjX1QjRhUUkvJvQ6SslZUkYug8ws97YFSuRFLM85dp9qN0KKa5n8d+aWMcnd7FSCT0HuqIU6UqNG3aNLOXnmWBgYH55jMl5L2oqCh27tyJWqmgTIkS9O3e/YvoUiEUDJUqlEcikbDO3Z1HDx9x4cIFateunas5iEIwn3JycmLAgAEfDszE2rVrUavVtGzZElvbDwwynY7KldPeFCKXy7GzS9sZvmHDhjRsmMlA1yS1Kn5I3VLlMJOaYmThQP3+/dONadGixQf30zJVUfo52djYZOs4xcTE4OHhAUCnTp0+qcXLwUFzSG6JRMLIkSMZOXJkmtjyFSpw69YtjXU2NjaQ6gy0cuXKaWIKFy6sEVOjZs2UGGV4JI8aD0x+8pS4OnXrptmPnZ2dxn4aNmr0wRg9Pb0cKQKzc5zOnj3L/fv3KVasGI0aNfrk/XwpfVG/JMePHyc6Mgp9bW26d+4kikAh11Us70x138pcvnGDffv2Ub16deTy3CvPRCGYT9WqVYtatWplax8bNmxAoVAwevToHGtNETSVKFGCpUuXfvL2gYGBKYXg9OnTKVmyZE6lli5dXV2KF898mjY9Pb2PikkICedROjH6+vof3I+BgcEHY3JKdo7T8OHDuX//PjVr1szWfoT8Ra1Wc/nyZdQqJY3qN8Qop+YcF4SP1KZlC3xu3CAqMoo7d+5SsWLu3RgnTn0EQRCEr9KTJ0+IfBMJKhVVK1XK63SEr5ixkRElixcHlZIbN258eIMcJApBQRAE4av06tUrUKspZG6OmalpXqcjfOVKOjmhVqsJDg7O1ecVhaAgCILwVYqJiQHU6KcaCksQ8oqenh6o1W/fl7lHFIKCIAjCVyk2NhbUb3+ABSGPJZ+QxMWlHd3hcxI3iwiCIAhfPLVaTVRUFOHh4YSFhREREcGlS5fw8/dDSyrh2KlTH96J8NWSSqQYGxthZmqKqYkJxkZGOX6Hua6uLqjVxMbGoVarc208QVEICoIgCF+k4OBgNmzYwLZt27hw4QJKpTLD2Dnz5uViZsKXoFyZMnRu15b+vXrhlAPTrurp6gJJJy3x8fFJhWEuEIWgIAiC8EVRKBTMmzePqVOnJl3+zYCYPk7IKnWqmbSS3bl3jzv37jHrr78Z8e1gZk+ZgpGR0Sc/h1T67v2Y3vN9LqIQFARBEL4YYWFhtGnThvPnzwNgYmRE91YuuDRoQGFLK0yNjDAzNsHYwIDHjx8T8joY60KWFCvqmMeZC/mZSqUiMiaasDeRhEdG8jo8jKOXLrJl/36evwpi8YqV7Nq3n4M7tlOqRIm8TvejiEJQEARB+CKEh4fTokULrly5AsCIHr2YOWo0RgYGH9hSEDInlUoxMTTCxPBdi1/zWrWZMXQ4C7dsYtqyf/F//pwmbdtxbLd3gSoGxV3DgiAIwhdh5MiRXLlyBalUyqY5fzP/54miCBQ+K7lczrg+/Ti2bCUmhoa8DAqix8BBJCYm5nVqWSYKQUEQBKHAO3DgABs3bgRg4S+T6NaqdR5nJHxNqpUrh9e8BQBcv3WLeUuW5HFGWScKQUEQBKHAmzVrFgANq9fgu65ueZyN8CUJDgvjt1Ur2X/2TKZxdStVZkT3HgD8vfB/xMfH50Z62SYKQUEQBKFAe/r0KadPnwZg0rdDxN3AQo7w8b3H4BnTKNK6BdOWLeV1ePgHt/mx/wCkUikhoaEcPHosF7LMPlEICoIgCAXa7t27AbA0M6dR9Rp5nI1QkCkUCrYdPkTjb7+hVt/erNvt/VFDuRQuZEnDqtUA8N6373OlmaPEXcOCIAhCgfb8+XMAKpUpg0wmy+NshILodXgYq3bu4N9tWwl49SplfZkSDtx76PdR+6papizHL18iIDAwp9P8LEQhmI7cHMhREARByJ7wt5fszIyMM4wZO+d3itrZ0cOlDdYWhXIrNSGfu37/Pks8trBp/z7iExKApIHGWzepweBeLtStXo5qrYbzIigky/s0NTIEICwLl5LzA1EIpiL6lQiCIBQ8YWFhAJgaZzyrw40H91m0eSMT/v6TNg0a0bdde0rb2uVWikI+olAo8D51kkVbNnPK52rKemMjfXp3bsYAt1Y4FrH65P0nn5CER0RkO9fcIArBfCQwMJCAgIAc219yy+b9+/cxNs74TDk/ifHzT/p/bAyXL1/O42w+v9evX6f8++bNm0QUkC+O1FQRUSn/vn37NvKYgnEW/DGSj1NISEiuvS+rVq2a45Paf6mSC8HMWgRJdaVn76kT7D11AiN9fZpUrUbPVi4UdXQQjQFfuNCICP7z2snSrR74B71MWV/KqQiDe7nQxbUBBvrZn9/X5O00c6JFUPhoW7ZsYeLEiTm+37Fjx+b4Pj8XV4kZ38isefjwIeMbNMjrdHJV79698zqFT2KIlHXyUgD079cPPxLyOKPP5/Dhwxw+fDhXnissLCzXJp0v6KKjowEw0NfPOOhtkVe2pAMORaw4fPIqkTEx7Dp9il2nT+H07xL6uLrS28WVYnaipfBLcuvRQ5a4u7Nh3x7iUg3p0rJRNQb3cqFBrQo5ehJg9PZ9GPX2fZnfiUJQyFcuqiMJUCYQq1bldSpCFsWjZpky6ew6FEUeZyN8zbLyY+7avBYThrnxOjQCzz0n2eZ9kpv3nvI44Dkzli9jxvJl1KtchT5tXOnavLnGlGJCwaFUKtlz+hSL3Ldw/PKllPWGBnr06tSUQT1aUdTe5rM8d0FrWRaFYD5UunRpDh06lNdpCIKQy65cuUKnTp3yOo2vQiFzEwa4taRP56Y89nvJrgPn2br7JC9fhXLmmg9nrvkw5u8/6dCoMX1c29K8Zi3kcvGTmd+FR0ay2msnS7a68yzVXbvFHW0Z3NsFt3aNcuTy75dEvKvzIX19ffQzu8QhCMIXSXzu80YppyJMGt2Ln0f24Ozl23h4n2DP4QvExMbjceggHocOYmVuTs/WLvRp05ZKpUrldcrCe+4+ecJijy2s372b2Pi4lPXN6ldhcC8XGtWpKPrcZkAUgoIgCIIAyGRSGtSqQINaFfhj4mD2HL6Ah/cJTl+8xavQUBZs2siCTRupUKIEfdq0pWdrF2wKiaFo8opKpWLfmdMsct/CkYsXUtYb6OvSs2MTBvVojZNj4TzMsGAQhaAgCIIgvMdAXxe39o1wa9+IgJev8dxzGo9dx3n49AU3Hz7kp4Xz+fl/C2hZuw59XNvSvmEj9MTNPbkiIiqStd67WOLhweOA5ynriznY8E1PF7q3b4SRoWhdzypRCAqCIAhCJuxsCvH9Nx0ZNagD124/Yqv3SXbsO01YRBQHzp3lwLmzGBkY0LVZc/q0aUu9ypXFZcjPwPfZU5Z4uLNutzfRsbEp6xvXrcTgXi40rSf+7p9CFIKCIAiCkAUSiYQq5UtQpXwJpk3ox9HTPnh4n+DgiStERkezepcXq3d54Vi4ML3bJA1FU9LBIa/TLtBUKhUHz59jkftmDp47l7JeX0+H7u0bM6hna0oWE8P9ZIcoBAVBEAThI2lryWndpAatm9QgNDwSrwNn2ep9gqs3H/IsMJDfVq3kt1UrqV2hIn1d29K1eQvMCsjA/vnBm6go1u/ZzWKPLTz0909Z72BnxeBeLvTo0ARjI3H5NyeIQlD4sqkieOxzhyjrSlQs8t6XxpunXL0dRqEKVXAwVPLq7iWe65WjatH0v6zjA2/hE2RChcr2GKQfwC2fIEwqVMY+3YDsUhJ+/zynr97jeRiYFa9Go0aVsdH5HM8lCEJWmZsaMbB7KwZ2b8XDpy/Y6n2SbbtPEvDyNedv3uD8zRuM+ftP2jVsRB/XtrSqUwctuVZep50vPfDzY8lWd9Z67yIqJiZlfcPaFRncy4Vm9asgk4nLvzlJ/DWFL1viNZZ+04Xx7v4o33so4d5/DOvyPesfKoBoDs90Y9h/9zLYkYrX3pNxG7eJZxmMmax67c1kt3FsyiggO1QB7PmlNTWaDGTmmj0cPeTBP8NaU6vRULY8SH4+BTc3z+B3T98sDuv8sfGCIHxIiaK2/DKqB5f2LcJz5VR6dGiMvp4uiQoF248eofP4sTi2ac24f/7m6r27KVOBfs3UajWHzp+jw9jROHftxGL3LUTFxKCnq02/bi04sX0uHssm07JRNVEEfgaiRVAQANCn9pC/MTEqlteJpOvNvtn8uEFFvx2XmVIzqcVSFXyCKV17M3lmE5qt6Y6lVMGTY+vYqF+XcV1KZ+HD/bHxgiBklVQqpV4NZ+rVcGb2z4PYf+wSHt4nOHn+Jq/Dw1nkvplF7psp5+SUMhSNnZVVXqedq6JiYtiwdzeL3d3xffY0Zb29rSWDerSmZ6cmmBob5mGGXwfxpXv2xwAAIABJREFU3S8IGYh6eJRtXqd5HG1I8Ybtqff+iXvUQ45u8+L042gMizekfZoAULy8zI5tB7j5So1lxTb06FQVSxkQeYs9XgEUb1uGV7u2cfxhFPpOjenq1oiiabq9KAi440uYWRUaVnp32Vpq2YCRo3pwe3cIAYpX+B86yqUABXE659jhqU31tg0poRNPwHkvdp30JTAKjB2q4tLVBWfj11zdl148oHjJ5R3bOHDzFWrLirTp0YmqlrKkJ43x4/SuXZy+95I4XVucm3SiQ63CaOfg310QvjQG+rp0cW1AF9cGBAaFsn1f0lA0vo+ec+fxYyYuWsjERQtpVrMWfVzb0rFxEwz09PI67c/mccBzlni4s2bXLt5ER6Wsr1+zPIN7udCioWj5y02iEBQEAGI4v2wCC0psw7WqBaFHf6XzoLWElm1Kg+IyfMavZImWFIV+HQBUoUf5tfMg1oaWpWmD4sh8xrNyiRZShT513u4x+uoCevdZyMsyzahhE83pKStYe/gfdizuiu3rYyz+ZRMydxWh2pWoYhnGlQ1LWXtxBccWtaOQxnegHNsypTAN2sGsic4wpCP1SpkhR0rhrn+zsyuguMaiLSs5cD+OaNluVqyIRL9pPVQb+tFhxh0cGjWgtGEkZzyXsmjXZA5urcvZNPENKaG4yoLefVj4sgzNatgQfXoKK9Ye5p8di+lq+5hV/dsyzbcYTRuURDf4OJsWLuXQ4kP828lG9DMRhCwobG3OiAHtGd6/HTfvPcFjV9JQNCFhbzhy8QJHLl5gpJ4eXZo1p08bVxpWrfZFDImiVqs5dukSi9w3s/vUyZT1ujradHFtwOBeLpQtKe6wzguiEBS+AkoerBuCywHNdit1zAsCVGZpwxU3WDZ9NWFt/uXQonZYS4Hwk0x0deO/pABuLJvO6rA2/HtoEe2SAjg50RW3/5Kf0pcVExcQ0dOdw1NqYAgoHv9Hb5eZzD3uwt9OgOIZUTV3cWBKdQxREbxlALV/3ceFhHa4vjcurYnrdJZPTOTXpRPpsvZnDG1KU7lWHRq3dqNnp2pYyyszcv1uHL4rz0T92eyd3xwd5X2W7HtAxYlebBrihAyI3jeCGkPOc00xPG08SnznT2RBRE/cD0+hRlLS/NfbhZlzj9P5l2fsPSuh3YrtLGmjD0RzYdEEVj1/SiI2iHtWBCHrJBIJFcs6UbGsE1PH9eHY2ets9T7B/mOXiY6NZd1ub9bt9qaIlTW927jSx9WV0o5F8zrtjxYdG8umfXtZ5L6Zu0+epKy3synEwB6t6NWpKeamRnmYoSAKwXSIzrtfGgmFqnViQAsrJKnWqp7t4vcFz9NEqwLPc+5hIVrMaJlUBAKY1qN/5/Ks2wOoAjl/7iGFWsyg5bsA6vXvTPl1e5L28fIEx2/pYlL5NCvnn3kbE4e+WTBnj90EJ0BekpYdKpPUA0aKsa0NxrGBRKnSeQlSK+qPXsnRkRE8uXKa02cvceHsYZaMWsuKrTPYuuE7yr1/fVZWiuHbrjJcFc3Lexe543uXi9suEqYsjSq9t7jqJSeO30LXpDKnV84nJWt9M4LPHkNq2pW6zvHMn9gLrRvtaVq/PvW+W8pycV1YELJFS0tOy0bVaNmoGuFvoth14Bwe3ie4fP0+z18FMWfNf8xZ8x/VyznT19UVtxatsDA1zeu0M/X0xQuWbvXgP68dRES9u/xbp1o5BvdyoVXj6sjlsjzMUEgmCsFUJBLJh4OEAkiKmXNruvcsTeqvnYSLd1m4MJ1CMPIN0RJTLMxTR8uwsDBNuvypiuRNtARTC3ON/cksLDB9Wxeq3kQQqYwj5t5lLj9P9b4q0YzKtm+3kuigp5f6PZfR++8Ndw8fws+mKS3Km1GspivFarrSd8wUgvaOpc2ghSw70Z8FLd7fLpob/01g7NyTRNk5U65USUrbO2KW0dOo3hARqSQu5h6XLz9PlU0JmlW2Be3KjPc8QPlNm/E+5ckfa6bwVFmSztOWMbd3adEiKAg5wNTYkH7dWtCvWwue+L1k6+6TbPU+gf+LYC7fuc3lO7cZP3cuberXp69rW1zq1UdbK38MRaNWqzl59QqL3Lew68TxlEYVbS15yuVf59IFr1XzSycKQUF4j7ywPTbyAB7cj4IKyWfd8fj6PkVBDZAXxt5GTsCD+0RRgZQIX1+eKqAGIC/sgJ2eIYW+X8XcpsnXeRN4efsqL43LgeJ81hNSxXNpxVhmGS3g4spOvGsHkGFdsxpO0p2EhSsAzbNrVaA7M6afwmn+MZZ1skIKxB8Zy4b1wRm9cBzs9DAs9D2r5jYlJeuXt7n60hhVxGN87qqo8u1UWg0BFEGcmtmLntPm4dLpX9qKsV0FIUcVc7Dhx+FuTBjalYvXfPHYdQKvA2eJjolj14nj7DpxHDNjY7q3bE1fV1dqOJfPs1yv37/PwKlTuPXoYco6GytzBnZvRZ8uzbAwE4Np51cFvweqIOQ0k2Z0bqbNobkz2PUkBlAQdOofZrs/I+mqrQnNOjdD+9BcZux6QgygCDrFP7PdeZZ8Wde4GZ2bq/D666//t3ffUVGcXQCHf1to0qQriKCAvVfEhhUsqNi70WA0ligxMVFjihpNVRONsbcolthQsMXYu2LBFhUVK6IiXWDr9wfsin4WUJci73MOB5idnbnLLjN33nKH3XczADWPI+YwrHMQC8+9qO/3FaR2+PVojfHWSXwyax+3UjOfr068zMYfFnPcyhf/BpkzDGUyKWmx17lyM5bk5CSSlaBVq9EAqgfHmDt3Ow/USpRZhQOzr5+isaJF55ZoQn/m5913yQDUjyOYM6wzQQvPoX28jW+692bi31czu6+lZpibyZCYmGAsjiSCYDBSqRTvWhWZ/u1Qzu9ZyJ8/jKJ5wxpIJBLik5KYu24tzT4KytcY/4u+oU8C69WswPyfgzmxdTajggJFEljAicO3IDxP6kjg1FkMsd/J0Abl8fDypNaAHbg0rJTVhC7FMXAqs4bYs3NoA8p7eOFZawA7XBpSSdfGLrWnw5TZBJmtpV9tLzy9PKgSMJ/0Hr8wwT+3A6OlOHX+leWTGxIztze1ypamrJcH7uV9+eKkF58vmU7PUlLAiGq+zbA98jXNvIex3jKAD9qasG1YbbzKeeLpPZKIam2pI9/HN0MWcVvz7PprH4F9hynMDjJjbb/aeHl64VElgPnpPfhlgj+yMv2Y+KkHR8c0orxnecp7VKDtQiWdvxlFc9PXvghBEN4BM1NjAts0JGTOeM78Mxdfn+r5HdIzpFIpm5dOokPrBhgZiU7HwkC8S8L7zaQpP5+598KHjOtN4pj+ISt6h9yid9ZvUqcWfBUawdCoi0QnmeJSvjxO8lQSM4ywkgM40eKrUCKGRnExOglTl/KUd5KTmpiBkVVWuujoy7gNpxkafZGoByqKl6mMl0PWSLoyI9l6a+SzoTb5kdO3eQlran04m38++IlHd25y65ESC2d33EtaZavhJ8O1xzxO9Jj39GkLD9Pq+mWiH8soUb4CpSwhvlcfbso9cJHKkD6/Po74jtvA6aHRXIx6gKp4GSp7OWSN/7Oi/ui/OTXoLlHX7pFibI+bZxnsxeBAQcgXTg42DOnbjr2Hz+Z3KHqi9a/wEYmgILyUCfaeNbHX/26JzXNJj4m9JzWfroDl8ysgx8a9GnXf1fhoWTHs3Spi75bTJ5hgX7Ya9mWfLrHxrMULiuY8Q27jTrWXBC2zcqF8TZecBiAIgiAUYCIRFARBEIqMi6cv8duiUIyNZKiVGWSkK5C41GBIx3JknNnHXycSkBrJMZZJUKtUKJRQplk7OnoZgSaFiLBdHHggwdhYBiolpuUbMaihQ36/rHwnyq4VXiIRFARBEIoMIyMp0TvXsOqSEkzc6TLIhzrWxTABMuQmWEpusXTWIa6oJFhWacYn7cpjV+zpjHyZiTHqG/v47UQxOgXWwdsyfwtp6vIvUf5MeFMiETQwmSzzAKJSqfI5EkEQ3kdKpRIAuVwcznPCq4oXPomxrL0Ui1ptTrV2LentZIwcKbZVfBjkZczZlYe58liLyq4C/Xv7Yq17stSCGi3rcGH7EbpN/pwp9UXNpOeJfLTwEUcOA7O0zJwhmpKtsrogCMK7oju26I41wutIcHWxQ0osau1j7sRowOnpo5rkJyRntbIpYx9wVwXW+jOlhphtIYTYdGJFXZEEvhFNEvuWrib0NhjJZcgkWpQKFUps8RvalTbm/zHvt/1c0coxkkmRaFUolCo0tjUYPdwHNxmoru5l0sr/SJHJMZZqUCht8Pu4C35OohDKmxCJoIHpDs7JyclotdocNd+fPn2aQ4cOvXY9QRDeLxEREbl+TnJyMiASwZyT4OBsh4UE4tUJ3IlRQ42shzQp7PojnAhkgAr1g4fcVqMvC6WJO87UNUYMnVkTm0KVc6i5/vdo2u2qyJwfhtIsh8EnRC6hz6SjNPvxDz7zeEfpgtQMj7p1aZ6+hU/nnydJK6Naj48JbuJMNTspSErg7VuD1JCF/HwoCa28NL0ndCfAqyxOWT30UkcPWjVMJWRWKFe8OzHItxxVCtcbUqCIRNDAdAdntVpNeno6ZmZmOXpex44dDRmWIAjviaSkJEAkgrkhd3akpAziVQpiYh6jxhyApONrmfmoKRPbbGdUyH3USY+4laABJ2lmkjg7DEWPT2lnV9iSDhnuLfrQMewLenyqZs304a9NBhMiF9Hts8XENPqGrm6vTxVyPlnEiFJVa1JCeplfFp0nSQXYutOqUemshMSW6o3qYXpxE9MPJaFCg3252jSv8nScptTalWrFdjDNowdzv2hBaXHL4rdS2D7NhU72g7Puyl0QBOFdEV3DuSd3dsA588bh3L/3CBXAk0vMnHOPDqNb0aCUXebJUfuY23cz7+STdHwtv8f7Mr6NbYE6cWrJTMBe19sktfVm6owfGaheR/fgP9gd//I7HOmSwHuNvmbL+Na4G6DJSO5ir38PYu495NlR9E+4HZOSeScn1WNu3XtujP2Ti8yY/5DOo5qJJPAdEC2CBmZl9bS4ZkpKCo6Oji9dNzg4mODg4LwISyigDh06RMuWLQH49NNP+f777/M5IqGg011gZj/WCK9h5oiLnRRiNDyOjSNFoyBq6WrONh7IKg8jNLfssJJAnDqe2zFKeHKVmXNj6fTtB7i9LPHQJHBwRQh/7NLQ/odh9HEuSOliJqmtN9NmTEMbPI4eozWsnjGSFrbPxpk9CQwb70eZXGYJOZ69XMwRFxspxGpIiHlIogZMs0JJObmBX49rsJJAgjaDu/fiUVMi627qGUQsWs0F3yC+ci94f+PCSPwVDUy0CAq5MWXKFP3Pc+fO5dGjR/kYjVAYiBbBNyBzoLRTZsKiefCQG/9t4/vjlRjf3x1jnnYdg5J7d+9zYslqzjXtwwevSjykxWnUqzleyQ+IU+TFi3gzUjsffpgxjQHaDfQMnsWux09bBt82CcwVmf3T9yD2AbfUWcvTrjBr9k3ajPenogxAS8zdpy2GGZfCmHqmKl/1KS1ast4RkQgaWPaDc2JiYj5GIhR0hw4dYu/evfrfnzx5wowZM/IxIqGg02q1+uOKSARzQWaDq1PmXYBU9/9j5m9nqDayI7WzbgwkL+mIswxAw53DK5l8OqeJhxRZITirSu18+Gn6VPpr1tMr+Hd2xqnzNgkEkNnq3wP1wwfcVgIoObd8FSfq92FInRI4m0sADY9iHvIEQHWbRTPOUGtEANXzt3zje0Uk1C/wLiuky2QyXFxcuHv3LlFRUTRp0uSdbVt4v2RvDdSZO3cuwcHB2Nvbv+AZQlF3//59fYugm1uO7zsoIKWUiy0ynqB+Es2dsp+xsLbp04dNHShlL4W7GuLOJ9J74csTD3VcFJt3RZEilyO3NSINnrmF45PoU2w8EgdmMtSyErRqU4mS3CF8xXGiVFpwqU0fl5uEHI9DrbWlSc8mOEXuZN2lNIzd6/KRWzTTN11BWaEJnc2j2BejJEPrRLsu9fDM2dzDF/8F7Bvy84ypaEePp/fwc3jE/UdK4zxKAgGQ4+psk/keKB5zO1aDSr2NSYe9GDe3LCYyKaWdpJCoRhX7kDsqDY//XkGYRw/W1jR9/eaFHCsE1y55x1CV2atXrw5AZGSkQbYvFH7PtwbqiFZB4VXOnTsHZBaTrlSpUj5HU5jIcHW2RQbISvgwYUjlp0WjAeQOmUkIMjy7DWBUjefvIZ5JEbWdgWN2omnQnH5dWtLW7iEXHz7tak09tZYPZ8dSt3Mr+nRqTqdSkYz5fDuXKYW/f3EiQk5BhdLYV2uAd+IhNj8pRVVLKc5VLLkVqaZ+fWfkXg3o4XiLkL92ctzeh6A+ftS+vZov1t5Hzds1XEjtffjqo+ZYR5/hjKQBX37c6o2TwNzHIcXVJWvijeYxN2/fZdmMY5QfFkhdM0Buj2tWvRh17ANu3tnLlDA7godWweLNQhReQiSCeUCXCOoO2oLwvBe1BuoU3rGCamIvHGT//v3s33+AiOjniqpr4rh85EDm4weOcfUVsxizS44+yYH9Bzh542VjbpOJPnmA/QdO8tJVANSxXDi4n/0HjnMtIfu+1dy/cJD9+w9w7Go8OYsq99Jvn+Xg/gMcuRz3xtvQXVxWqFABE5MXJyvCi0ixcnbARmZDu+FdaFH8uVOhtDilS5oid23Gdx+/LPFIZ9fiDdyq0ZqA0pnNhdYVylHBMqtBQZPApkXb0dTzoVzWW2NV1Zvq90KZeygDWQkf+jdJYsc/d1GpE7iqtcboyDHOKUF5/RGundtS2zIzGbW2NEFZohKB1ayQI8fBzpSYe3HPzLSVkPuGjISzi+g2+V+s2w7iA8fjBI/5jZ1xb/eJz3mDStZ7IAE0iZxZvpi/nbowpr6umdME15LWSAFt6g2WTNmJ5QfdaWH9ik0Kb0QkgnlAlwiePXuW9PT0fI5GKGhe1hqoU3hbBVPYMbEdfn5++Pm1xu+T1dzLdo5RXZzLwNatMx/3782ME8ocbFPBpYWDaePXhqAFFwFIP7aAscGfMnbxSRQAikssHNwGvzZBLLj4ilH7KTuY2M4PP/9+zDqTfd/J7PiqHX5+/vT7/TQ5iSr31Nz7O5g2fn50//nwG2/l+PHjwNNjjJBzJrU78ceccUxqWfwFJ0Jjmgz+jPV/9qfFyyZja9K4/zANMwszXjiRWJNETJwKY5NsfcoSOSbyVGIeZgCmNO5Yl9Qd+zh19RSPKg9isMtZ1p5M5GCElvoNnr1zidzYONtYrrfvvUo4u4Auny0nvuVktkwYzp8zv6efZiO9g98+GcwpI2eHrEk5av67acuI4TWydavLKO2SVcZHdY8r1m0Z1+L/3yvVlf1MnjSbEUsukgGkX9jN19/OJnjllczjwZMoVvw8lxHfb2fHvl3MW76Z6XM2sf5iisEu8gobkQjmgebNmyOXy0lNTSUsLCy/wxEKmKioKD744AP9l1Sa+W/ZunVr/TKFQoFGU7gPW6mHQwm/r3sNaqLCt3PuHdyCO/2/rcyb+ycLdlzJbCGROVG3axBBQV2p5/T+FhmLj49n+/btAPj7++dzNIWQWQnq1nLmZVNsLMpUor7rK8aiSa3w8XbnUdRt9A3PKgXpiqwuUnlJmtZ35M6122ToHk+9w9VED5rVyWxjNKnqSwfTo3y/IIWKjZxpE1CWk6tDOGZSnXoGbOBNiFz4NAn8zBcXGUjtG/OrPhmcyY48SAZlJRxwNgKkxWkzqg9tnynULcXBxQ5zCUiK1+CL4EaUfEHGIi/XiCDPOLafzpxZbFrZl4FusfwT+Tgz0SvmSa8eJYjetpcT5vUZ3L8Do7o4c3Dit0w4kCySQcRkkTzh4OBAu3btCA0NZcmSJXTt2jW/QxIKkAEDBjBgwAD97yEhISgUCkaOHKmvKVjYSaQStKmHCQ2L4cOPXJCqrxO27SwqZMhlalS64UWaGI5v3ktUuh012rSmkjWguM6+jUe5J3HFp0v9bFvVEHN8EztO3kcDaO6eYN1qW2q1rkmpqnWol2SFq/m7G/erfniGzX+HcfJWOsXKeBPYvS2Vst2dQfXgFOGb/uXszUc8kVlRqnILOgd645zVIKRJuEDYyg0cuwslvTvR+C3npK1atQqlUomFhQWBgYFvtzHhDcio0H84X/+xgWmLFfi6Q8zV81zNuM+1ZXtp/Hlz6g4dxfDZmxj/503qOyuJOn2LMmOHEaQrQyMvRde2Tmy5U5EmllJMfZrgM2st1sFu+pOzKuooc/fHorp9jAV73Rlgd4W/TsaTlHaAFcdK4prLqBMiF9H1s2XPJIE6umSQ0RPoE6xlxfRg/O0N2F5k7Iiroww7tx58/YJC3cYuTpSUFaPqR/3pVeplcUixNDd9po20mKnRM2tIjIwwMS1F7aqWmftwqsPH/ptou+wgwxu24aWbLiJEIphHPvroI0JDQ9m9ezdRUVF4enrmd0iCkEfkVK5fg5tHTnIkNIy7QUNwvhXO9tNKpK6N8TE+zP4bWasqL7L8syAWxdbi2xMtqGQtg9R9TP9oGDtlHVjcvj4e+u2qOLd0DMOX3Mu8qo+Yy5DBx/jqwK+kfTOUX696EvyvP7UdXldnQkHsxcPsl+rOiE+4nvBsO0HK8V/o3v079sQ+bcL8+bfu/BG+mD5lZGRE/k5gwHj2PDTBqawLJo9ucCtxKj+vmcWevwfh/mAzI/wHsOSKbmjITEq7Wbxxa4RWq2XBggUA9O3bF3Nz8zfckvBWjEoQMHoYAcoUYhOl2DT3JrDzEzC3wLoYgCtdPx9JV2UqD5NkdOlo+lw3shS3Hp8TpjTFFMC4EhOWf4HU/GlmIvf05suZ3nypX+LMlPm+6EYV7zoQneNwM0vELOVxi/9PAvURPZMMwsoZBkwGjTwJmjyBXu6VXlioW16uJb/+4Y1bPecXd7+/xOuvsaQ42lmgSU4mUUORTwSL+MvPO35+fri7uwMwbty4d1qiRhAKNgnWzTrRrLiEJ0dCCb+j4k74NiIUMtzbdqSG0eu38GLGtJ5zjbtz/TEGTDssIi75MBMq5bI7WHOfTWPaZo1l9MPPL5Cfjmbrs1ac4Kdhk9jzuCwDlp4mJi6aXRMaYRr9N19+tY6HGgXHVodwUeNA/S/CuXg+kkvHvqeRkYYHe7ZyKCWDIzMmsPxKBjZNvmLHtYfci/idRrLHb5wILlu2jP/++w+AIUOGvOFWhHfGyAIn+2IYY4yNQ3FsismfPbkameNg93wSmEVuikW2MjCm5mYYokReyoWldPtsKXGvSAJ1dMlgf20ofT+dxb8JhupAlVO6ehUqWr8kFZHbU9vbndfloVIjGTL9zfbU3LwThxqe/f9SK8nQFa3WJLD78G3cG9bAUzSHiRbBvCKTyfjhhx/o2bMnYWFhbNq0SXTnCEWGxKo1gc2ns2XDUUK3RKDZeoJ0WRnad66J0T7D7lt1Zh4jftyNflKyUXWGzB1Pc31wllQJ6Ia3o+5soyTqnxXsvZl5WlGdCyP8shKpgwuW0VtY8AegdcRJpuXKv2HsS+tB16lHif7mIZdPRbDtrz+5dHAdl1SARIlKcYU9B6JRS0vSacwYmjibgnNPxvafx9pvT+b69dy/f58vv8xsH+rTpw81atR4i7+OUDRoSI5LpUyXqSwNavzKJFAnMxn8Ads5x3j8RAvFDR/lmzKt7UPbjcdZvNOCMimx3E+zJP3cHn7fVZrPWzojAbTKu2xfth2VpyVJ505ytEQ/5g0ph5hrLxLBPNW9e3dWrFhBWFgYwcHB+Pr6YmNj8/onCkJhJ7HCr3NL7Dau5cjyL4i/mobMoz2BteW8bPqUvs1cq81BV8/Lqe+fZmfoZmJ0GzFOw+930DfPSGxo+PF0ZvrqTgkJLAtcxd6bma2C6riHJGhA8+gUa+f997RVx6EkJY3UpCQpubVjDD1HLuF0oinO5SpTuYoltjKIA9AkkZSiBakNjva6Q64Me/sXzVZ9vTFjxpCYmIidnV0hnU0u5D0pJZsMZ34u72cgtfdh4tc+hgnpHZI6+TB9Xm0exSahsa6FvX8j2qfJsSlujozMlkGJqTsdB7XEJzkFSbOGDBLZj57oGs5DEomEOXPmYGFhQWxsLMHBwYV+Jqgg5JRV6860dpCQEXmMs2kyvAICqfV/3cIy5DJAm0D848x+HNXdezzMwb+JVqN5YVerie/37L10iUu6r8gFdM9F64bcvQylpCBz7cuKS9e5fv0616NO8c/qZSxb/h0d7S6x7KclnE5wpOeyc1w9tZfNM7tSRnd0lZemjIscVLc4ffpBVozpXLgQhfrlu32hNWvWsGHDBgBmzJiBg4NDLrcgCO8pqQn2JR1wLCZFWsyaknbmmGZdtWkzlKSrlGSo5FjbF8dKJIHPEIlgHnN1dWXatGlA5kF95MiRIhkUigSJZQs6+5XIPOjIy9MhsNb/j4WSu1PWTQ7q66ybOpl5S2bx5ZgFRL6izIzcKLO+muLwHD4a+SNb7z7XfmhqR2k3d9zds77cnLDIxZFP5tGd/i1s0NxYRvDgKcxbuoAfPg6gaTN/Bsw7n5nYaQFtGvcuRnDixD7++nY+hxQAGtQaF9p1b0ZxSTK7vu3L6BmLmT/lQ0Yuu5GrRHDjxo18+OGHQGZpob59++bi2YJQRKVdZ9MuNa36uhG9MYLo3F59FQEiEXwBtdqwn5Thw4czcuRIABYvXiySQaGIsMC3sx8lpCCv0IHA6i+4LJeVpmfwYKpZabn37y+MHj6FPaXb09Lx5WVgirX8kGFN3LBOjWTj0lBOJ77j/yWZGwP/XMa4VvbcWPc9oz/+hO/+uoB583Es/qEjdsaV6f9pL8qbJ7B/ald8mwYy+bIbtZyloHnE/VgNpfvPYHZQTazjj7Bg/HBGzTxP9Tb1czw+aePGjfTr1w+1Wk3NmjVZtWqVwW6JKQhvo8Cdy8zK0iWoC6OfT4mAAAAUM0lEQVSDOjO6b23c39/Som9MNJBm4+qaWZHp/PnzBt2PRCLht99+A2DWrFksXrwYhULBjBkzsLAQd1EU3hfW9N+QSP9sS8z9/+Ra6p/ZltRjyukUst9gz7HNLxy+PJILl2PQlqhIFTdz0uMnk641wrKYMcZTTpOS7QlSx9ZM3vEfk7Pv+rltvji8/mxI7P+CB4ozYGMiA7IvKtmKiaEXCL59iYt3UjBzrkAlN2v9eEG3HvOJaPcd16LjMXH2wNXW5LmrbHe6/H4Q/y8vcfG2EvtyVShjpSF9vgbkL582rdVqWbZsGSNGjNAngbt27cLW1vZ1r04oIs5euJ7fITzjwaMExk1dRLeAptSs4iEuWAoBkQhm4+vry4wZMzh+/DhpaWmYmZm9/klv6PlkcMWKFezbt49Zs2bh5+dnsP0KQmEgK+5Gtfpu+t/NbWzJ/0p5UixcK1PvJRV8ZRYlKVel5Cufb+5cmbrOT5eYFnv52tevX2fEiBHs2bMHQCSBgp5SqSL83+MsWLmViMgr+R0OANYWFkgkErRaLUvW7GDJmh14ujvTLaApXds3xqWEfX6HKLyE6BrOpnHjxkgkEhQKBatWrTL4/nTJ4I8//oipqSm3b9+mU6dODBgwgJiYGIPvXxCEgicjI4Pp06dTu3ZtfRLYvXt3kQQKPHqcxMwFG6jTZjhDv5ipTwKreXnx29gv8jW2do2bEB2+jZ9GBVM164YJUdH3mDZrFbX9htF18CTWbN5LSmpavsZZkOVXfWGRCGZjY2NDv379APjmm29ISzP8B1YikTB27FjOnTtHs2bNAFi7di3lypWjX79+7N27t+CNuRAE4Z27evUqEyZMwMPDgwkTJpCenk6pUqXYvHkza9asEUmgIRXwAv/nLt1g1MQ51Go9lB9mryb2YTwSiYTAZs35d+4CTqxYxQcBHfI7TEraOzC6T18iQtZwYsUqRvXug2PW5/bg8fOMmjiHqs0HM3z8LPYdiUStFue27BRKpf5nY2NDlBV/MdE1/JxJkyaxevVq7ty5w+zZs/n888/zZL+enp78+++/LFmyhLFjxxIXF8e6detYt24dzs7OeHt7U7VqVapWrUrFihWxtrbG0tIyTz8sgiC8HbVaTUpKCsnJydy4cYNz584RGRnJ6dOniYyM1K8nk8kYOnQoU6dOxcrKKh8jfr/pxq8VxDRQpVKzbc8JFqzcyvHT/+mXF7e0JCiwM0O6dMOt5KuGIuSv6uXKUb3cp0wb8Qm7jh9jRXgYofv2kpauYH34AdaHH6CEoy1d2zWmW0BTynuUyu+Q811aejpIJBgbGyOT5d2sFpEIPsfNzY0RI0Ywffp0pk6dSlBQUJ4VfZZIJAwaNIjevXuzbt065s2bx8GDB7l37x4bNmzQ1w/LzsjICCsrKywsLLC0tBTJ4XtAmXVVOH78eH755Zd8jkZ4UxqNhuTkZJKTk0lJSSEpKem1vQxubm4EBQUxaNAgnJ2dX7mu8Pb0iWABahGMi09i5YbdLFm9nZgHj/XLK5f1YHiPnvRu04ZipoYbv/6uyeVy/H0a4u/TkMSUZNbt2sWKreEcOnOa+w8eM3tJKLOXhFKtYlm6BTQhsE0j7G2L5sWP7vhgZmaap/sVieALjB8/noULF5KQkMCXX37J3Llz83Tmk6mpKX379qVv375cu3aNLVu2cPbsWc6ePcuFCxdQKBT6dZVKJXFxccTFxeVZfELeOHfuXH6HIBiYh4cH1atXp3r16vj6+tKoUSOkUjFiJ88VgETw4pWbLAzZxvrwA2QonnYRdmjqy4gePWlau06hn4FrbWHJh50C+bBTINfv3iFk21ZWhIdz/e4dIi9dJ/LSdb79dTktGtWie0ATWjWtjYnxG9+MvNDRtQiamb1iFpkB5EkiWNjGuNnZ2TF+/Hi+/PJL5s+fj6urK1999VW+xOLh4cHo0aP1vyuVSu7evUtycjJJSUn6FgfdV1JSkr5FSSicpk6dilqtpnfv3nh4eOR3OMIbkkql+lb67F9WVlZYWlri5OSEpaVlfodpcAX5+K9LrDRaLVqtNs8TLZVKzc59ESxYuZUjERf1y60tLBjUMZChXbtRxsUlT2PKK2VdSvFV0EdM+HAwR89F8ldYGGv/2UlSago7951k576TWFua09Hfh+4BTaldzavQJ8KvExv7AAkSLC3ztoycQRNBS0tLYmNjSU5ONuRuDOLzzz8nMjKSkJAQJk6ciFQqZdy4cfn+QTQyMsLd3T1fYxAM66effkKtVjNgwABat26d3+EIwltJSkoCKJBjHbOPw1Kr1cjledNJFp+YQsjGzO7fOzGP9MsruLszokcv+rRth7kBy5cVJBKJhAbVqtOgWnWmj/mMsAP7WbE1nO2HD5GYnMryv/9h+d//4O5agu4BTejavgmlXRzzO+x3TqPRcP7SJZBJqVChQp7u26Cf+uLFM2/omZCQYMjdGIRUKmXp0qUkJSURFhbGhAkTuHXrFr///rsYgycIgpBDuuN/Xo21zg2JRIJMJkOtVqNUqQyeCF66eotFq7azLmw/6RlPh/i0a9SYET170bxuvXxvbMhPpiYmdG3Ziq4tW/Hg8WPW7NzOX2FhnLlymejb9/lpzlp+mrOWBrUr0S2gCQGtvLG0yNtuVEM5efoMSSkpyEzNqF69ep7u26CDUXT/+PHx8YbcjcEYGRmxfv16fUmZefPmUa5cORYuXCi6XwVBEHJAd/zXNQwUNEZGmWPQNBqNQY7rarWGHXtP0nXwJJp1/YwV63eRnqHA0tycT3r15tKGTWycPpMW9eoX6STweY62tozs2ZvjK0KICFnNp337U8Iusyj1kYiLfPrtXKo0G8zQL35j98EzqFSF9ybCScnJhG3fjkQup2bNmnl+0SRaBF/D2NiYZcuWUaZMGb7//ntu3rzJ4MGDmTp1KhMnTqRfv3551p0gCIJQ2BTkFkHI7B6Wy+WoVCoUSiUSieSdHNMTk1JZtWkPi1dv59bdB/rl5Uq7MbxHD/q2bY+lef7fL6cwqOrpxQ+fjOL74SPYfeI4K7aGs3HPbtIzMti0/RCbth/C0b44Xdo1pntAUyp6lc7vkHMsJTWVBcuWk6ZQYG5tTYcOAXkeg0EzGF0B1OjoaEPuxuAkEgnfffcd/fv3Z8qUKSxfvpwbN24waNAgxo8fT6NGjahfvz52dnZIpVIkEgkSiUT/8/PfC/NjuV1fEISi7ebNmwAFuiC2sbExGo0GjUZDhkKBRqPB2MgI3uAYduX6HRat2s7azZk183T8fRoyokdPWtb3FjPD35BMJqOVdwNaeTdgdmoqG3b/y4qt4eyLOMmDRwn8uWwLfy7bQuXy7nQPaELnto1wsCuYLdEAV6KusS40lMdJSchNTOjVqxcWFnk7UQQMnAj6+voyb948du/eTXJycqGfIefh4cGSJUsYP348kydPZuXKldy/f19f+Fn4f7oEsSAkse8ywTXkYyqVKr/fNkF4J5RKJVu3bgUyzwcFlUQiwdTUlPT09MwuYpUKVdbkEblMlvk/iwRekhdqNBr+PXiGBSu3sv/o08LgFsWKMSCgAx937U45N7cXP1l4I5bm5gwI6MCAgA7cjInJLEWzNYyrt25x4XI031yO5rvpK2jesAbdAprg51sHU5P8G9+v1WpJT0/nSVo6N25Gc+psJFeuXUMik2NsVox+/fpSsWLFfInNoIlg27Zt9f9cK1as4OOPPzbk7vKMl5cXy5cv5+uvv2bnzp0cPXqUiIgI0tLS0Gg0aLNKEeh+fv77mz5WGOleE2TOyhMEoejYuHEj8fHxSKVSOnXqlN/hvJJEIsHMzAyFQolSqUCr1aJUKjPHDeoOv5KnJWcAklKesD7sAMv+3vVM96+roxPdm7ekrU9DLMzMSE1I5HRCJILh+Neui1+tOly4cZ2tRw6z8/hRkp88YdeBU+w6cApLczPatqxH5zaNqFM9d6VodOewm7duc/rs69/Hazcye0GVSiVTf51Oeno66RkZaDRZHySpBIlUisTImLIeZenWrRuOjvk3E9qgiaCVlRW9e/dm8eLFfPPNN3Tv3h07OztD7jJPeXp64unpybBhw/Jkf7qk6l0ml4ZMXN+Hx/Jjv6GhoQW69pog5ERKSgpjx44FoEOHDpQ04O3Q9PUA38H/jbGxUdaYQSVqtTpzm9lyBq1Wy/WbMSxft4v14Qd5kpahf6xepUp0adaC+pUq67t/M1RiYmFe8ipdmlGlS/Nx5y4cOX+OHUePcOT8OZJT01gTuo81oftwdXYgsE1DAtv45KoUjUqtytH7qci2TnxqauYPcqOskQYSTEyMqVChInXr1qFChQr5PozK4LMcJk+ezLp163j48CFDhw5l9erVeXoPvfeJrksREH/D95ipqSkZGRmvX1EQCiitVktwcDA3b97ExMSEn376yaD70w07StaddN+SVCrRlwnTXbSp1Rr2HTnLwpBt7D18Vr+umakpPVr7MbBjIF6lC88khaKgUsWKfNitO3GJiYTu2c3f/+zk7JXL3L73kN8XbeL3RZuoW6M8Xds3pn0rb6wtXzJ5JytPc3JywtPT87X7PXszs0XQ2tqaXr17Y2JigpmZmf7LysqqQE0yNXgkzs7O/PzzzwwZMoR169YxcOBAFi9eXKD+CIIgCMK7odFoGD16NAsXLgTg22+/xcvLy6D71FeoSE5659tOfZLOms17WRSyjes3Y/TLy7iUYniv3nzQMRDrQj7+/X3n4OBIBU8vvhg8hEvXr7Fiy2ZWhodx90EsJ85c5sSZy0z8cSn+zerSrUNTmvnUQC5/2tgiycoELa2scHB4fQuiJmt9R0dH6tSpY5gX9Q7lSTY2ePBgrl+/zo8//shff/3FhQsXWLBgAbVq1cqL3QuCIAh54NKlSwwePJhDhw4Bmcd+XfewIelr1ia9u0Twxq0YFq3azqqNu0l9kq5f3ry+NyN796FNoyaiZ6YQqljWg+9HBTNpxCfsO3mCv7ZsZsOuf3iSnsbmnUfYvPMI9rZWdM4qRVO5fO7v5BWflAgU3JJJz8uTRFAikTBt2jRMTEyYPHkyp06dok6dOrRu3ZqePXvi4+ODra0t1tbW+uKegiAIQsGlUqlITEwkPj6eY8eOsXbtWsLDw/WTwkaOHMnMmTPzpFSK7oT7ODHxrbaj1WrZfzSSBSu2suvAKf1yM1NT+rXvwPBefagk7v/9XpDJZDSv703z+t7MGv8Vm3bvYvnmUPYcP8ajx0nM/yuc+X+FU8GrNPdi43K17YSsC5KCWkT9eXnWP6urxefv78/gwYO5cOECO3bsYMeOHc+sZ2FhQfHixTExMcmr0AShQNGND/zggw8oVuz9uH2S8P5QKBQkJCS89B7yHh4ezJs3jxYtWuRZTGXLlgUg4uIFMhQKTHJ5G9DUJ2n8vWU/i0K2cfXGXf1yN2dnhvXszcBOgdhYWb/TmIWCw6JYMfq270Df9h24fT+GkK3h/LU5lMvRN/jv6q1cb+/QmcyLCN3nsqDL84F6DRo04MyZM4SHhxMSEkJ4eDip2Qb4pqSkkJKSktdhCUKBExMT8/qVBKEAMDU1xd/fn169etGpU6c8vx97QEAAEomE5NRUth7YR2CLVjl63s07sSxetZ2QjbtJTnmiX960bj1G9upD+6a+ovu3iHEtUZIvBgUxduCHRFy8wIotm1m1LTzHrc1Rt25x4vx5gAJfMklHos3nAnUKhYKHDx+SkJBAfHy8/ru4l69QVA0ZMgSVSkVwcDBVqlTJ73AE4RlyuRwbGxuKFy+u/+7g4JDvvTjt27cnPDycKp5eHF+19v+GGbUIGsj+kycYM7Qb3rUrsmDlVnbuPal/3MTYmL7tAxjeqw9VvcrldfhCAaZQKtlx6CAlHRyoU/nVx+ReY8ewbucO3NzcuHbtWqG4kMj3RFAQhGfpysfs2LGD1q1b53c4glAoREREULduXbRaLeOCPmLSiE+eebzFhx+wP+Lk/z2vlFMJhvXsxaDALtgVkjFdQsG0bucOeo0dA8DSpUsZMGBAPkeUM+KGh4IgCEKhV7t2bYKDgwGYtnA+Py5e+OwdmZ4r2tu4Vm3W/DKdq+Hb+XzghyIJFN5K6O5/6Tf+CwBatWpF//798zminBPF/ARBEIT3wrRp07h69Spbtmzhq99nsu/ECWaNn4CHa2ahZ2MjI3q3bc/wXn2oUaFCPkcrvA8excfz1ayZLNqwHoCqVauycuXKfL9bSG6IrmFBKGBE17AgvDmFQsHAgQMJCQnRL/OtW4/SJUviXa0GriVKUNzKiuKWlhiLcmVCDqnUahKTk0lISiIhOZlHCfHsPnaMrQf2ocia09CgQQNCQ0NxcHDI52hzRySCglDAiERQEN5eaGgon3zyCbdu5b78hyDkhrW1NZMnT2bYsGGFYnLI80TXsCAIgvDe6dixI+3atWP79u2sX7+eo0ePkpCQQEJCAunp6a/fgCC8gG7WvI2NDZUqVaJLly4EBgZibv6S+xQXAiIRFARBEN5Lcrmc9u3b0759+2eWp6enk5CQgEqlyqfIhMJGKpVibW1NsWLFCtX4v5wQiaAgCIJQpJiamlKiRIn8DkMQCgRRPkYQBEEQBKGIEomgIAiCIAhCESW6hgWhgDl8+DBarRYvL6/8DkUQBEF4z4nyMYIgCIIgCEWU6BoWBEEQBEEookQiKAiCIAiCUESJRFAQBEEQBKGIEomgIAiCIAhCESUSQUEQBEEQhCJKJIKCIAiCIAhFlEgEBUEQBEEQiiiRCAqCIAiCIBRRIhEUBEEQBEEookQiKAiCIAiCUESJRFAQBEEQBKGIEomgIAiCIAhCESUSQUEQBEEQhCJKJIKCIAiCIAhFlEgEBUEQBEEQiiiRCAqCIAiCIBRRIhEUBEEQBEEoov4HKe1JvKhnI94AAAAASUVORK5CYII=;" vertex="1" parent="1">
          <mxGeometry x="30" y="440" width="425.05" height="359.5" as="geometry" />
        </mxCell>
        <mxCell id="YY16_9WFN3RDnf-ZN_8t-1656" value="&lt;div&gt;&amp;nbsp; delta-tuning本质上是一种子空间优化方法。&lt;/div&gt;" style="whiteSpace=wrap;html=1;rounded=0;arcSize=50;strokeWidth=1;spacing=4;glass=0;shadow=0;dashed=1;" vertex="1" parent="1">
          <mxGeometry x="1164.38" y="650" width="130" height="40" as="geometry" />
        </mxCell>
        <mxCell id="YY16_9WFN3RDnf-ZN_8t-1658" value="delta-tuning可解释为为PLM寻找最佳控制器。" style="whiteSpace=wrap;html=1;rounded=0;arcSize=50;strokeWidth=1;spacing=4;dashed=1;" vertex="1" parent="1">
          <mxGeometry x="1156.88" y="740" width="145" height="40" as="geometry" />
        </mxCell>
        <mxCell id="YY16_9WFN3RDnf-ZN_8t-1660" value="" style="shape=image;verticalLabelPosition=bottom;labelBackgroundColor=default;verticalAlign=top;aspect=fixed;imageAspect=0;image=data:image/png,iVBORw0KGgoAAAANSUhEUgAAAG8AAAAvCAYAAADtnZQMAAAF+UlEQVR4nO2ceWwUdRTHPzO7227p9qJCodxYkNBqASFQRIQW0HIIqDExQRBJ5BLCIQoI5VSJCCKGQ5AbrJyiFIhA5TAcInKJVIhpgQS2nAUKu9vu7qx/bLrt0pmySocy7XySye78fm/fvF+++37zfjszK3g8Hg86mkSs6AB0/j+6eBpGF0/DGOUaJcmDoc/0xx2LzkNwb01DFAXfvmzm7Ttz4bEFpBM4KzJP+O0rTptBRoPqwegETsOakaXaZKdNAFEUcGxJQ9IXEhWKIECQCAkjFpbqK7Ng0YWreDwecEnyfXq1qQHcCkkkK56kp5wm0DNPw+jiaRhdPA1TZcS7aStk4+lcQidlEjopkx/+usq9ApefjcfjYV/2TZ/NuhNWzl+/X8rXxTw76SetPrufz9/A/UCdUOiSyMi65rNZf8qKNd8hE9hpOLcGFlfzvloPBTwmxXVeZSI3v4BW849wx14sVr/0MzSsHsKxEW0JMXl/kBiyJYu1J6w+m/c2n0UUYO1bCfRuHgPA4Yu3SV1+HGeJEvC11adIiavOT++0BLwFX8rSPzh++a7P5t2NZzEbRQ4Oa0OzmhZvY9YK2D+8ONC9g72viaMg6dOHjqtKZN72rBt+whVx4Zadw5duA+ByS6w/nVvKRvJA+sni9g2nc/2EKyLzn1tcvVcAQNa1e37CFeFwSWz681pxw7l18gGf/67M8RRRJcS773Qr9xV6+5ySR1aUkjYAtkKFFXMJO5uzDJuSsbht8kau0lO1HKqLdyEnhxHDh9KsSSPqx9akdYtnmZo2CZvNP/AFX3/FpInjcTqdaodUaVBVvMw9u+mQ1IYrVy6TsWMXl65cY9W6dNauWUXP1G643d5vodVqZfyHHwBgMpnUDKlSoZp4OzK20btnKkkvdGDj5q3ENWkCQHx8AsPfH8mRw4fYsD4dgLWrVxIdHc24jyaoFU6lRBXx7HY7Y0aPJCQkhMVLliGK/oeJi/MK+fvRo0iSxKqVy1m0ZBkRERFqhFNpUUW8+fPmcuniRQYMHITFYvHrKygoIP9ePgC5uVYO7N9Ht5dTSe3eQ41QKjWqiLf+e2+p2+vV3owbO5pIi5nG9WOpHl6NndszyMnOBqBWrdp06pzM3Hnzy/S3Z/cuosJCFLdpUyarMYwnnnJfpNtsNv7OykIQBNq2SyI2tg6Tp0zDYrGQk5NNgwYNWbpkMQBJ7dsH5LNL127k5dvLO1TNU+7i3blzB4Do6GjMZjNNmjb19TVvHo/VauXXA/uJiYnhlVR9qnwUyn3ajImJwWw2Y1Qo+b9ZtACXy8XUGZ8QFhYWkM/MPbupERWmuM2YNqU8h6AZyj3zRFGkXVJ79u/bS15eHlFRUb6+U6dO8uWc2bzY8SX6vT0gYJ8pXbpyPS+/vEPVPKoULJ99/gUmk4nx48bicDhwOBxs2bSR1K7JvP7Gm/yYsRODQb877VFR5apCYmILDv52jLSPJ5CY0AyH3U6jxk8za/Yc+g8YqMYhqySqXRKKj09g89ZtarnXoYpcVais6OJpmCohXr3IYMW+uuFmAMxGkehQ+eVNvQhzsb2CryCDQM3QIABiI4IRBFkzP1+E1pU3sii0P0CVEK9Xsxr0TaiBscQTNsFGkaHt6tKyTjgAgiAwp0dTnnpAwMTaYYzp2NC3P7htXdo3iPQTJ9xsZFZqUyzB3hKiTriZySmNCQ0qrqhFAZLjoujfqnbxB1tPhKhn/IMNjYWkWQGNS5B7rHnPyWx6zUznVvrEgJxoBadbInLKXgDuTk/GIJZOD4/Hg2XyLwDcmtqZYKP897vQJRE11esrf3qy36NXRUiSh7A0r6/b0zpjMijkissB31b3vh8if3X9+VELGdsniUFdW/naqsQNSEWYDCL3Z6aUaSMIwkNtAIKMD/clioH5wmhWFK1M///5EzpPDLp4GkYXT8PIiid38tWpOJTU0DNPAygVqWWKp1Al6zxGDIJ3k0NxqeB0uQnqq/+dx5OMbG7VCK9W6qkXnYplWPc29Ov0nF+b7C8sOtpAP6tpmH8BwCPalBK2TIQAAAAASUVORK5CYII=;" vertex="1" parent="1">
          <mxGeometry x="1195" y="170" width="111" height="47" as="geometry" />
        </mxCell>
        <mxCell id="YY16_9WFN3RDnf-ZN_8t-1661" value="" style="shape=image;verticalLabelPosition=bottom;labelBackgroundColor=default;verticalAlign=top;aspect=fixed;imageAspect=0;image=data:image/png,iVBORw0KGgoAAAANSUhEUgAAAGsAAAAvCAYAAADkdjR2AAAFf0lEQVR4nO2ce2xTVRzHP7cP6UbHGA3rNhXGY4Q9YBgfsIEKjKFDHgZwahAJMTExyBIek4cDNsBIQBAxvEaQp8JEEGRAAlvYIIDgg8dIUKPbeK0w1Dk22m5rb/2jcteyFsi4svVyP8lNes759Xd+N9/+zv313NsKLpfLhUpAoGnpAFTuH1WsAEJ3+0VJ+XV6Z6xpyVhUfFCwYDwpiV0Bj8y6cdOKViO0WFAqTQkzGiiv/Edq6zwH9TottrzZOMSHHpeKB1oBdBpImLzKq193p6EqVMvjdIHgo0ZXC4xWitNH0khiiaL6das14UsNNbMCCFWsAEIVK4BQvFgOp0jbrELaZhXi9HNddrlckk393cphZwOsCXYffrZURbHRV4OvKuEBUKxYDqfI+LwSTDlFUl/H+UVk7vvVy27HuWtELzoqtcOyD9N/1Sn++MvaaGS7DntSYV37xr4NUXB+rZevxcVlRCwsltodsg8zcuNpauscspyTYsX67sINdpVU4vDIpjqHyKoTVzh99Sbgzqjp+37jz1sNXu89U1HD0iPljR3nc8FyDK8arb4ajs+A+loAKm7amV9Qyq16p2QiuqDw97/Z/LNFlnNSrFhXquv8jl2utgNgaxCbCOXz/bWXfTsS68FeCcDV6jp/K6M034OiWLGUyP8iVnlZGZMnvUfPmC50igrnmT69yJ6bhdVq9bJb+flnZM2eSUOD70+3ijeyi1VYcIgBSc9SUXGV/P0HuVRRyaYvt7F1yyaGpw3F6XSv6RaLhZkfTAdAr9fLHYYikVWs/fl7GTU8jaT+A9ixczfdY2IAiI9PYNL7GXx/4jhf520DYOvmjZhMJjJnzJIzBEUjm1g2m42pUzIICgpiTe56NBpv1927u4X74dQpRFFk08YvWJ27ntDQULlCUDyyibVi+TIuXbzIhInvYDQavcbq6uqoqa0B4No1C0eKixj6Uhppw16Ra/pHAtnEytv+FQAjRo4ic9oU2hsNdO0URYd2wRzYl09ZaSkAERGRDBw0mGXLV9zVX8Ghg4SFBPk9cubNkSv0gKHJzcfmYLVa+eXCBQRBoG+/JKKiHmfOvByMRiNlZaV07hzNulz38x1Jycn35XNI6lCqamxyhKcYZBGruroaAJPJhMFgIKZHD2ksLi4ei8XC0SPFmM1mXk5Tl77mIssyaDabMRgM6PyU4GtXr8ThcJC94CNCQkLuy2dhwSE6hoX4PRbkzJMj9IBClszSaDT0S0qmuOgwVVVVhIWFSWNnz57h06VLeP6FF3lr/IT79pkyJJUbVTVyhKcYZCswPl78CXq9npmZ07Db7djtdnZ9s4O01MGMGZvOnvwDaLVauaZ7JJElswASE/tw7OSPzP1wFokJPbHbbHTp2o1FS5by9oSJck3zSCObWODeqdi5e6+cLlU8UHfdAwjFihWs939qbR9zXzv1WgG91vcj47dt3IbB/ifSBd97Pr0812rFijU8tiOhQU1X+egOQSR3dt+e12s1pPc2N7ERBHg90aO/WzpofFwxnkiB4AgAYsONPBXVromJQadhTEJ4M8/CG8WKFRHShpIpSWx4LU7q2/JGAicnPUeQxyd97eg48if28Wr/lNGXV+M9xIpMhjfPweB1jX1pO2HYt1JToxEofPdpto/rJfWtHxtHydQkYs3ee6XNRdYCo7VhCn6M9MRI0hMj/doIgsCgbiZuLUy5u7OQaPfRY5xfkzY6DSNiw+/tq5koNrOUiCpWAKGKFUBIYmnUXz22etTMaqX4+vrXRCw1wVoe4b+fqd6JV+kuii4Mo+c/rJhU7oFwR+J46VfvcKLSenC5ILnnk1JbyqyBCdEtEpCKf+p3ZaHXNe62COp/NwUOajUYQKhiBRD/AnJvnVIwsKjZAAAAAElFTkSuQmCC;" vertex="1" parent="1">
          <mxGeometry x="1195" y="323" width="107" height="47" as="geometry" />
        </mxCell>
        <mxCell id="YY16_9WFN3RDnf-ZN_8t-1662" value="" style="shape=image;verticalLabelPosition=bottom;labelBackgroundColor=default;verticalAlign=top;aspect=fixed;imageAspect=0;image=data:image/png,iVBORw0KGgoAAAANSUhEUgAAAGsAAAAwCAYAAAAW9oQ4AAAHPElEQVR4nO2cfVRT9xnHPzckmGB4ayxBykhrgQLB6c6qE1+6Ksqk1YrVrT2rrmu7ndbZioJuzqNSV7vurFOrnatQYaKutlo9dNByjm8TurLW+gKVgrIdKagEEUTkLbwk7I9ABJNg6C5Csvs5J+dwn99zf89Dvuf3y3OfexOhq6urCwmXQDbUCUg4jySWCyGJ5ULIe/4wXG8k6OebhzIXCTuU7XiZsCAN0GtllV6uHbKEJOyjkMvI/7rCeizvPaj0lNO0fw3tprue17CnobWDs4abPJ5RCEDBryYwLshnUGIpZCD3EIhaur2PXX67oySULecMjcxKP0OjsdNqm/yXL3l6fCDpC/VWW/rJK2z69Bsq6o0AaEYqiAvX8OcnIlAqPJyO12EGBNsrKqnAcILdZ6r6CNXD+4XV1LW0A3CtuZ2knAtWoQDqmjvYd7aa9wqrBxzTZLa1WcUym6VrY0c02BHq9rGK+lY6HbyH/6lrGXBMe1NJK0sk+usDibUMJLFcCEksF0ISy4WQxHIhJLFcCJuLYnfialMbR8qu8+KhEgAyfhxFfPgofFQKq4/Z3MXhf9eyYM9XALw9L4IJwT6MHe09JDn3h9uKVXXTyPe2fk5T262WzPMHSgj2U3J22SS8PC0dhRcOfs3+oqtWn1c+Og9A5lN6Fo4NvLtJ34FB2Qa/KS/nlaVLiAh7gJCgAB4eP5ZX16+lpaXvxeH2t7eyds1qOjo6RM/h49LaPkL1cPmGkYLKegA6TGYOnauxe/6H567atQ8loot17OgRpsZMoKrqCjmfHKayqobMv+1j755M5sTHYTJZ3kCDwcDqX68EQKFQ9Dflt6K1006/ppuWdstYh6nLYdehx2c4IapYn+RkM29OPDFTpnLgYBahYWEA6PXRLH15GZ//q4D9H+wDYO/uXWg0Glb95rdipuDWiCZWa2srSSuWoVKp2JGWjkzWd+rQUItwX548idlsJnNXBu+kpePr6ytWCm6PaGJte2szlRUVPPvcC6jV6j5jbW1tNDY1AlBdbSA/7wRxP4on/rHHxQr/f4FoYn3w/nsAzH1iHquSV+CnVjImJIh7fLzI/TiH8osXAQgMHM2j02ew+a1t/c539Mhh/L1VDl8bUtaJlbrLIErp3tLSwvnSUgRB4AeTYggKuo91KRtQq9WUl19Ep7ufd9N2ABAzebJTc86cFUd9Y6sY6bkNoojV0NAAgEajQalUEhYebh2LitJjMBj4ND8PrVbL7HjX2/ruVXvatXvIBDTdF9hKueNNqr+xgSDKLFqtFqVSidxBCZ76znY6Ozt59bXX8fZ2rjNw7OgR7vX3dvh6bUOKGKk7xS8nBjNGo+pjkwmwbMIo9mSkYjKZ8GyqJnSUl825MgHmRIwSJQ9RVpZMJmNSzGTyTvyD+vp6/P39rWNFRYVs2fQm0x75IYsWP+v0nLEzZ3GtvlGM9P5n7vdXUZQYw6UGI1GbCgC4vOYRZJ2tJCQsZ9dfdxGgDeDEgSwOFteQ+PcLAPx+digzQ+9BHyhO60q0AuONP/4JhULB6lXJGI1GjEYjhz48QPysGSxY+BM+ysnFw8P5h0aGGzKZgM5fRfPGWJo3xuKrUqBWexMZGcWlS5XoQnT4KuX8YmKw1Sdxqk40oUBEscaNG89nX5yitvYa46IjeOhBHdu2buEPb24iI3MPSqVSrFDDgoKCApKTkyguPsfp02coK7vAihXLaWtro6HhxqDEFLWRq9dHczArW8wphyX5+XkkJ6/Ey0tFdnY2Pj6+ZGVlkZCQwOLFi5gyZQqJictFjyvdz/oWpKamUlpaQkhICGazpYeoVnsz/8knOXXqNDt37rTaxcRtb5EMCl1mbm5VE3IDCguLrC00AEEQeOnFlwi+L5jUlJ9yNElN3JZmEATRwksryxlaayD7MUjzwUcJb8yF0H/OgJL0Pm7y4m0kXF9C7hKY9iDwri/kLoD2JlHSkMRyhuI0uHICunptbcY6+GwldDRbjlsM8MV6aLc0CFQKwNwJFblQtleUNNxWrBC/EQ7HdH6WylSlkBHgoDuh8+9VvTZV2p/I1Aat3TcpGy/3FbM3Nyvs2weI24o1NzKAp8Zr8fS49Zkx0tOD5dNCrN/+EASBzXPDCfK5JawgwMTv+JI0TXfXc74TbltgeMgEMhZGk76gC/W64wDUrH/Uxm++Xst8vZaRa48B0Pi7GQgiFgVi4rZi9SAIAs0bY+/o54zPUOO226A7YhVLJhueS39YMMLP8Zii+7GEEf08nqDs53wH2JNDWlnOEPkcKDW29qjnQdVt9wuHMfNsfUaOhocWDTikvVtgNp9Znh7SV1Vt8I+EZ85DXTFkTbfYni4Cv7C+fnH74HoJ7H/Ycjw/DzRjQT6wJrZCZimQbkfo+Tmg41+VE7t298D/EYlBJTflGWZ/PxTotbKiQwKGLCEJ+xzf+DOmf/cB67Eg/dCW6yAVGC6EJJYL8V/m9TR4Hni+agAAAABJRU5ErkJggg==;" vertex="1" parent="1">
          <mxGeometry x="1195" y="462" width="107" height="48" as="geometry" />
        </mxCell>
        <mxCell id="YY16_9WFN3RDnf-ZN_8t-1663" value="" style="shape=image;verticalLabelPosition=bottom;labelBackgroundColor=default;verticalAlign=top;aspect=fixed;imageAspect=0;image=data:image/png,iVBORw0KGgoAAAANSUhEUgAAAHgAAAAuCAYAAADjs904AAAEP0lEQVR4nO2cf0yUZRzAP+/h1VFHtLutU9gyE5gTHG5WemCibFqnVzREt5ZGSmtrlpsZAmWoOVdL7eecRslAVCCi6SSc/VgBy8J+KFtAbcUlFEeN8WPE3RFw1x9urVuye9/jvevl3fP567b3eb/f53k/93zvfe7ee6RAIBBAoFsM/3cHBJFlVrgn+v3BE1+UAXWR/vXaYJCmbBcKWYIfOlDD2dYfw04iUJ9bbzYxWF0Usp2sEu0PBHgka9G0OyVQh0NbVzPp98tqK7tEJ1pvwVNfGnanBOpgkOCztp/lt5fVKgB+8SGrCfwBZfc7sgQLt9pCyWQTyySdIwTPQFQv0YKZixCsc4RgnSME6xwhWOcIwTpH84J/cbl4etuTLEiex+0Jt3HX4kXsLd2Nx+PRRM4jb73B7ueKGR8fj1h/poOmBX/6yccst99Nb+9vNDR+RHfvH1SequZkVSVOxxomJydDxrh8+TtFF19JTrfbTfGuZwEwGo3KBxgFNCu4seEcOU4H9szl1NWfISk5GYDU1DS2PbWdr768yHu11SHjuHt7yc1x0t/fr3rOkycqsFqtFBaVhDnKyKNJwV6vl2d2bCc2NpZjZccxGIK7mZR07cJ/felSyFhr1zl5bGsB2VmZdHS0q5bT7/dTWVHO0bLjxMfHKxpfNNGk4Ddff5Xuq1fJ31KA2WwOOjY2NsbInyMA9PW5ZcVbn7eRwqISsldk0vhhgyo5m5s+Z819Dhxr1ykaW7QJ+5GdSFJbcxqABx7MoXDnDk5UlGOxWBgaGqK8ogpXVxcAs2fPCTpvYGCAe5akTxl3dHSUDbk5tH57hbS04AcYlOZcuSqblauy1RlwBNGcYI/Hww+dnUiSxNJldhISEnlhzz7MZjMuVxdz597BO2XHALBnZASda7FY+MnVc924Lc1N5Dgd7Nm3/z9yp5NT62hO8PDwMABWqxWTyURySso/xxYuTMXtdtPS3ITNZuN+h7zy2N7+PfmbHubd8kpy8zZEJadW0Jxgm82GyWRi1hTLjrePHmFiYoK9+w8QFxcXMt6vPT0U5G/mVE0d9ozMqOTUEpq7yTIYDCyzZ/B7Xx+Dg4NBx9rarvDa4YPcuyKLTZvzZcW7cOE8Vadrp5QbiZxaQnOCAV565RBGo5Hiwp34fD58Ph8fvF+HY3U26/M2crbhPDExMbJiFTz+RFDJjUZOLaG5Eg2Qnr6YL1q/ofT5EtLTFuDzepl353xePniYR/O36CZnNNCkYLj27VH9mXO6zxlpNFmiBeohBOscIVjnCME6RwjWOUKwzhGCdY4QPANR8n9/IVjnyBIc/g4RgkigZMsOeTNYAklY1gSSFKESbZCUvXME6iNJcINB2a47sn9saOnoxpT7YlgdE6jL0pRERrx/yWorawYvmT+Hi53Xf9ZJEH1uutFI7a48WW0lsZWhvhHLJJ0jBOucvwG3SrF3Ja4JSQAAAABJRU5ErkJggg==;" vertex="1" parent="1">
          <mxGeometry x="896.25" y="317.5" width="120" height="46" as="geometry" />
        </mxCell>
        <mxCell id="YY16_9WFN3RDnf-ZN_8t-1664" value="优化" style="text;html=1;align=center;verticalAlign=middle;resizable=0;points=[];autosize=1;strokeColor=none;fillColor=none;" vertex="1" parent="1">
          <mxGeometry x="1084.38" y="640" width="50" height="30" as="geometry" />
        </mxCell>
        <mxCell id="YY16_9WFN3RDnf-ZN_8t-1665" value="最优控制" style="text;html=1;align=center;verticalAlign=middle;resizable=0;points=[];autosize=1;strokeColor=none;fillColor=none;" vertex="1" parent="1">
          <mxGeometry x="1074.38" y="730" width="70" height="30" as="geometry" />
        </mxCell>
        <mxCell id="YY16_9WFN3RDnf-ZN_8t-1666" value="" style="edgeStyle=orthogonalEdgeStyle;rounded=0;orthogonalLoop=1;jettySize=auto;html=1;endArrow=none;endFill=0;" edge="1" parent="1" source="YY16_9WFN3RDnf-ZN_8t-1669" target="YY16_9WFN3RDnf-ZN_8t-1670">
          <mxGeometry relative="1" as="geometry">
            <Array as="points">
              <mxPoint x="1042.5" y="1075" />
              <mxPoint x="1042.5" y="930" />
            </Array>
          </mxGeometry>
        </mxCell>
        <mxCell id="YY16_9WFN3RDnf-ZN_8t-1667" value="" style="edgeStyle=orthogonalEdgeStyle;rounded=0;orthogonalLoop=1;jettySize=auto;html=1;endArrow=none;endFill=0;" edge="1" parent="1" source="YY16_9WFN3RDnf-ZN_8t-1669" target="YY16_9WFN3RDnf-ZN_8t-1671">
          <mxGeometry relative="1" as="geometry">
            <Array as="points">
              <mxPoint x="1042.5" y="1075" />
              <mxPoint x="1042.5" y="1215" />
            </Array>
          </mxGeometry>
        </mxCell>
        <mxCell id="YY16_9WFN3RDnf-ZN_8t-1668" value="" style="edgeStyle=orthogonalEdgeStyle;rounded=0;orthogonalLoop=1;jettySize=auto;html=1;endArrow=none;endFill=0;" edge="1" parent="1" source="YY16_9WFN3RDnf-ZN_8t-1669" target="YY16_9WFN3RDnf-ZN_8t-1672">
          <mxGeometry relative="1" as="geometry">
            <Array as="points">
              <mxPoint x="1042.5" y="1075" />
              <mxPoint x="1042.5" y="1013" />
            </Array>
          </mxGeometry>
        </mxCell>
        <mxCell id="YY16_9WFN3RDnf-ZN_8t-1680" value="" style="edgeStyle=orthogonalEdgeStyle;rounded=0;orthogonalLoop=1;jettySize=auto;html=1;endArrow=none;endFill=0;" edge="1" parent="1" source="YY16_9WFN3RDnf-ZN_8t-1669" target="YY16_9WFN3RDnf-ZN_8t-1679">
          <mxGeometry relative="1" as="geometry">
            <Array as="points">
              <mxPoint x="1042.5" y="1075" />
              <mxPoint x="1042.5" y="1115" />
            </Array>
          </mxGeometry>
        </mxCell>
        <mxCell id="YY16_9WFN3RDnf-ZN_8t-1669" value="delta-tuning测试" style="whiteSpace=wrap;html=1;rounded=1;arcSize=50;strokeWidth=1;spacing=4;" vertex="1" parent="1">
          <mxGeometry x="906.25" y="1060" width="110" height="30" as="geometry" />
        </mxCell>
        <mxCell id="YY16_9WFN3RDnf-ZN_8t-1685" value="" style="edgeStyle=orthogonalEdgeStyle;rounded=0;orthogonalLoop=1;jettySize=auto;html=1;" edge="1" parent="1" source="YY16_9WFN3RDnf-ZN_8t-1670" target="YY16_9WFN3RDnf-ZN_8t-1684">
          <mxGeometry relative="1" as="geometry" />
        </mxCell>
        <mxCell id="YY16_9WFN3RDnf-ZN_8t-1670" value="性能" style="whiteSpace=wrap;html=1;rounded=1;arcSize=50;strokeWidth=1;spacing=4;" vertex="1" parent="1">
          <mxGeometry x="1196.25" y="910" width="76.25" height="30" as="geometry" />
        </mxCell>
        <mxCell id="YY16_9WFN3RDnf-ZN_8t-1692" value="" style="edgeStyle=orthogonalEdgeStyle;rounded=0;orthogonalLoop=1;jettySize=auto;html=1;" edge="1" parent="1" source="YY16_9WFN3RDnf-ZN_8t-1671" target="YY16_9WFN3RDnf-ZN_8t-1691">
          <mxGeometry relative="1" as="geometry" />
        </mxCell>
        <mxCell id="YY16_9WFN3RDnf-ZN_8t-1671" value="组合" style="whiteSpace=wrap;html=1;rounded=1;arcSize=50;strokeWidth=1;spacing=4;" vertex="1" parent="1">
          <mxGeometry x="1196.25" y="1200" width="76.25" height="30" as="geometry" />
        </mxCell>
        <mxCell id="YY16_9WFN3RDnf-ZN_8t-1688" value="" style="edgeStyle=orthogonalEdgeStyle;rounded=0;orthogonalLoop=1;jettySize=auto;html=1;" edge="1" parent="1" source="YY16_9WFN3RDnf-ZN_8t-1672" target="YY16_9WFN3RDnf-ZN_8t-1687">
          <mxGeometry relative="1" as="geometry" />
        </mxCell>
        <mxCell id="YY16_9WFN3RDnf-ZN_8t-1672" value="收敛" style="whiteSpace=wrap;html=1;rounded=1;arcSize=50;strokeWidth=1;spacing=4;" vertex="1" parent="1">
          <mxGeometry x="1197.5" y="1000" width="75" height="25" as="geometry" />
        </mxCell>
        <mxCell id="YY16_9WFN3RDnf-ZN_8t-1690" value="" style="edgeStyle=orthogonalEdgeStyle;rounded=0;orthogonalLoop=1;jettySize=auto;html=1;" edge="1" parent="1" source="YY16_9WFN3RDnf-ZN_8t-1679" target="YY16_9WFN3RDnf-ZN_8t-1689">
          <mxGeometry relative="1" as="geometry" />
        </mxCell>
        <mxCell id="YY16_9WFN3RDnf-ZN_8t-1679" value="效率" style="whiteSpace=wrap;html=1;rounded=1;arcSize=50;strokeWidth=1;spacing=4;" vertex="1" parent="1">
          <mxGeometry x="1196.25" y="1100" width="76.25" height="30" as="geometry" />
        </mxCell>
        <mxCell id="YY16_9WFN3RDnf-ZN_8t-1684" value="1.平均准确性FT&amp;gt;LR&amp;gt;AP&amp;gt;PF&amp;gt;PT，&lt;br&gt;2.PT远落后其他方法" style="whiteSpace=wrap;html=1;rounded=0;arcSize=50;strokeWidth=1;spacing=4;dashed=1;" vertex="1" parent="1">
          <mxGeometry x="1330.625" y="895" width="120" height="60" as="geometry" />
        </mxCell>
        <mxCell id="YY16_9WFN3RDnf-ZN_8t-1687" value="&lt;div&gt;&amp;nbsp;1.收敛速度不如全量微调，&lt;/div&gt;&lt;div style=&quot;&quot;&gt;&amp;nbsp;2.对增量结构的收敛比可调参数的数量更敏感&lt;/div&gt;&lt;div style=&quot;&quot;&gt;&lt;span style=&quot;background-color: initial;&quot;&gt;3.&lt;/span&gt;&lt;span style=&quot;background-color: initial;&quot;&gt;模型越大，收敛越快&amp;nbsp; &amp;nbsp; &amp;nbsp; &amp;nbsp;&lt;/span&gt;&lt;/div&gt;4.效率排名 FT&amp;gt;AP≈LR&amp;gt;PF" style="whiteSpace=wrap;html=1;rounded=0;arcSize=50;strokeWidth=1;spacing=4;dashed=1;" vertex="1" parent="1">
          <mxGeometry x="1330.63" y="968.75" width="160" height="87.5" as="geometry" />
        </mxCell>
        <mxCell id="YY16_9WFN3RDnf-ZN_8t-1689" value="1.delta-tuning可大幅提高计算效率和存储效率" style="whiteSpace=wrap;html=1;rounded=0;arcSize=50;strokeWidth=1;spacing=4;dashed=1;" vertex="1" parent="1">
          <mxGeometry x="1330.63" y="1085" width="159.38" height="60" as="geometry" />
        </mxCell>
        <mxCell id="YY16_9WFN3RDnf-ZN_8t-1691" value="&lt;div&gt;&amp;nbsp;1.多种delta-tuning组合方法比单一方法更有效，&lt;/div&gt;&lt;div&gt;&amp;nbsp;2.存在最优的增量结构，且不可人工获得，可以自动生成&lt;/div&gt;" style="whiteSpace=wrap;html=1;rounded=0;arcSize=50;strokeWidth=1;spacing=4;dashed=1;" vertex="1" parent="1">
          <mxGeometry x="1330.63" y="1185" width="189.37" height="60" as="geometry" />
        </mxCell>
        <mxCell id="YY16_9WFN3RDnf-ZN_8t-1693" value="NAME MEAN" style="swimlane;fontStyle=0;childLayout=stackLayout;horizontal=1;startSize=26;fillColor=none;horizontalStack=0;resizeParent=1;resizeParentMax=0;resizeLast=0;collapsible=1;marginBottom=0;html=1;" vertex="1" parent="1">
          <mxGeometry x="1350.63" y="637.5" width="140" height="130" as="geometry" />
        </mxCell>
        <mxCell id="YY16_9WFN3RDnf-ZN_8t-1694" value="FT：" style="text;strokeColor=none;fillColor=none;align=left;verticalAlign=top;spacingLeft=4;spacingRight=4;overflow=hidden;rotatable=0;points=[[0,0.5],[1,0.5]];portConstraint=eastwest;whiteSpace=wrap;html=1;" vertex="1" parent="YY16_9WFN3RDnf-ZN_8t-1693">
          <mxGeometry y="26" width="140" height="26" as="geometry" />
        </mxCell>
        <mxCell id="YY16_9WFN3RDnf-ZN_8t-1695" value="LR：" style="text;strokeColor=none;fillColor=none;align=left;verticalAlign=top;spacingLeft=4;spacingRight=4;overflow=hidden;rotatable=0;points=[[0,0.5],[1,0.5]];portConstraint=eastwest;whiteSpace=wrap;html=1;" vertex="1" parent="YY16_9WFN3RDnf-ZN_8t-1693">
          <mxGeometry y="52" width="140" height="26" as="geometry" />
        </mxCell>
        <mxCell id="YY16_9WFN3RDnf-ZN_8t-1696" value="AP" style="text;strokeColor=none;fillColor=none;align=left;verticalAlign=top;spacingLeft=4;spacingRight=4;overflow=hidden;rotatable=0;points=[[0,0.5],[1,0.5]];portConstraint=eastwest;whiteSpace=wrap;html=1;" vertex="1" parent="YY16_9WFN3RDnf-ZN_8t-1693">
          <mxGeometry y="78" width="140" height="26" as="geometry" />
        </mxCell>
        <mxCell id="YY16_9WFN3RDnf-ZN_8t-1697" value="PF" style="text;strokeColor=none;fillColor=none;align=left;verticalAlign=top;spacingLeft=4;spacingRight=4;overflow=hidden;rotatable=0;points=[[0,0.5],[1,0.5]];portConstraint=eastwest;whiteSpace=wrap;html=1;" vertex="1" parent="YY16_9WFN3RDnf-ZN_8t-1693">
          <mxGeometry y="104" width="140" height="26" as="geometry" />
        </mxCell>
      </root>
    </mxGraphModel>
  </diagram>
</mxfile>
